<?xml version="1.0" encoding="utf-8"?>
<!-- Generator: Adobe Illustrator 26.0.2, SVG Export Plug-In . SVG Version: 6.00 Build 0)  -->
<svg version="1.1" id="Layer_1" xmlns="http://www.w3.org/2000/svg" xmlns:xlink="http://www.w3.org/1999/xlink" x="0px" y="0px"
	 viewBox="0 0 116 122.9" style="enable-background:new 0 0 116 122.9;" xml:space="preserve">
<style type="text/css">
	.st0{fill:#ffffff;}
</style>
<g>
	<path class="st0" d="M19.4,3.3h56.4c4.5,0,8.6,1.8,11.5,4.8s4.8,7,4.8,11.5V56c0,4.5-1.8,8.6-4.8,11.5c-3,3-7,4.8-11.5,4.8H47.6
		L22.8,93.6c-1.1,1-2.9,0.9-3.9-0.3c-0.5-0.6-0.7-1.3-0.7-2l1.3-19h-0.2c-4.5,0-8.6-1.8-11.5-4.8c-3-2.9-4.8-7-4.8-11.5V19.6
		c0-4.5,1.8-8.6,4.8-11.5C10.8,5.1,14.9,3.3,19.4,3.3L19.4,3.3z M100.1,29.8c3.2,0.6,6.1,2.2,8.3,4.4c2.9,2.9,4.7,6.9,4.7,11.3v36.4
		c0,4.4-1.8,8.4-4.7,11.3c-2.9,2.9-6.9,4.7-11.3,4.7h-0.6l1.3,19.4l0,0c0,0.6-0.1,1.2-0.6,1.7c-0.9,1-2.4,1.1-3.4,0.3L69,97.2H36.3
		l16.1-16.4h34.2c7.5,0,13.6-6.1,13.6-13.6V30.9C100.1,30.5,100.1,30.2,100.1,29.8L100.1,29.8z M27.4,44.7c-1.5,0-2.7-1.2-2.7-2.7
		c0-1.5,1.2-2.7,2.7-2.7h28.8c1.5,0,2.7,1.2,2.7,2.7c0,1.5-1.2,2.7-2.7,2.7H27.4L27.4,44.7z M27.4,31.1c-1.5,0-2.7-1.2-2.7-2.7
		s1.2-2.7,2.7-2.7h40.8c1.5,0,2.7,1.2,2.7,2.7s-1.2,2.7-2.7,2.7H27.4L27.4,31.1z M75.8,8.8H19.4c-3,0-5.7,1.2-7.6,3.2
		s-3.2,4.7-3.2,7.6V56c0,3,1.2,5.7,3.2,7.6s4.7,3.2,7.6,3.2h3.2v0l0.2,0c1.5,0.1,2.7,1.4,2.6,2.9l-1.1,15.4l20.4-17.6
		c0.5-0.5,1.2-0.8,1.9-0.8h29.2c3,0,5.7-1.2,7.6-3.2c2-2,3.2-4.7,3.2-7.6V19.6c0-3-1.2-5.7-3.2-7.6C81.5,10,78.8,8.8,75.8,8.8
		L75.8,8.8z"/>
</g>
</svg>
