<?xml version="1.0" encoding="UTF-8"?>
<!DOCTYPE svg PUBLIC "-//W3C//DTD SVG 1.1//EN" "http://www.w3.org/Graphics/SVG/1.1/DTD/svg11.dtd">
<!-- Creator: CorelDRAW -->
<svg xmlns="http://www.w3.org/2000/svg" xml:space="preserve" width="186.622mm" height="186.422mm" version="1.1" style="shape-rendering:geometricPrecision; text-rendering:geometricPrecision; image-rendering:optimizeQuality; fill-rule:evenodd; clip-rule:evenodd"
viewBox="0 0 18915.33 18895.06"
 xmlns:xlink="http://www.w3.org/1999/xlink"
 xmlns:xodm="http://www.corel.com/coreldraw/odm/2003">
 <defs>
  <style type="text/css">
   <![CDATA[
    .fil4 {fill:#4BCBF4}
    .fil2 {fill:#505050}
    .fil0 {fill:#665DFE}
    .fil3 {fill:#EBEBEB}
    .fil1 {fill:#FEFEFE}
   ]]>
  </style>
 </defs>
 <g id="Camada_x0020_1">
  <metadata id="CorelCorpID_0Corel-Layer"/>
  <path class="fil0" d="M18436.27 17970.64c-102.79,-689.43 -308.54,-1243.11 -377.77,-2034.94 -253.84,-2903.66 825.11,-3729.15 855.99,-6283.17 18.7,-1545.93 -275.99,-2785.13 -792.77,-3998.78 -1450.3,-3406 -4914.63,-5671.95 -8758.84,-5653.65 -8282.82,39.41 -12743.48,10397.49 -6272.13,16430.71 2194.27,2045.68 5706.05,3085.55 9095.87,2070.9 661.21,-197.91 1156.6,-434.03 1840.83,-588.54 1134.21,-256.12 2197.74,-294.26 3365.36,-135.45 349.32,47.5 687.18,152.18 1043.46,192.91z"/>
  <path class="fil1" d="M3167.32 9193.29c-7.43,15.12 -24.23,57.06 -27.24,66.04 -141.04,420.37 -144.53,1241.54 48.8,1699.76 -4.3,420.09 528.89,1220.84 737.46,1448.3 1447.63,1578.81 3103.74,1221.49 5437.75,1221.49 2475.36,0 5253.95,469.45 6190.25,-2694.56 135.58,-186.52 83.77,-1593.87 44.12,-1674.16l-59.14 -66.26c-89.05,-802.58 -893.94,-1705.08 -1423.01,-2067.6 -342.24,-234.51 -762.6,-433.28 -1222.64,-537.83 -421.26,-95.73 -1335.16,-156.15 -1755.34,-61.24 -334.15,-42.1 -3223.05,-87.59 -3556.87,-13.65 -317.26,-82.63 -1311.34,-20.2 -1660.16,51.74 -486.89,100.45 -892.54,270.82 -1291.23,531.42 -606.54,396.45 -1380.83,1328.87 -1462.75,2096.54z"/>
  <path class="fil2" d="M4882.85 10309.91c279.85,2129.84 2907.65,1604.91 4683.71,1604.91 724.57,0 2507.51,92.03 3060.14,-113.99 1810.57,-675.01 1488.25,-3326.3 -378.21,-3570.69 -810.27,-106.09 -2260.16,-20.32 -3137.45,-20.32 -724.3,0 -2533.16,-93.16 -3081.22,134.08 -661.71,274.37 -1280.47,949.89 -1146.96,1966z"/>
  <path class="fil3" d="M7581.46 6513.58c333.82,-73.94 3222.71,-28.45 3556.87,13.65 -212.36,-583.61 -993.04,-785.75 -1671.56,-826.96l-2.48 -1160.4c116.08,-240.32 372.92,-182.75 362.91,-555.78 -16.77,-625.31 -903.42,-607.62 -954.78,-41.43 -11.84,130.51 14.84,242.31 89.04,338.01 58.87,75.93 80.53,69.44 140.46,119.14 130.18,107.97 44.64,-19.74 134.88,140.05l-1.95 1113.51c-70.08,38.27 -7.41,15.46 -128.37,45.98 -361.18,91.15 -1294.95,123.64 -1525.01,814.22z"/>
  <path class="fil4" d="M6753.62 10208.7c157.05,652.29 1259.89,469.24 1084.01,-289.34 -156.86,-676.56 -1265.35,-463.89 -1084.01,289.34z"/>
  <path class="fil4" d="M10845.83 10107.46c46.84,703.02 1169.11,671.5 1107.58,-96.22 -55.23,-689.19 -1156.82,-643.12 -1107.58,96.22z"/>
  <path class="fil3" d="M3188.88 10959.09c-193.34,-458.22 -189.84,-1279.39 -48.8,-1699.76 3.01,-8.98 19.82,-50.92 27.24,-66.04 -416.4,65.01 -758.94,413.26 -736.71,911.33 23.03,515.97 349.45,721.09 758.27,854.48z"/>
  <path class="fil3" d="M15554.34 10934.32c973.51,-245.37 952.26,-1530.42 -15.02,-1740.41l59.14 66.26c39.65,80.28 91.46,1487.64 -44.12,1674.16z"/>
 </g>
</svg>
