<?xml version="1.0" encoding="utf-8"?>
<!-- Generator: Adobe Illustrator 26.0.2, SVG Export Plug-In . SVG Version: 6.00 Build 0)  -->
<svg version="1.1" id="Camada_1" xmlns="http://www.w3.org/2000/svg" xmlns:xlink="http://www.w3.org/1999/xlink" x="0px" y="0px"
	 viewBox="0 0 24 24" style="enable-background:new 0 0 24 24;" xml:space="preserve">
<style type="text/css">
	.st0{fill:none;stroke:#ffffff;stroke-miterlimit:10;}
	.st1{fill:none;stroke:#ffffff;stroke-linecap:round;stroke-linejoin:round;}
	.st2{fill:#ffffff;}
</style>
<path class="st0" d="M13.5,9.5h1v1.9l2.4-1.9h1.9c2.4,0,4.3-1.9,4.3-4.3s-1.9-4.3-4.3-4.3H13c-2.4,0-4.3,1.9-4.3,4.3"/>
<path class="st1" d="M1,23c0-1.1,0.2-2.2,0.7-3.2c0.5-0.9,2.4-1.6,4.9-2.5c0.7-0.2,0.6-2,0.3-2.3c-1-1-1.4-2.4-1.3-3.8
	C5.4,9.4,6.7,7.8,8.5,7.6c0.1,0,0.2,0,0.2,0c1.8,0,3.2,1.5,3.1,3.3c0,0.1,0,0.2,0,0.2c0.1,1.4-0.3,2.8-1.3,3.8
	c-0.3,0.3-0.4,2.1,0.3,2.3c2.5,0.9,4.4,1.6,4.9,2.5c0.4,1,0.7,2.1,0.7,3.2H1z"/>
<path class="st2" d="M18.8,4.5c-0.4,0-0.7,0.3-0.7,0.7s0.3,0.7,0.7,0.7c0.4,0,0.7-0.3,0.7-0.7S19.2,4.5,18.8,4.5z"/>
<path class="st2" d="M15.9,4.5c-0.4,0-0.7,0.3-0.7,0.7s0.3,0.7,0.7,0.7c0.4,0,0.7-0.3,0.7-0.7S16.3,4.5,15.9,4.5z"/>
<path class="st2" d="M13,4.5c-0.4,0-0.7,0.3-0.7,0.7s0.3,0.7,0.7,0.7c0.4,0,0.7-0.3,0.7-0.7S13.4,4.5,13,4.5z"/>
</svg>
