<?xml version="1.0" encoding="utf-8"?>
<!-- Generator: Adobe Illustrator 26.0.2, SVG Export Plug-In . SVG Version: 6.00 Build 0)  -->
<svg version="1.1" id="Layer_1" xmlns="http://www.w3.org/2000/svg" xmlns:xlink="http://www.w3.org/1999/xlink" x="0px" y="0px"
	 viewBox="0 0 64 64" style="enable-background:new 0 0 64 64;" xml:space="preserve">
<style type="text/css">
	.st0{fill:none;stroke:#ffffff;stroke-width:3;stroke-miterlimit:10;}
	.st1{fill:#ffffff;}
</style>
<g>
	<g>
		<g>
			<path class="st0" d="M32.1,2c16.7,0,30.1,13.5,30.1,30.1S48.8,62.3,32.1,62.3S2,48.8,2,32.1S15.5,2,32.1,2z"/>
		</g>
	</g>
	<g>
		<g>
			<g>
				<path class="st1" d="M11.6,17.9c-3.4,5,0.7,15.4,9.4,24.2s19.2,12.7,24.2,9.4c0.2-0.1,0.3-0.2,0.5-0.3l3.4-3.4
					c1-1,0.9-2.8-0.2-4.1l-5.9-5.8c-1.2-1.2-3-1.3-4.1-0.2l-3.9,3.9c-0.3,0.3-1,0.5-1.5,0.1c-2.2-1.5-4.3-3.2-6.4-5.3
					s-3.8-4.3-5.3-6.4c-0.3-0.5-0.3-1.2,0.1-1.5l3.9-3.9c1-1,0.9-2.8-0.2-4.1l-6-6c-1.2-1.2-3-1.3-4.1-0.2l-3.4,3.4
					C11.9,17.6,11.7,17.8,11.6,17.9z"/>
			</g>
		</g>
		<g>
			<g>
				<path class="st1" d="M43,30.6h-3.5c0-4.5-3.7-8.1-8.1-8.1v-3.5C37.8,19.1,43,24.3,43,30.6z"/>
			</g>
		</g>
		<g>
			<g>
				<path class="st1" d="M50.4,31.9h-3.5c0-9.3-7.5-16.8-16.8-16.8v-3.5C41.3,11.7,50.4,20.8,50.4,31.9z"/>
			</g>
		</g>
	</g>
</g>
</svg>
