<?xml version="1.0" encoding="utf-8"?>
<!-- Generator: Adobe Illustrator 26.0.2, SVG Export Plug-In . SVG Version: 6.00 Build 0)  -->
<svg version="1.1" id="Camada_1" xmlns="http://www.w3.org/2000/svg" xmlns:xlink="http://www.w3.org/1999/xlink" x="0px" y="0px"
	 viewBox="0 0 49.9 49.9" style="enable-background:new 0 0 49.9 49.9;" xml:space="preserve">
<style type="text/css">
	.st0{fill:#AEA9FE;}
	.st1{fill:#00C569;}
</style>
<g id="Layer_2">
	<g id="Search">
		<path class="st0" d="M48.4,45L38.2,34.8c-1-1-2.7-1-3.8,0c-6.7,6.5-17.4,6.3-23.9-0.4S4.2,17,10.9,10.5s17.4-6.3,23.9,0.4
			c2.2,2.2,3.7,5.1,4.4,8.1c0.6,2.7,0.5,5.4-0.2,8c-0.3,1.3,0.4,2.6,1.7,3c1.3,0.3,2.6-0.4,3-1.7l0,0c3.1-11.6-3.8-23.6-15.5-26.7
			S4.6,5.4,1.5,17S5.4,40.6,17,43.7c6.7,1.8,13.8,0.3,19.2-4l8.8,8.8c0.9,0.9,2.5,0.9,3.4,0c0,0,0,0,0,0C49.4,47.5,49.4,46,48.4,45
			C48.4,45,48.4,45,48.4,45z"/>
		<path class="st1" d="M29.9,29.9c-0.8-0.7-2-0.8-2.9-0.3c-2.6,1.6-5.8,1.6-8.4,0.2c-0.9-0.5-2-0.4-2.8,0.3l-0.1,0.1
			c-0.9,0.9-1,2.4-0.1,3.3c0.1,0.2,0.3,0.3,0.5,0.4c4.2,2.4,9.4,2.3,13.5-0.3c1.1-0.7,1.4-2.1,0.7-3.2c-0.1-0.1-0.2-0.3-0.3-0.4
			L29.9,29.9z"/>
	</g>
</g>
</svg>
