<?xml version="1.0" encoding="UTF-8"?>
<!DOCTYPE svg PUBLIC "-//W3C//DTD SVG 1.1//EN" "http://www.w3.org/Graphics/SVG/1.1/DTD/svg11.dtd">
<!-- Creator: CorelDRAW -->
<svg xmlns="http://www.w3.org/2000/svg" xml:space="preserve" width="135.467mm" height="135.467mm" version="1.1" style="shape-rendering:geometricPrecision; text-rendering:geometricPrecision; image-rendering:optimizeQuality; fill-rule:evenodd; clip-rule:evenodd"
viewBox="0 0 13546.68 13546.68"
 xmlns:xlink="http://www.w3.org/1999/xlink"
 xmlns:xodm="http://www.corel.com/coreldraw/odm/2003">
 <defs>
  <style type="text/css">
   <![CDATA[
    .str0 {stroke:#C24A38;stroke-width:20;stroke-miterlimit:22.9256}
    .str1 {stroke:#F5886C;stroke-width:20;stroke-miterlimit:22.9256}
    .fil11 {fill:none;fill-rule:nonzero}
    .fil7 {fill:black}
    .fil5 {fill:black;fill-rule:nonzero}
    .fil10 {fill:#111111;fill-rule:nonzero}
    .fil8 {fill:#BF0006;fill-rule:nonzero}
    .fil1 {fill:#C24A38;fill-rule:nonzero}
    .fil4 {fill:#F5886C;fill-rule:nonzero}
    .fil3 {fill:#F6E4DC;fill-rule:nonzero}
    .fil6 {fill:#F7E4D4;fill-rule:nonzero}
    .fil9 {fill:#FCD3C2;fill-rule:nonzero}
    .fil2 {fill:white;fill-rule:nonzero}
    .fil0 {fill:url(#id1);fill-rule:nonzero}
   ]]>
  </style>
   <clipPath id="id0" style="clip-rule:nonzero">
    <path d="M-0 13546.68l13546.68 0 0 -13546.68 -13546.68 0 0 13546.68z"/>
   </clipPath>
  <radialGradient id="id1" gradientUnits="objectBoundingBox" cx="50%" cy="50%" r="50%" fx="50%" fy="50%">
   <stop offset="0" style="stop-opacity:1; stop-color:#6EFF4C"/>
   <stop offset="1" style="stop-opacity:1; stop-color:#009300"/>
  </radialGradient>
 </defs>
 <g id="Camada_x0020_1">
  <metadata id="CorelCorpID_0Corel-Layer"/>
  <polygon class="fil0" points="-0,13546.68 13546.68,13546.68 13546.68,0 -0,0 "/>
  <g style="clip-path:url(#id0)">
   <g id="_2196849040608">
    <g>
     <path id="_1" class="fil1 str0" d="M7451.7 10970.14l192.06 0c11.3,60.36 17.42,122.56 17.42,186.2 0,559.2 -453.31,1012.51 -1012.51,1012.51 -559.19,0 -1012.51,-453.31 -1012.51,-1012.51 0,-63.64 6.12,-125.84 17.42,-186.2l203.7 0 0 133.47c0,440.49 356.93,797.57 797.21,797.57 440.29,0 797.21,-357.08 797.21,-797.57l0 -133.47z"/>
     <polygon id="body-bg-flat_x0020_copy_0" class="fil2" points="7451.7,10469.83 7452.06,10469.69 7451.7,10834.03 "/>
     <path id="body-bg-flat_x0020_copy_1" class="fil3" d="M5985.29 10911.94l0.36 0c0,0 0,-477.15 0,-477.15 0,0 653.67,280.66 1349.65,74.06l0 589.89c0,372.47 -302.2,674.42 -675,674.42 -372.79,0 -675.01,-301.95 -675.01,-674.42l0 -186.8z"/>
     <path id="body-bg-flat_x0020_copy_2" class="fil4 str1" d="M2820.12 13595.6c0,0 -180.45,-2454.57 2129.75,-2683.66l596.72 0c-17.47,78.7 -26.81,160.45 -26.81,244.4 0,623.47 505.41,1128.89 1128.88,1128.89 623.47,0 1128.89,-505.42 1128.89,-1128.89 0,-83.95 -9.35,-165.7 -26.82,-244.4l934.96 0c0,0 2072.62,81.4 1978.46,2706.94 0,0 -7844.04,-23.28 -7844.04,-23.28z"/>
     <path id="Rounded_x0020_Rectangle_x0020_13" class="fil5" d="M10657.12 13693.44c0,0 0,0 0,0 0,0 -7760.66,0 -7760.66,0 0,0 0,0 0,0 0,0 -150.51,0 -150.51,0 0,0 37.57,-641.81 37.57,-641.81 73.35,-1253.16 1060.7,-2209.51 2190.59,-2209.51 0,0 859.89,0 859.89,0 0,0 0,128.02 0,128.02 0,0 -791.31,0 -791.31,0 -1088.97,0 -2040.57,920.54 -2111.27,2126.76 0,0 -26.1,445.24 -26.1,445.24 0,0 7731.3,0 7731.3,0 0,0 -14.47,-445.24 -14.47,-445.24 -70.69,-1206.22 -1022.3,-2126.76 -2111.27,-2126.76 0,0 -1059.18,0 -1059.18,0 0,0 0,-128.02 0,-128.02 0,0 1120.87,0 1120.87,0 1129.88,0 2117.23,956.35 2190.59,2209.51 0,0 37.57,641.81 37.57,641.81 0,0 -143.61,0 -143.61,0z"/>
     <path id="Ellipse_x0020_4" class="fil5" d="M6648.66 12285.23c-623.47,0 -1128.88,-505.42 -1128.88,-1128.89 0,-109.09 15.77,-214.44 44.65,-314.22 0,0 1.89,0 1.89,0 0,0 119.8,0 119.8,0 0,0 206.07,0 206.07,0 0,0 0,128.02 0,128.02 0,0 -238.62,0 -238.62,0 -11.3,60.36 -17.42,122.56 -17.42,186.2 0,559.2 453.32,1012.51 1012.51,1012.51 559.2,0 1012.51,-453.31 1012.51,-1012.51 0,-63.64 -6.12,-125.84 -17.42,-186.2 0,0 -238.61,0 -238.61,0 0,0 0,-128.02 0,-128.02 0,0 206.06,0 206.06,0 0,0 119.8,0 119.8,0 0,0 1.89,0 1.89,0 28.88,99.78 44.66,205.13 44.66,314.22 0,623.47 -505.42,1128.89 -1128.89,1128.89z"/>
     <path id="neck" class="fil5" d="M5985.29 10380.94c0,0 0,717.8 0,717.8 0,372.47 302.22,674.42 675.01,674.42 372.8,0 675,-301.95 675,-674.42 0,0 0,-702.98 0,-702.98 39.18,-11.93 77.98,-24.88 116.39,-38.87 0,0 0,746.72 0,746.72 0,440.49 -356.92,797.57 -797.21,797.57 -440.28,0 -797.21,-357.08 -797.21,-797.57 0,0 0,-768.83 0,-768.83 42.17,16.68 84.88,32.01 128.02,46.16z"/>
     <path id="_2_x0020_copy_x0020_5" class="fil6" d="M6689.43 3079.53c1447.79,0 2590.53,1352.96 2553.37,2978.57 0,0 -39.49,1727.74 -39.49,1727.74 -35,1531.48 -1160.12,2742.04 -2513.88,2742.04 -1353.76,0 -2478.87,-1210.56 -2513.88,-2742.04 0,0 -39.49,-1727.74 -39.49,-1727.74 -37.15,-1625.61 1105.58,-2978.57 2553.37,-2978.57z"/>
     <path id="_2_x0020_line" class="fil7" d="M9359.14 6004.54c0,0 -41.38,1797.92 -41.38,1797.92 -36.68,1593.7 -1215.62,2853.44 -2634.14,2853.44 -1418.51,0 -2597.45,-1259.74 -2634.12,-2853.44 0,0 -41.38,-1797.92 -41.38,-1797.92 -38.94,-1691.65 1158.46,-3099.57 2675.5,-3099.57 1517.05,0 2714.45,1407.92 2675.52,3099.57zm-2681.33 -2913.37c-1427.99,0 -2555.11,1342.39 -2518.46,2955.29 0,0 38.95,1714.24 38.95,1714.24 34.53,1519.52 1144.26,2720.62 2479.51,2720.62 1335.26,0 2444.99,-1201.1 2479.52,-2720.62 0,0 38.94,-1714.24 38.94,-1714.24 36.65,-1612.9 -1090.46,-2955.29 -2518.46,-2955.29z"/>
     <path id="usta" class="fil8" d="M7940.49 8831.09c-211.54,183.67 -689.33,358.43 -1245.27,358.43 -555.93,0 -1033.73,-174.76 -1245.27,-358.43 0,0 -21.64,-59.56 10.12,-91.31 32.34,-32.34 82.99,-25.31 82.99,-25.31 211.32,183.8 596.02,335.39 1152.16,335.39 556.16,0 940.86,-151.59 1152.17,-335.39 0,0 51.69,-19.2 76.8,5.9 48.36,48.37 16.3,110.72 16.3,110.72z"/>
     <path id="_-" class="fil5" d="M6311.16 9468.83c0,0 744.84,0 744.84,0 0,0 0,116.38 0,116.38 0,0 -744.84,0 -744.84,0 0,0 0,-116.38 0,-116.38z"/>
     <path id="Shape_x0020_11_x0020_copy" class="fil6" d="M4005.21 6266.71c-0.32,0.02 -28.58,-22.54 -81.93,-39.34 -26.67,-8.38 -59.81,-15.28 -97.59,-16.97 -9.43,-0.43 -19.13,-0.52 -29.07,-0.24 -9.94,0.27 -20.1,0.94 -30.42,2.05 -20.66,2.2 -41.99,6.16 -63.46,12.34 -85.95,24.7 -173.63,84.76 -225.13,208.72 -25.86,61.98 -42.91,139.94 -47.41,237.48 -1.13,24.4 -1.48,50 -0.98,76.9 0.49,26.89 1.83,55.06 4.06,84.57 4.45,59.02 12.51,123.38 24.51,193.51 -0.27,-0.07 -11.19,211.94 64.59,455.55 71.26,238.18 242.36,530.76 558.27,614.37 -36.33,-604.98 -37.45,-1221.3 -75.44,-1828.94 0,0 0,0 0,0z"/>
     <path id="Shape_x0020_3" class="fil5" d="M4041.23 6291.1c0,0 -550.34,-170.52 -530.98,395.26 0,0 81.94,820.42 117.52,896.02 0,0 216.14,477.67 572.84,498.84 348.62,20.69 0,0 0,0 0,0 4.33,153.97 4.33,153.97 0,0 -626.95,-80.38 -748.04,-802.88 0,0 -95.57,-656.35 -95.57,-656.35 0,0 -74.21,-868.62 645.62,-647.76 701.27,215.15 0,0 0,0 0,0 34.28,162.9 34.28,162.9z"/>
     <path id="Shape_x0020_4" class="fil5" d="M3859.58 7430.94c0,0 -30.8,23.28 -57.26,23.28 -26.46,0 -56.88,-23.28 -56.88,-23.28 0,0 -56.8,-572.34 -56.8,-572.34 0,0 78.36,-281.87 410.89,-132.91 0,0 7.86,163.65 7.86,163.65 0,0 -291.74,-103.46 -285.71,25.38 5.81,124.01 37.9,516.22 37.9,516.22z"/>
     <path id="Shape_x0020_11_x0020_copy_1" class="fil6" d="M9351.61 6268.05c0.32,0.02 28.7,-22.52 82.28,-39.32 26.79,-8.37 60.08,-15.26 98.01,-16.96 9.48,-0.42 19.23,-0.52 29.21,-0.24 9.98,0.29 20.19,0.94 30.56,2.05 20.74,2.2 42.17,6.16 63.73,12.34 86.33,24.68 174.4,84.7 226.12,208.57 25.96,61.94 43.09,139.85 47.61,237.34 1.14,24.36 1.49,49.95 0.99,76.83 -0.49,26.87 -1.84,55.02 -4.08,84.52 -4.48,58.97 -12.56,123.29 -24.61,193.37 0.27,-0.06 11.24,211.8 -64.89,455.25 -71.56,238.01 -243.41,530.4 -560.71,613.94 36.5,-604.56 37.62,-1220.46 75.78,-1827.69 0,0 0,0 0,0z"/>
     <path id="Shape_x0020_3_1" class="fil5" d="M9315.31 6292.42c0,0 552.76,-170.41 533.31,394.99 0,0 -82.3,819.86 -118.04,895.42 0,0 -217.08,477.35 -575.35,498.5 -350.14,20.67 0,0 0,0 0,0 -4.35,153.86 -4.35,153.86 0,0 629.69,-80.33 751.31,-802.33 0,0 96,-655.91 96,-655.91 0,0 74.54,-868.02 -648.45,-647.32 -704.33,215.01 0,0 0,0 0,0 -34.43,162.79 -34.43,162.79z"/>
     <path id="Shape_x0020_4_1" class="fil5" d="M9497.76 7431.49c0,0 30.93,23.25 57.5,23.25 26.58,0 57.14,-23.25 57.14,-23.25 0,0 57.04,-571.95 57.04,-571.95 0,0 -78.71,-281.67 -412.69,-132.83 0,0 -7.9,163.55 -7.9,163.55 0,0 293.02,-103.39 286.96,25.35 -5.82,123.94 -38.05,515.88 -38.05,515.88z"/>
     <path id="new_vector_shape_done" class="fil7" d="M6898.89 7385.62c13.58,0 27.16,0 40.73,0 84.22,114.37 118.48,290.12 162.93,442.25 13.78,47.14 0.41,129.6 -11.63,162.93 -44.13,122.08 -182.69,119.88 -296.77,174.56 -30.64,14.69 -53.43,40.04 -93.1,46.56 -25.87,-22.78 -57.11,-27.26 -69.84,-64.01 -31.42,-43.28 9.08,-70.31 40.74,-87.29 57.45,-30.8 234.8,-61.17 256.03,-116.37 26.28,-29.9 8.81,-119.75 0,-151.3 -22.54,-80.79 -33.37,-148.25 -64.01,-221.12 -20.35,-48.41 -56.08,-99.44 -34.9,-157.12 17.53,-7.53 55.45,-16.09 69.82,-29.09z"/>
     <path id="Rounded_x0020_Rectangle_x0020_8" class="fil5" d="M5287.01 6489.49c0,0 162.93,0 162.93,0 89.99,0 162.94,72.93 162.94,162.92 0,89.99 -72.95,162.93 -162.94,162.93 0,0 -162.93,0 -162.93,0 -89.99,0 -162.93,-72.94 -162.93,-162.93 0,-89.99 72.94,-162.92 162.93,-162.92z"/>
     <path id="Rounded_x0020_Rectangle_x0020_8_x0020_copy" class="fil5" d="M7940.49 6489.49c0,0 162.94,0 162.94,0 89.99,0 162.93,72.93 162.93,162.92 0,89.99 -72.94,162.93 -162.93,162.93 0,0 -162.94,0 -162.94,0 -89.98,0 -162.93,-72.94 -162.93,-162.93 0,-89.99 72.95,-162.92 162.93,-162.92z"/>
     <path id="Ellipse_x0020_3" class="fil9" d="M8454.67 7861.7c160.69,0 290.94,130.27 290.94,290.95 0,160.69 -130.25,290.96 -290.94,290.96 -160.69,0 -290.95,-130.27 -290.95,-290.96 0,-160.68 130.26,-290.95 290.95,-290.95z"/>
     <path id="Ellipse_x0020_3_x0020_copy" class="fil9" d="M4931.53 7873.7c160.69,0 290.95,130.27 290.95,290.95 0,160.69 -130.26,290.96 -290.95,290.96 -160.69,0 -290.95,-130.27 -290.95,-290.96 0,-160.68 130.26,-290.95 290.95,-290.95z"/>
     <g>
      <path id="R_x0020_copy" class="fil5" d="M7428.97 6079.27c0,0 696.78,-398.37 1194.53,40.53 0,0 131.66,20.41 131.66,20.41 0,0 -168.64,-613.65 -1396.57,-214.63 0,0 34.19,114.38 34.19,114.38l36.19 39.31zm-8.91 -39.31c0,0 708.84,-407.14 1176.16,107.11 0,0 240.77,-6.86 240.77,-6.86 0,0 -300.28,-655.52 -1532.95,-241.91 0,0 116.02,168.94 116.02,168.94l0 -27.28zm0 0l0 0 0 0z"/>
     </g>
     <g>
      <path id="R_x0020_copy_x0020_3" class="fil5" d="M5931.79 6081.57c0,0 -694.45,-394.84 -1190.54,40.18 0,0 -131.22,20.23 -131.22,20.23 0,0 168.08,-608.23 1391.9,-212.74 0,0 -34.07,113.38 -34.07,113.38l-36.07 38.95zm8.88 -38.95c0,0 -706.47,-403.54 -1172.23,106.16 0,0 -239.96,-6.8 -239.96,-6.8 0,0 299.27,-649.71 1527.82,-239.77 0,0 -115.63,167.44 -115.63,167.44l0 -27.03zm0 0l0 0 0 0z"/>
     </g>
     <path id="Shape_x0020_1" class="fil10" d="M4174.13 7485.63c0,0 -1174.44,-461.75 -1331.7,-1159.52 -157.25,-697.76 -22.7,-1136.96 172.32,-1280.67 0,0 -83.85,-1074.19 320.03,-1420.38 0,0 182.19,-779.99 1107.78,-1024.54 0,0 1437.22,-1515.95 4037.23,-465.7 0,0 640.37,619.24 1026.27,843.4 10.97,6.38 21.73,12.44 32.28,18.15 381.25,206.59 740.76,636.75 812.37,1466.95 0,0 -7.19,742.94 369.26,1234.1 0,0 416.7,1293.53 -1550.89,1746.38 0,0 -73.86,-1792.95 -73.86,-1792.95 0,0 -910.25,-312.77 -1009.31,-1140.96 0,0 -1329.84,419.13 -2166.32,-23.28 0,0 -519.4,-156.63 -541.58,69.84 0,0 -173.99,936.98 -1107.77,1187.54 0,0 -96.11,1741.64 -96.11,1741.64z"/>
    </g>
   </g>
  </g>
  <polygon class="fil11" points="-0,13546.68 13546.68,13546.68 13546.68,0 -0,0 "/>
 </g>
</svg>
