<?xml version="1.0" encoding="UTF-8"?>
<!DOCTYPE svg PUBLIC "-//W3C//DTD SVG 1.1//EN" "http://www.w3.org/Graphics/SVG/1.1/DTD/svg11.dtd">
<!-- Creator: CorelDRAW -->
<svg xmlns="http://www.w3.org/2000/svg" xml:space="preserve" width="135.467mm" height="135.467mm" version="1.1" style="shape-rendering:geometricPrecision; text-rendering:geometricPrecision; image-rendering:optimizeQuality; fill-rule:evenodd; clip-rule:evenodd"
viewBox="0 0 13546.68 13546.68"
 xmlns:xlink="http://www.w3.org/1999/xlink"
 xmlns:xodm="http://www.corel.com/coreldraw/odm/2003">
 <defs>
  <style type="text/css">
   <![CDATA[
    .str0 {stroke:#751115;stroke-width:20;stroke-miterlimit:22.9256}
    .str1 {stroke:#BA3437;stroke-width:20;stroke-miterlimit:22.9256}
    .fil11 {fill:none;fill-rule:nonzero}
    .fil4 {fill:black}
    .fil6 {fill:#111111}
    .fil7 {fill:black;fill-rule:nonzero}
    .fil5 {fill:black;fill-rule:nonzero}
    .fil9 {fill:#3B434F;fill-rule:nonzero}
    .fil3 {fill:#694B39;fill-rule:nonzero}
    .fil1 {fill:#751115;fill-rule:nonzero}
    .fil2 {fill:#BA3437;fill-rule:nonzero}
    .fil8 {fill:#F7FBFB;fill-rule:nonzero}
    .fil10 {fill:#111111;fill-rule:nonzero;fill-opacity:0.549020}
    .fil0 {fill:url(#id1);fill-rule:nonzero}
   ]]>
  </style>
   <clipPath id="id0" style="clip-rule:nonzero">
    <path d="M-0 13546.68l13546.68 0 0 -13546.68 -13546.68 0 0 13546.68z"/>
   </clipPath>
  <radialGradient id="id1" gradientUnits="objectBoundingBox" cx="50%" cy="50%" r="50%" fx="50%" fy="50%">
   <stop offset="0" style="stop-opacity:1; stop-color:#00FDFF"/>
   <stop offset="1" style="stop-opacity:1; stop-color:#00B3FF"/>
  </radialGradient>
 </defs>
 <g id="Camada_x0020_1">
  <metadata id="CorelCorpID_0Corel-Layer"/>
  <polygon class="fil0" points="-0,13546.68 13546.68,13546.68 13546.68,0 -0,0 "/>
  <g style="clip-path:url(#id0)">
   <g id="_2196543755712">
    <path id="_1" class="fil1 str0" d="M7648.22 10851.4c0,0 -24.97,2.27 -34.86,135.2 0,111.69 0,215.59 0,294.75 0,63.73 -43.75,209.17 -43.75,209.17 0,0 -45.56,88.87 -77.19,124.65 -68.07,121.24 -172.71,247.31 -332.26,328.55 0,0 180.71,-51.79 348.61,232.39 0,0 429.96,-673.97 429.96,-673.97 0,0 227.35,-395.96 -290.51,-650.74z"/>
    <path id="body-bg_0" class="fil1 str0" d="M6061.73 11615.17c-31.6,-35.78 -77.11,-124.65 -77.11,-124.65 0,0 -43.7,-145.44 -43.7,-209.17 0,-79.16 0,-183.06 0,-294.75 -9.88,-132.93 -34.83,-135.2 -34.83,-135.2 -517.29,254.78 -290.18,650.74 -290.18,650.74 0,0 429.48,673.97 429.48,673.97 167.72,-284.18 348.23,-232.39 348.23,-232.39 -159.38,-81.24 -263.91,-207.31 -331.89,-328.55z"/>
    <path id="body-bg_1" class="fil2 str1" d="M7907.71 10866.65l890.93 0c0,0 1927.16,237.72 1927.16,2734.05l-3870.67 0c1.88,-5.88 2.9,-12.08 2.9,-18.47 0,0 0,-1475.83 0,-1475.83 0,0 466.28,-185.95 627.5,313.75 0,0 592.65,-883.16 592.65,-883.16 0,0 153.16,-389.29 -170.47,-670.34z"/>
    <path id="body-bg_2" class="fil3" d="M5986.5 10433.06l0 -66.09c0,0 754.22,376.07 1533.88,11.62l0 54.47 -38.28 0c0,0 0,485.44 0,841.13 -16.85,144.79 -116.65,557.35 -705.42,692.76 -588.14,-135.41 -687.83,-547.97 -704.66,-692.76 0,-355.69 0,-841.13 0,-841.13l-85.52 0z"/>
    <path id="body-bg_3" class="fil2 str1" d="M2854.8 13600.7c0,0 -326.52,-2518.09 2190.45,-2745.67 0,0 604.25,0 604.25,0 0,0 18.11,-11.7 47.18,-28 -388.15,282.45 -220.07,709.96 -220.07,709.96 0,0 592,883.16 592,883.16 160.38,-497.66 622.95,-315.29 626.73,-313.78 0,0 0,1475.86 0,1475.86 0,6.39 1.02,12.59 2.9,18.47l-3843.44 0z"/>
    <path id="Rounded_x0020_Rectangle_x0020_13_x0020_copy_x0020_4" class="fil4" d="M10651.23 13698.39c0,0 -7748.89,0 -7748.89,0 0,0 -150.28,0 -150.28,0 0,0 37.51,-640.84 37.51,-640.84 73.25,-1251.25 1059.09,-2206.15 2187.27,-2206.15 0,0 775.75,0 775.75,0 -50.32,41.62 -87.2,84.79 -113.73,127.82 0,0 -593.53,0 -593.53,0 -1087.33,0 -2037.48,919.14 -2108.08,2123.54 0,0 -26.05,444.56 -26.05,444.56 0,0 7719.55,0 7719.55,0 0,0 -14.43,-444.56 -14.43,-444.56 -70.59,-1204.4 -1020.75,-2123.54 -2108.08,-2123.54 0,0 -594.04,0 -594.04,0 -22.72,-42.71 -55.02,-85.88 -100.12,-127.82 0,0 755.76,0 755.76,0 1128.17,0 2114.03,954.9 2187.27,2206.15 0,0 37.51,640.84 37.51,640.84 0,0 -143.39,0 -143.39,0zm-3067.01 -2719.17c0,0 -40.58,0 -40.58,0 0,0 0,-127.82 0,-127.82 0,0 45.09,0 45.09,0 -2.69,33.21 -4.42,75.09 -4.51,127.82zm-1634.41 -127.82c0,0 48.31,0 48.31,0 0,0 0,127.82 0,127.82 0,0 -41.75,0 -41.75,0 -0.63,-54.29 -3.12,-95.95 -6.56,-127.82z"/>
    <path id="Ellipse_x0020_5_x0020_copy" class="fil5" d="M7136.92 13163.85c44.93,0 81.34,36.42 81.34,81.34 0,44.92 -36.41,81.34 -81.34,81.34 -44.93,0 -81.35,-36.42 -81.35,-81.34 0,-44.92 36.42,-81.34 81.35,-81.34zm0 -534.54c44.93,0 81.34,36.42 81.34,81.34 0,44.92 -36.41,81.34 -81.34,81.34 -44.93,0 -81.35,-36.42 -81.35,-81.34 0,-44.92 36.42,-81.34 81.35,-81.34z"/>
    <path id="Shape_x0020_2_x0020_copy_x0020_9" class="fil4" d="M8078.18 11536.99c0,0 -592.65,883.16 -592.65,883.16 -161.22,-499.7 -627.5,-313.75 -627.5,-313.75 0,0 0,1475.83 0,1475.83 0,38.47 -36.42,69.67 -81.34,69.67 -44.92,0 -81.34,-31.2 -81.34,-69.67 0,0 0,-1475.86 0,-1475.86 -3.78,-1.51 -466.35,-183.88 -626.73,313.78 0,0 -592,-883.16 -592,-883.16 0,0 -229,-582.2 464.31,-836.66 0,-253.91 0,-267.27 0,-267.27 0,0 131.1,0 131.1,0 0,0 0,485.44 0,841.13 16.83,144.79 116.52,557.35 704.66,692.76 588.77,-135.41 688.57,-547.97 705.42,-692.76 0,-355.69 0,-841.13 0,-841.13 0,0 131.25,0 131.25,0 0,0 0,13.36 0,267.27 694.05,254.46 464.82,836.66 464.82,836.66zm-2016.44 78.18c-31.6,-35.78 -77.11,-124.65 -77.11,-124.65 0,0 -43.7,-145.44 -43.7,-209.17 0,-79.16 0,-183.06 0,-294.75 -9.88,-132.93 -34.83,-135.2 -34.83,-135.2 -517.29,254.78 -290.18,650.74 -290.18,650.74 0,0 429.48,673.97 429.48,673.97 167.72,-284.18 348.23,-232.39 348.23,-232.39 -159.38,-81.24 -263.91,-207.31 -331.89,-328.55zm1586.48 -763.77c0,0 -24.97,2.27 -34.86,135.2 0,111.69 0,215.59 0,294.75 0,63.73 -43.75,209.17 -43.75,209.17 0,0 -45.56,88.87 -77.19,124.65 -68.07,121.24 -172.71,247.31 -332.26,328.55 0,0 180.71,-51.79 348.61,232.39 0,0 429.96,-673.97 429.96,-673.97 0,0 227.35,-395.96 -290.51,-650.74z"/>
    <path id="_2_x0020_copy_x0020_5" class="fil3" d="M6782.54 3100.59c1445.58,0 2586.59,1350.91 2549.49,2974.05 0,0 -39.43,1725.11 -39.43,1725.11 -34.96,1529.16 -1158.36,2737.89 -2510.06,2737.89 -1351.71,0 -2475.12,-1208.73 -2510.07,-2737.89 0,0 -39.43,-1725.11 -39.43,-1725.11 -37.1,-1623.14 1103.91,-2974.05 2549.5,-2974.05z"/>
    <path id="_2_x0020_line" class="fil4" d="M9448.18 6021.16c0,0 -41.32,1795.19 -41.32,1795.19 -36.63,1591.28 -1213.77,2849.11 -2630.13,2849.11 -1416.37,0 -2593.51,-1257.83 -2630.14,-2849.11 0,0 -41.32,-1795.19 -41.32,-1795.19 -38.87,-1689.09 1156.72,-3094.87 2671.46,-3094.87 1514.74,0 2710.33,1405.78 2671.45,3094.87zm-2677.26 -2908.95c-1425.82,0 -2551.23,1340.35 -2514.64,2950.81 0,0 38.89,1711.64 38.89,1711.64 34.47,1517.21 1142.52,2716.49 2475.75,2716.49 1333.23,0 2441.27,-1199.28 2475.75,-2716.49 0,0 38.9,-1711.64 38.9,-1711.64 36.58,-1610.46 -1088.82,-2950.81 -2514.65,-2950.81z"/>
    <path id="_1_x0020_copy_x0020_4" class="fil6" d="M9375.66 6319.43c0,0 -116.21,1905.75 -116.21,1905.75 0,0 -516.11,2199.82 -2510,2460.29 0,0 0,3.22 0,3.22 -3.92,-0.47 -7.71,-1.11 -11.62,-1.6 -3.9,0.49 -7.7,1.13 -11.62,1.6 0,0 0,-3.22 0,-3.22 -1993.88,-260.47 -2510,-2460.29 -2510,-2460.29 0,0 -116.2,-1905.75 -116.2,-1905.75 517.4,2296.67 952.86,2440.29 952.86,2440.29 -88.11,-696.44 627.5,-627.5 627.5,-627.5 436.16,73.67 783.36,109.27 1057.46,122.58 274.1,-13.31 621.3,-48.91 1057.46,-122.58 0,0 715.62,-68.94 627.5,627.5 0,0 435.46,-143.62 952.87,-2440.29zm-1292.14 2676.5c-33.83,-409.66 -280.85,-374.93 -280.85,-374.93 -439.16,129.23 -783.9,201.01 -1053.22,237.5 0,0 0,-2.68 0,-2.68 -267.44,-36.18 -609.75,-107.38 -1045.83,-235.55 0,0 -245.3,-34.45 -278.89,371.86 0,0 -98.5,407.07 232.41,581.01 0,0 418.34,441.58 418.34,441.58 0,0 285.87,90.6 278.88,-255.65 0,0 -29.1,-258.24 139.45,-302.13 0,0 255.64,0 255.64,0 0,0 0,7.64 0,7.64 0,0 257.46,0 257.46,0 169.73,44.27 140.42,304.63 140.42,304.63 -7.04,349.11 280.86,257.77 280.86,257.77 0,0 421.28,-445.23 421.28,-445.23 333.25,-175.38 234.05,-585.82 234.05,-585.82z"/>
    <path id="usta" class="fil7" d="M8031.69 8843.41c-211.22,183.4 -688.29,357.89 -1243.38,357.89 -555.1,0 -1032.16,-174.49 -1243.38,-357.89 0,0 -21.62,-59.46 10.1,-91.17 32.29,-32.29 82.86,-25.27 82.86,-25.27 210.99,183.53 595.12,334.89 1150.42,334.89 555.3,0 939.42,-151.36 1150.42,-334.89 0,0 51.61,-19.16 76.68,5.9 48.29,48.3 16.28,110.54 16.28,110.54z"/>
    <path id="Shape_x0020_11_x0020_copy" class="fil3" d="M4102.37 6282.93c-0.32,0.02 -28.53,-22.51 -81.8,-39.28 -26.62,-8.37 -59.72,-15.25 -97.43,-16.94 -9.42,-0.43 -19.12,-0.53 -29.04,-0.25 -9.91,0.28 -20.06,0.95 -30.38,2.05 -20.62,2.2 -41.92,6.16 -63.36,12.32 -85.81,24.67 -173.37,84.64 -224.79,208.41 -25.8,61.88 -42.83,139.72 -47.33,237.12 -1.13,24.36 -1.47,49.93 -0.98,76.78 0.5,26.85 1.83,54.98 4.06,84.44 4.45,58.93 12.49,123.19 24.46,193.22 -0.26,-0.07 -11.17,211.62 64.51,454.86 71.15,237.81 241.98,529.96 557.42,613.44 -36.28,-604.06 -37.41,-1219.45 -75.34,-1826.17 0,0 0,0 0,0z"/>
    <path id="Shape_x0020_3" class="fil7" d="M4138.34 6307.29c0,0 -549.51,-170.27 -530.17,394.66 0,0 81.82,819.16 117.34,894.66 0,0 215.81,476.94 571.97,498.08 348.09,20.66 0,0 0,0 0,0 4.32,153.73 4.32,153.73 0,0 -626,-80.26 -746.9,-801.66 0,0 -95.43,-655.35 -95.43,-655.35 0,0 -74.09,-867.3 644.65,-646.78 700.19,214.83 0,0 0,0 0,0 34.22,162.66 34.22,162.66z"/>
    <path id="Shape_x0020_4" class="fil7" d="M3956.96 7445.39c0,0 -30.75,23.25 -57.17,23.25 -26.41,0 -56.79,-23.25 -56.79,-23.25 0,0 -56.71,-571.47 -56.71,-571.47 0,0 78.25,-281.44 410.27,-132.7 0,0 7.84,163.4 7.84,163.4 0,0 -291.29,-103.31 -285.27,25.34 5.8,123.82 37.83,515.43 37.83,515.43z"/>
    <path id="Shape_x0020_11_x0020_copy_1" class="fil8" d="M9467.9 6284.27c0.32,0.02 28.66,-22.49 82.16,-39.26 26.75,-8.36 59.97,-15.23 97.86,-16.93 9.46,-0.42 19.19,-0.53 29.16,-0.25 9.96,0.29 20.15,0.95 30.52,2.05 20.71,2.2 42.1,6.16 63.63,12.32 86.19,24.64 174.13,84.57 225.77,208.25 25.92,61.86 43.03,139.65 47.55,236.98 1.13,24.33 1.47,49.89 0.98,76.72 -0.5,26.83 -1.84,54.94 -4.07,84.39 -4.48,58.88 -12.55,123.1 -24.57,193.08 0.26,-0.07 11.21,211.48 -64.8,454.55 -71.46,237.65 -243.04,529.6 -559.86,613.02 36.44,-603.65 37.57,-1218.61 75.67,-1824.92 0,0 0,0 0,0z"/>
    <path id="Shape_x0020_3_1" class="fil9" d="M9404.42 6308.61c0,0 551.91,-170.16 532.49,394.39 0,0 -82.17,818.61 -117.85,894.05 0,0 -216.76,476.63 -574.47,497.75 -349.62,20.64 0,0 0,0 0,0 -4.35,153.62 -4.35,153.62 0,0 628.74,-80.21 750.17,-801.11 0,0 95.85,-654.91 95.85,-654.91 0,0 74.42,-866.71 -647.47,-646.34 -703.26,214.68 0,0 0,0 0,0 -34.37,162.55 -34.37,162.55z"/>
    <path id="Shape_x0020_4_1" class="fil9" d="M9586.58 7445.94c0,0 30.9,23.22 57.42,23.22 26.54,0 57.05,-23.22 57.05,-23.22 0,0 56.97,-571.08 56.97,-571.08 0,0 -78.6,-281.24 -412.07,-132.62 0,0 -7.88,163.29 -7.88,163.29 0,0 292.57,-103.23 286.52,25.32 -5.83,123.75 -38.01,515.09 -38.01,515.09z"/>
    <path id="Shape_x0020_11" class="fil3" d="M9427.84 6283.92c0.32,0.02 28.56,-22.61 81.89,-39.46 26.65,-8.4 59.79,-15.32 97.54,-17.03 9.43,-0.42 19.14,-0.53 29.07,-0.24 9.93,0.28 20.09,0.95 30.41,2.05 20.65,2.21 41.97,6.2 63.43,12.38 85.92,24.79 173.56,85.03 225.04,209.37 25.84,62.18 42.88,140.38 47.39,238.23 1.13,24.46 1.47,50.15 0.98,77.13 -0.49,26.97 -1.83,55.24 -4.06,84.83 -4.45,59.2 -12.5,123.76 -24.48,194.11 0.25,-0.06 11.18,212.61 -64.59,456.98 -71.23,238.91 -242.26,532.4 -558.05,616.27 36.32,-606.87 37.45,-1225.09 75.43,-1834.62 0,0 0,0 0,0z"/>
    <path id="Shape_x0020_3_2" class="fil7" d="M9416.4 6308.61c0,0 551.91,-170.16 532.5,394.39 0,0 -82.17,818.61 -117.86,894.05 0,0 -216.74,476.62 -574.47,497.74 -349.62,20.65 0,0 0,0 0,0 -4.34,153.63 -4.34,153.63 0,0 628.73,-80.21 750.17,-801.11 0,0 95.85,-654.91 95.85,-654.91 0,0 74.41,-866.71 -647.47,-646.34 -703.27,214.67 0,0 0,0 0,0 -34.38,162.55 -34.38,162.55z"/>
    <path id="Shape_x0020_4_2" class="fil7" d="M9598.57 7445.94c0,0 114.47,0 114.47,0 0,0 56.96,-571.08 56.96,-571.08 0,0 -78.6,-281.24 -412.07,-132.62 0,0 -7.88,163.29 -7.88,163.29 0,0 292.57,-103.23 286.52,25.33 -5.82,123.74 -38,515.08 -38,515.08z"/>
    <path id="new_vector_shape_done" class="fil4" d="M6991.66 7400.14c13.56,0 27.12,0 40.68,0 84.08,114.2 118.3,289.69 162.68,441.58 13.75,47.07 0.41,129.4 -11.62,162.68 -44.06,121.9 -182.41,119.71 -296.32,174.3 -30.59,14.67 -53.34,39.98 -92.96,46.49 -25.83,-22.75 -57.01,-27.22 -69.72,-63.91 -31.39,-43.22 9.07,-70.21 40.67,-87.16 57.36,-30.76 234.44,-61.08 255.65,-116.2 26.23,-29.85 8.79,-119.57 0,-151.06 -22.51,-80.68 -33.32,-148.03 -63.91,-220.79 -20.32,-48.33 -56.01,-99.29 -34.87,-156.88 17.52,-7.52 55.38,-16.07 69.72,-29.05z"/>
    <path id="Rounded_x0020_Rectangle_x0020_8" class="fil5" d="M5382.23 6505.37c0,0 162.69,0 162.69,0 89.84,0 162.68,72.83 162.68,162.68 0,89.85 -72.84,162.68 -162.68,162.68 0,0 -162.69,0 -162.69,0 -89.84,0 -162.68,-72.83 -162.68,-162.68 0,-89.85 72.84,-162.68 162.68,-162.68z"/>
    <path id="Rounded_x0020_Rectangle_x0020_8_x0020_copy" class="fil5" d="M8031.69 6505.37c0,0 162.68,0 162.68,0 89.85,0 162.69,72.83 162.69,162.68 0,89.85 -72.84,162.68 -162.69,162.68 0,0 -162.68,0 -162.68,0 -89.85,0 -162.68,-72.83 -162.68,-162.68 0,-89.85 72.83,-162.68 162.68,-162.68z"/>
    <path id="Rounded_x0020_Rectangle_x0020_10" class="fil10" d="M4731.5 6087.02c0,0 1557.13,0 1557.13,0 89.84,0 162.68,72.84 162.68,162.7 0,0 0,999.34 0,999.34 0,89.86 -72.84,162.69 -162.68,162.69 0,0 -1557.13,0 -1557.13,0 -89.86,0 -162.69,-72.83 -162.69,-162.69 0,0 0,-999.34 0,-999.34 0,-89.86 72.83,-162.7 162.69,-162.7z"/>
    <path id="Rounded_x0020_Rectangle_x0020_10_x0020_copy" class="fil10" d="M7241.51 6087.02c0,0 1557.13,0 1557.13,0 89.84,0 162.68,72.84 162.68,162.7 0,0 0,999.34 0,999.34 0,89.86 -72.84,162.69 -162.68,162.69 0,0 -1557.13,0 -1557.13,0 -89.86,0 -162.69,-72.83 -162.69,-162.69 0,0 0,-999.34 0,-999.34 0,-89.86 72.83,-162.7 162.69,-162.7z"/>
    <path id="Shape_x0020_1_x0020_copy_x0020_5" class="fil4" d="M9100.77 6203.23c0,0 0,859.91 0,859.91 0,210.14 -204.99,538.05 -539.01,556.82 -49.06,-2.33 -1041.37,0.96 -1041.37,0.96 -446.06,0 -534.53,-534.54 -534.53,-534.54 0,0 0,-581.01 0,-581.01 0,0 -418.34,0 -418.34,0 0,0 0,581.01 0,581.01 0,0 -88.47,534.54 -534.54,534.54 0,0 -992.3,-3.29 -1041.36,-0.96 -334.02,-18.77 -539.01,-346.68 -539.01,-556.82 0,0 0,-859.91 0,-859.91 0,0 -371.85,0 -371.85,0 0,0 0,-232.4 0,-232.4 0,0 2161.39,0 2161.39,0 0,0 325.37,52.56 325.37,278.89 0,0 418.34,0 418.34,0 0,-226.33 325.37,-278.89 325.37,-278.89 0,0 2161.38,0 2161.38,0 0,0 0,232.4 0,232.4 0,0 -371.84,0 -371.84,0zm-2765.66 116.2c0,-82.83 -92.96,-92.96 -92.96,-92.96 0,0 -1557.13,0 -1557.13,0 0,0 0,813.43 0,813.43 0,253.45 348.62,348.61 348.62,348.61 0,0 952.87,0 952.87,0 327.84,0 348.6,-348.61 348.6,-348.61 0,0 0,-637.62 0,-720.47zm2533.25 -92.96c0,0 -1557.13,0 -1557.13,0 0,0 -92.97,10.13 -92.97,92.96 0,82.85 0,720.47 0,720.47 0,0 20.77,348.61 348.61,348.61 0,0 952.87,0 952.87,0 0,0 348.62,-95.16 348.62,-348.61 0,0 0,-813.43 0,-813.43zm-325.38 1394.45c6.35,-0.13 12.54,-0.61 18.78,-0.96 5.26,0.25 -0.02,0.57 -18.78,0.96zm-3551.36 -0.96c6.23,0.35 12.43,0.83 18.77,0.96 -18.75,-0.39 -24.03,-0.71 -18.77,-0.96z"/>
   </g>
  </g>
  <polygon class="fil11" points="-0,13546.68 13546.68,13546.68 13546.68,0 -0,0 "/>
 </g>
</svg>
