<?xml version="1.0" encoding="UTF-8"?>
<!DOCTYPE svg PUBLIC "-//W3C//DTD SVG 1.1//EN" "http://www.w3.org/Graphics/SVG/1.1/DTD/svg11.dtd">
<!-- Creator: CorelDRAW -->
<svg xmlns="http://www.w3.org/2000/svg" xml:space="preserve" width="135.467mm" height="135.467mm" version="1.1" style="shape-rendering:geometricPrecision; text-rendering:geometricPrecision; image-rendering:optimizeQuality; fill-rule:evenodd; clip-rule:evenodd"
viewBox="0 0 13546.68 13546.68"
 xmlns:xlink="http://www.w3.org/1999/xlink"
 xmlns:xodm="http://www.corel.com/coreldraw/odm/2003">
 <defs>
  <style type="text/css">
   <![CDATA[
    .str0 {stroke:#006B3E;stroke-width:20;stroke-miterlimit:22.9256}
    .str1 {stroke:#00A859;stroke-width:20;stroke-miterlimit:22.9256}
    .fil8 {fill:none;fill-rule:nonzero}
    .fil6 {fill:black}
    .fil5 {fill:black;fill-rule:nonzero}
    .fil2 {fill:#006B3E;fill-rule:nonzero}
    .fil4 {fill:#00A859;fill-rule:nonzero}
    .fil1 {fill:#111111;fill-rule:nonzero}
    .fil7 {fill:#751115;fill-rule:nonzero}
    .fil3 {fill:#9C7556;fill-rule:nonzero}
    .fil0 {fill:url(#id1);fill-rule:nonzero}
   ]]>
  </style>
   <clipPath id="id0" style="clip-rule:nonzero">
    <path d="M-0 13546.68l13546.68 0 0 -13546.68 -13546.68 0 0 13546.68z"/>
   </clipPath>
  <radialGradient id="id1" gradientUnits="objectBoundingBox" cx="50%" cy="50%" r="50%" fx="50%" fy="50%">
   <stop offset="0" style="stop-opacity:1; stop-color:#FFBDFF"/>
   <stop offset="1" style="stop-opacity:1; stop-color:red"/>
  </radialGradient>
 </defs>
 <g id="Camada_x0020_1">
  <metadata id="CorelCorpID_0Corel-Layer"/>
  <polygon class="fil0" points="-0,13546.68 13546.68,13546.68 13546.68,0 -0,0 "/>
  <g style="clip-path:url(#id0)">
   <g id="_2196543201232">
    <path id="_1" class="fil1" d="M7689.92 2763.79c-233.34,-221.97 -105.95,-800.47 -105.95,-800.47 0,0 10.49,-42.18 35.16,-111.24 141.8,-397.09 752.21,-1683.09 2531.08,-948.23 0,0 -447.33,117.72 -447.33,117.72 0,0 1436.16,78.54 1436.16,2401.44 0,2322.88 0,5485.61 0,5485.61 0,0 -1098.82,976.87 -2472.07,-635.67 -1373.24,-1612.54 -992.87,-4025.2 -992.87,-4025.2 0,0 249.16,-1262 15.82,-1483.96z"/>
    <path id="Rounded_x0020_Rectangle_x0020_7" class="fil1" d="M6759.95 2363.55c1631.84,0 2954.7,1322.86 2954.7,2954.7 0,0 0,612.13 0,612.13 0,1631.83 -1322.86,2954.7 -2954.7,2954.7 -1631.83,0 -2954.7,-1322.87 -2954.7,-2954.7 0,0 0,-612.13 0,-612.13 0,-1631.84 1322.87,-2954.7 2954.7,-2954.7z"/>
    <path id="body-bg-flat_x0020_copy" class="fil2 str0" d="M5983.01 10945.14l-178.45 0c-11.43,61.05 -17.62,123.96 -17.62,188.34 0,565.62 458.53,1024.14 1024.14,1024.14 565.61,0 1024.14,-458.52 1024.14,-1024.14 0,-64.38 -6.19,-127.29 -17.62,-188.34l-221.86 0 0 135.01c0,445.54 -361.02,806.73 -806.37,806.73 -445.33,0 -806.36,-361.19 -806.36,-806.73l0 -135.01z"/>
    <path id="body-bg-flat_x0020_copy_0" class="fil3" d="M6112.5 10886.28l0.37 0c0,0 0,-482.64 0,-482.64 0,0 661.17,283.89 1365.15,74.92l0 596.65c0,376.76 -305.68,682.17 -682.75,682.17 -377.08,0 -682.77,-305.41 -682.77,-682.17l0 -188.93z"/>
    <path id="body-bg-flat_x0020_copy_1" class="fil4 str1" d="M2910.97 13600.76c0,0 -182.52,-2482.77 2154.22,-2714.48l631.16 0c-17.67,79.6 -27.13,162.28 -27.13,247.2 0,630.63 511.23,1141.86 1141.86,1141.86 630.63,0 1141.86,-511.23 1141.86,-1141.86 0,-84.92 -9.46,-167.6 -27.13,-247.2l918.1 0c0,0 2096.43,82.33 2001.19,2738.03 0,0 -7934.14,-23.55 -7934.14,-23.55z"/>
    <path id="Rounded_x0020_Rectangle_x0020_13" class="fil5" d="M10837.99 13699.72c0,0 0,0 0,0 0,0 -7849.8,0 -7849.8,0 0,0 0,0 0,0 0,0 -152.24,0 -152.24,0 0,0 38,-649.19 38,-649.19 74.19,-1267.55 1072.89,-2234.88 2215.75,-2234.88 0,0 869.78,0 869.78,0 0,0 0,129.49 0,129.49 0,0 -800.4,0 -800.4,0 -1101.48,0 -2064.02,931.11 -2135.52,2151.19 0,0 -26.41,450.35 -26.41,450.35 0,0 7820.1,0 7820.1,0 0,0 -14.63,-450.35 -14.63,-450.35 -71.5,-1220.08 -1034.04,-2151.19 -2135.52,-2151.19 0,0 -1071.35,0 -1071.35,0 0,0 0,-129.49 0,-129.49 0,0 1133.75,0 1133.75,0 1142.85,0 2141.55,967.33 2215.75,2234.88 0,0 38,649.19 38,649.19 0,0 -145.26,0 -145.26,0z"/>
    <path id="Ellipse_x0020_4" class="fil5" d="M6811.09 12275.34c-630.63,0 -1141.86,-511.23 -1141.86,-1141.86 0,-110.34 15.97,-216.9 45.17,-317.83 0,0 1.92,0 1.92,0 0,0 121.17,0 121.17,0l145.53 0 0 -513.17c42.65,16.87 85.85,32.38 129.49,46.7 0,0 0,726.03 0,726.03 0,376.76 305.69,682.17 682.77,682.17 377.07,0 682.75,-305.41 682.75,-682.17 0,0 0,-711.05 0,-711.05 39.62,-12.06 78.87,-25.16 117.72,-39.31l0 490.8 188.94 0c0,0 121.17,0 121.17,0 0,0 1.92,0 1.92,0 29.2,100.93 45.17,207.49 45.17,317.83 0,630.63 -511.23,1141.86 -1141.86,1141.86zm-828.07 -1330.2l-178.45 0c-11.43,61.05 -17.62,123.96 -17.62,188.34 0,565.62 458.53,1024.14 1024.14,1024.14 565.61,0 1024.14,-458.52 1024.14,-1024.14 0,-64.38 -6.19,-127.29 -17.62,-188.34l-221.86 0 0 135.01c0,445.54 -361.02,806.73 -806.37,806.73 -445.33,0 -806.36,-361.19 -806.36,-806.73l0 -135.01z"/>
    <path id="_1_x0020_copy_x0020_4" class="fil3" d="M6819.01 3211.12c1490.67,0 2624.64,1307.31 2563.96,2803.22 0,0 -82.34,2030.07 -82.34,2030.07 -233.27,1378.24 -1183.47,2373.3 -2471.21,2512.25 -1256.17,-132.01 -2225,-1134.36 -2492.04,-2512.25 0,0 -82.34,-2030.07 -82.34,-2030.07 -60.67,-1495.91 1073.3,-2803.22 2563.97,-2803.22z"/>
    <path id="_1_x0020_line" class="fil6" d="M9547.65 5928.24c0,0 -87.64,2121.15 -87.64,2121.15 -248.27,1440.1 -1259.57,2479.8 -2630.11,2624.98 -1336.92,-137.92 -2368.05,-1185.25 -2652.26,-2624.98 0,0 -87.64,-2121.15 -87.64,-2121.15 -64.57,-1563.04 1142.31,-2929.01 2728.82,-2929.01 1586.51,0 2793.4,1365.97 2728.83,2929.01zm-2728.64 -2764.22c-1490.67,0 -2624.64,1307.31 -2563.97,2803.24 0,0 82.34,2030.05 82.34,2030.05 267.04,1377.91 1235.87,2380.25 2492.04,2512.27 1287.74,-138.96 2237.94,-1134.01 2471.21,-2512.27 0,0 82.34,-2030.05 82.34,-2030.05 60.68,-1495.93 -1073.29,-2803.24 -2563.96,-2803.24z"/>
    <path id="usta" class="fil7" d="M8090.16 8781.52c-213.97,185.78 -697.25,362.55 -1259.58,362.55 -562.31,0 -1045.6,-176.77 -1259.57,-362.55 0,0 -21.89,-60.24 10.23,-92.36 32.71,-32.71 83.94,-25.6 83.94,-25.6 213.75,185.92 602.87,339.24 1165.4,339.24 562.55,0 951.67,-153.32 1165.4,-339.24 0,0 52.29,-19.42 77.69,5.97 48.92,48.93 16.49,111.99 16.49,111.99z"/>
    <path id="_-" class="fil5" d="M6442.11 9426.59c0,0 753.39,0 753.39,0 0,0 0,117.71 0,117.71 0,0 -753.39,0 -753.39,0 0,0 0,-117.71 0,-117.71z"/>
    <path id="Shape_x0020_11_x0020_copy" class="fil3" d="M4109.68 6187.69c-0.33,0.02 -28.91,-22.8 -82.87,-39.79 -26.98,-8.48 -60.51,-15.45 -98.71,-17.16 -9.54,-0.44 -19.36,-0.54 -29.41,-0.25 -10.05,0.28 -20.33,0.95 -30.77,2.07 -20.9,2.23 -42.47,6.24 -64.18,12.48 -86.95,24.99 -175.64,85.74 -227.72,211.12 -26.16,62.69 -43.4,141.55 -47.96,240.21 -1.14,24.68 -1.49,50.58 -0.99,77.78 0.5,27.2 1.86,55.7 4.11,85.54 4.5,59.7 12.65,124.8 24.78,195.74 -0.27,-0.07 -11.31,214.37 65.34,460.78 72.08,240.91 245.15,536.86 564.69,621.43 -36.75,-611.93 -37.89,-1235.33 -76.31,-1849.95 0,0 0,0 0,0z"/>
    <path id="Shape_x0020_3" class="fil5" d="M4146.11 6212.36c0,0 -556.66,-172.48 -537.08,399.8 0,0 82.88,829.84 118.87,906.31 0,0 218.62,483.16 579.42,504.57 352.62,20.93 0,0 0,0 0,0 4.38,155.74 4.38,155.74 0,0 -634.15,-81.31 -756.63,-812.1 0,0 -96.67,-663.89 -96.67,-663.89 0,0 -75.07,-878.6 653.04,-655.21 709.32,217.63 0,0 0,0 0,0 34.67,164.78 34.67,164.78z"/>
    <path id="Shape_x0020_4" class="fil5" d="M3962.37 7365.29c0,0 -31.15,23.55 -57.91,23.55 -26.77,0 -57.54,-23.55 -57.54,-23.55 0,0 -57.45,-578.91 -57.45,-578.91 0,0 79.26,-285.11 415.61,-134.44 0,0 7.95,165.53 7.95,165.53 0,0 -295.09,-104.65 -288.99,25.67 5.87,125.44 38.33,522.15 38.33,522.15z"/>
    <path id="Shape_x0020_11_x0020_copy_1" class="fil3" d="M9545.07 6189.05c0.33,0.02 29.03,-22.79 83.23,-39.77 27.09,-8.47 60.77,-15.44 99.14,-17.16 9.58,-0.43 19.45,-0.53 29.54,-0.25 10.1,0.29 20.42,0.96 30.91,2.08 20.98,2.23 42.66,6.23 64.46,12.48 87.32,24.96 176.4,85.67 228.71,210.96 26.27,62.66 43.59,141.46 48.17,240.07 1.15,24.64 1.5,50.53 1,77.72 -0.51,27.17 -1.87,55.65 -4.13,85.48 -4.52,59.65 -12.7,124.71 -24.89,195.59 0.27,-0.06 11.37,214.24 -65.63,460.48 -72.39,240.75 -246.22,536.5 -567.15,621 36.9,-611.51 38.05,-1234.48 76.64,-1848.68 0,0 0,0 0,0z"/>
    <path id="Shape_x0020_3_1" class="fil5" d="M9480.76 6213.7c0,0 559.11,-172.37 539.44,399.52 0,0 -83.25,829.28 -119.39,905.7 0,0 -219.58,482.84 -581.96,504.23 -354.16,20.91 0,0 0,0 0,0 -4.4,155.63 -4.4,155.63 0,0 636.92,-81.26 759.94,-811.55 0,0 97.1,-663.44 97.1,-663.44 0,0 75.4,-877.99 -655.9,-654.76 -712.42,217.48 0,0 0,0 0,0 -34.83,164.67 -34.83,164.67z"/>
    <path id="Shape_x0020_4_1" class="fil5" d="M9665.31 7365.84c0,0 31.28,23.53 58.17,23.53 26.88,0 57.79,-23.53 57.79,-23.53 0,0 57.69,-578.51 57.69,-578.51 0,0 -79.61,-284.91 -417.43,-134.36 0,0 -7.98,165.43 -7.98,165.43 0,0 296.38,-104.58 290.25,25.64 -5.89,125.36 -38.49,521.8 -38.49,521.8z"/>
    <path id="new_vector_shape_done" class="fil6" d="M7036.59 7319.45c13.74,0 27.47,0 41.2,0 85.19,115.69 119.84,293.46 164.8,447.33 13.94,47.68 0.42,131.08 -11.76,164.8 -44.64,123.48 -184.79,121.26 -300.18,176.57 -30.99,14.86 -54.05,40.5 -94.17,47.09 -26.17,-23.04 -57.76,-27.57 -70.64,-64.74 -31.79,-43.78 9.19,-71.12 41.21,-88.3 58.1,-31.15 237.49,-61.87 258.97,-117.7 26.58,-30.24 8.91,-121.13 0,-153.04 -22.8,-81.72 -33.75,-149.95 -64.75,-223.66 -20.58,-48.96 -56.72,-100.58 -35.3,-158.92 17.73,-7.63 56.09,-16.28 70.62,-29.43z"/>
    <path id="Rounded_x0020_Rectangle_x0020_8" class="fil5" d="M5406.2 6413.02c0,0 164.8,0 164.8,0 91.03,0 164.81,73.78 164.81,164.8 0,91.03 -73.78,164.8 -164.81,164.8 0,0 -164.8,0 -164.8,0 -91.02,0 -164.81,-73.77 -164.81,-164.8 0,-91.02 73.79,-164.8 164.81,-164.8z"/>
    <path id="Rounded_x0020_Rectangle_x0020_8_x0020_copy" class="fil5" d="M8090.16 6413.02c0,0 164.81,0 164.81,0 91.02,0 164.79,73.78 164.79,164.8 0,91.03 -73.77,164.8 -164.79,164.8 0,0 -164.81,0 -164.81,0 -91.02,0 -164.8,-73.77 -164.8,-164.8 0,-91.02 73.78,-164.8 164.8,-164.8z"/>
    <path id="Shape_x0020_26" class="fil1" d="M4299.66 4364.74c0,0 859.33,-1094.77 859.33,-1094.77 0,0 776.94,-364.92 776.94,-364.92 0,0 1047.68,-164.81 1047.68,-164.81 0,0 1200.72,70.63 1200.72,70.63 0,0 1612.72,1671.59 1612.72,1671.59 0,0 -435.55,1577.41 -435.55,1577.41 0,0 -99.83,-695.69 -635.68,-1247.8 -499.82,-515.01 -824.02,-641.56 -824.02,-641.56 0,0 -189.02,762.77 -1447.92,735.73 -2258.05,-48.51 -2157.76,1555.08 -2236.62,1695.13 -8.67,15.39 -11.78,-670.99 -11.78,-670.99 0,0 94.18,-1565.64 94.18,-1565.64z"/>
    <g>
     <path id="R_x0020_copy" class="fil5" d="M7574.05 6216.89c0,0 592.47,-541.45 1174.35,-222.36 0,0 132.93,-8.96 132.93,-8.96 0,0 -299.09,-561.75 -1409.65,96.8 0,0 58.43,104.1 58.43,104.1l43.94 30.42zm-17.32 -36.4c0,0 602.33,-552.65 1171.03,-153.38 0,0 233.4,-59.49 233.4,-59.49 0,0 -436.7,-573.72 -1548.69,100.1 0,0 150.24,139.39 150.24,139.39l-5.98 -26.62zm0 0l0 0 0 0z"/>
    </g>
    <g>
     <path id="R_x0020_copy_x0020_3" class="fil5" d="M6128 6081.57c0,0 -694.45,-394.84 -1190.54,40.18 0,0 -131.22,20.23 -131.22,20.23 0,0 168.08,-608.23 1391.9,-212.74 0,0 -34.07,113.38 -34.07,113.38l-36.07 38.95zm8.88 -38.95c0,0 -706.47,-403.54 -1172.23,106.16 0,0 -239.96,-6.8 -239.96,-6.8 0,0 299.27,-649.71 1527.82,-239.77 0,0 -115.63,167.44 -115.63,167.44l0 -27.03zm0 0l0 0 0 0z"/>
    </g>
   </g>
  </g>
  <polygon class="fil8" points="-0,13546.68 13546.68,13546.68 13546.68,0 -0,0 "/>
 </g>
</svg>
