<?xml version="1.0" encoding="UTF-8"?>
<!DOCTYPE svg PUBLIC "-//W3C//DTD SVG 1.1//EN" "http://www.w3.org/Graphics/SVG/1.1/DTD/svg11.dtd">
<!-- Creator: CorelDRAW -->
<svg xmlns="http://www.w3.org/2000/svg" xml:space="preserve" width="200mm" height="200mm" version="1.1" style="shape-rendering:geometricPrecision; text-rendering:geometricPrecision; image-rendering:optimizeQuality; fill-rule:evenodd; clip-rule:evenodd"
viewBox="0 0 20000 20000"
 xmlns:xlink="http://www.w3.org/1999/xlink"
 xmlns:xodm="http://www.corel.com/coreldraw/odm/2003">
 <defs>
  <style type="text/css">
   <![CDATA[
    .str0 {stroke:#2B3164;stroke-width:18.41;stroke-linecap:round;stroke-linejoin:round;stroke-miterlimit:22.9256}
    .fil12 {fill:none}
    .fil10 {fill:none;fill-rule:nonzero}
    .fil13 {fill:#2B3164}
    .fil7 {fill:#62BCE9}
    .fil9 {fill:#6373B6}
    .fil0 {fill:#665DFE}
    .fil4 {fill:#707070}
    .fil1 {fill:#78CDD8}
    .fil3 {fill:#AFAFB0}
    .fil5 {fill:#CECECE}
    .fil8 {fill:#F06275}
    .fil6 {fill:#F27035}
    .fil2 {fill:#F6AE31}
    .fil11 {fill:#2B3164;fill-rule:nonzero}
   ]]>
  </style>
 </defs>
 <g id="Camada_x0020_1">
  <metadata id="CorelCorpID_0Corel-Layer"/>
  <path class="fil0" d="M10052.73 706.19c5182.35,0 9383.47,4201.12 9383.47,9383.47 0,696.08 -75.97,1374.39 -219.9,2027.18 -298.58,1354.34 -558.38,1849.34 -624.68,3359.37 -56.72,1291.72 32.63,2472.24 390.84,3174.39 -1112.72,-360.45 -2225.51,-411.62 -3356.69,-306.96 -1314.81,121.64 -1689.23,377.24 -2855.96,729.79 -860.03,259.89 -1772.22,399.69 -2717.08,399.69 -5182.34,0 -9383.46,-4201.12 -9383.46,-9383.46 0,-5182.35 4201.12,-9383.47 9383.46,-9383.47z"/>
  <g id="_2178341049040">
   <path class="fil1" d="M17384.41 18328.96l0 -2919.4 -4654.06 0 0 3675.69c13.16,-3.92 26.32,-7.85 39.46,-11.82 1166.73,-352.55 1541.15,-608.15 2855.96,-729.79 590.35,-54.62 1175.7,-66.76 1758.64,-14.68zm-3672.64 -1534.04c300.89,0 544.81,243.92 544.81,544.77 0,300.88 -243.92,544.77 -544.81,544.77 -300.85,0 -544.75,-243.89 -544.75,-544.77 0,-300.85 243.9,-544.77 544.75,-544.77zm1345.62 0c300.86,0 544.76,243.92 544.76,544.77 0,300.88 -243.9,544.77 -544.76,544.77 -300.87,0 -544.78,-243.89 -544.78,-544.77 0,-300.85 243.91,-544.77 544.78,-544.77zm1345.56 0c300.89,0 544.78,243.92 544.78,544.77 0,300.88 -243.89,544.77 -544.78,544.77 -300.88,0 -544.74,-243.89 -544.74,-544.77 0,-300.85 243.86,-544.77 544.74,-544.77z"/>
   <path class="fil2" d="M13711.77 17045.49c2.57,0 5.09,0.01 7.63,0.09 2.53,0.04 5.02,0.14 7.54,0.27 2.49,0.14 5,0.3 7.49,0.46 2.5,0.21 4.98,0.41 7.45,0.68l0.02 0c2.45,0.25 4.89,0.52 7.36,0.84 2.47,0.33 4.91,0.67 7.38,1.03 2.39,0.4 4.8,0.78 7.25,1.21 2.38,0.44 4.8,0.89 7.19,1.37l0.01 0c2.39,0.5 4.77,1.02 7.16,1.57 2.35,0.55 4.72,1.14 7.06,1.73 2.36,0.6 4.7,1.25 7,1.89 2.34,0.66 4.68,1.35 6.99,2.07 2.28,0.71 4.57,1.48 6.87,2.23 2.29,0.77 4.53,1.58 6.77,2.41 2.27,0.82 4.53,1.67 6.72,2.56 2.27,0.83 4.45,1.76 6.63,2.7 2.24,0.94 4.41,1.87 6.58,2.89 2.18,0.96 4.33,1.95 6.49,3 2.14,1.03 4.25,2.1 6.4,3.17 2.09,1.09 4.2,2.2 6.29,3.33 2.08,1.11 4.15,2.28 6.19,3.47 2.03,1.18 4.11,2.39 6.13,3.6 1.99,1.23 4.01,2.5 6,3.77 1.98,1.28 3.96,2.57 5.91,3.89 1.96,1.33 3.95,2.67 5.84,4.07l0.02 0c1.92,1.35 3.81,2.71 5.68,4.11 1.9,1.43 3.77,2.88 5.62,4.34 1.87,1.43 3.69,2.93 5.52,4.43 1.81,1.49 3.62,3.03 5.38,4.53 1.8,1.55 3.55,3.14 5.3,4.69 1.73,1.6 3.45,3.21 5.18,4.83 1.68,1.63 3.35,3.28 5.02,4.92 1.68,1.66 3.33,3.35 4.92,5.05 1.64,1.71 3.27,3.44 4.82,5.16l0.01 0c1.59,1.75 3.15,3.53 4.68,5.29 1.52,1.8 3.05,3.59 4.56,5.39 1.48,1.83 2.97,3.66 4.44,5.5 1.44,1.86 2.89,3.74 4.3,5.62 1.41,1.89 2.81,3.81 4.17,5.71 1.37,1.92 2.71,3.88 4.04,5.84 1.33,1.95 2.63,3.91 3.89,5.89l0.02 0c1.27,2.02 2.51,4.03 3.71,6.02 1.24,2.05 2.46,4.09 3.64,6.14 1.19,2.07 2.32,4.11 3.47,6.23 1.12,2.05 2.25,4.16 3.33,6.27 1.06,2.11 2.14,4.24 3.17,6.39 1.03,2.13 2.04,4.3 3.01,6.49 1,2.17 1.93,4.35 2.87,6.54 0.94,2.21 1.83,4.41 2.71,6.66 0.9,2.21 1.73,4.46 2.59,6.7 0.81,2.26 1.6,4.52 2.36,6.8 0.79,2.28 1.5,4.57 2.23,6.89 0.72,2.31 1.45,4.63 2.09,6.93 0.66,2.32 1.3,4.67 1.9,7.01 0.56,2.36 1.16,4.72 1.71,7.1 0.57,2.38 1.07,4.74 1.57,7.16 0.46,2.38 0.94,4.79 1.38,7.21 0.42,2.4 0.82,4.83 1.19,7.25l0 0.01c0.37,2.42 0.74,4.89 1.04,7.33 0.3,2.47 0.58,4.91 0.85,7.39 0.25,2.48 0.45,4.98 0.66,7.46 0.17,2.49 0.34,5 0.45,7.49l0 0.02c0.15,2.49 0.25,4.98 0.31,7.51l0 0.01c0.06,2.54 0.08,5.06 0.08,7.59 0,2.54 -0.02,5.1 -0.08,7.6l0 0.03c-0.06,2.5 -0.16,5.01 -0.31,7.51l0 0.02c-0.11,2.49 -0.28,5.03 -0.45,7.5 -0.21,2.47 -0.41,4.96 -0.66,7.44 -0.27,2.46 -0.55,4.92 -0.85,7.4 -0.3,2.44 -0.67,4.89 -1.04,7.31 -0.36,2.44 -0.77,4.86 -1.19,7.27 -0.44,2.42 -0.92,4.84 -1.38,7.24 -0.5,2.37 -1,4.77 -1.57,7.13 -0.55,2.39 -1.15,4.74 -1.71,7.08 -0.6,2.37 -1.24,4.71 -1.9,7.01 -0.68,2.35 -1.36,4.69 -2.09,6.97 -0.73,2.29 -1.44,4.58 -2.23,6.87 -0.76,2.27 -1.55,4.56 -2.36,6.79 -0.86,2.25 -1.69,4.49 -2.59,6.73 -0.88,2.24 -1.77,4.44 -2.71,6.63 -0.94,2.19 -1.87,4.39 -2.87,6.55 -0.97,2.2 -1.98,4.32 -3.01,6.47 -1.03,2.18 -2.11,4.28 -3.17,6.38 -1.07,2.17 -2.21,4.26 -3.33,6.34 -1.15,2.05 -2.28,4.16 -3.47,6.18 -1.18,2.08 -2.4,4.1 -3.64,6.12 -1.2,2.03 -2.44,4.04 -3.71,6.03l-0.02 0c-1.26,1.99 -2.56,3.95 -3.89,5.91 -2.65,3.93 -5.37,7.75 -8.21,11.54 -1.41,1.9 -2.86,3.76 -4.3,5.61 -1.47,1.87 -2.96,3.69 -4.44,5.5 -1.51,1.84 -3.04,3.62 -4.56,5.38l0 0.03c-1.53,1.78 -3.09,3.52 -4.68,5.27l-0.01 0c-1.55,1.74 -3.18,3.44 -4.82,5.17 -3.23,3.4 -6.58,6.75 -9.94,9.98 -1.73,1.62 -3.45,3.24 -5.18,4.79 -1.75,1.62 -3.5,3.18 -5.3,4.71 -1.79,1.51 -3.57,3.06 -5.38,4.57 -1.83,1.5 -3.65,2.94 -5.52,4.41 -1.85,1.45 -3.72,2.88 -5.62,4.3 -1.87,1.41 -3.76,2.8 -5.68,4.19l-0.02 0c-1.89,1.35 -3.88,2.71 -5.84,4.04 -1.95,1.3 -3.93,2.62 -5.91,3.9 -1.99,1.26 -4.01,2.5 -6,3.75 -2.02,1.23 -4.1,2.41 -6.13,3.59 -2.04,1.18 -4.11,2.33 -6.19,3.49 -2.09,1.13 -4.2,2.23 -6.29,3.32 -2.15,1.08 -4.26,2.15 -6.4,3.17 -2.16,1.03 -4.31,2.03 -6.49,3.03 -2.17,0.99 -4.34,1.94 -6.58,2.86 -2.18,0.94 -4.36,1.84 -6.63,2.71 -2.19,0.91 -4.45,1.72 -6.72,2.55 -2.24,0.86 -4.48,1.62 -6.77,2.43 -2.3,0.74 -4.59,1.5 -6.87,2.21 -2.31,0.72 -4.65,1.41 -6.99,2.05 -2.3,0.67 -4.64,1.3 -7,1.92 -2.34,0.63 -4.71,1.19 -7.06,1.72 -2.39,0.56 -4.77,1.06 -7.16,1.56l-0.01 0c-2.39,0.49 -4.81,0.93 -7.19,1.38 -2.45,0.44 -4.86,0.84 -7.25,1.21 -2.47,0.36 -4.91,0.69 -7.38,1.02 -2.47,0.3 -4.91,0.6 -7.36,0.85l-0.02 0c-2.47,0.24 -4.95,0.47 -7.45,0.64 -2.49,0.2 -5,0.37 -7.49,0.5 -2.52,0.12 -5.01,0.2 -7.54,0.27 -2.54,0.08 -5.06,0.12 -7.63,0.12 -2.52,0 -5.05,-0.04 -7.56,-0.12 -2.52,-0.07 -5.05,-0.15 -7.57,-0.27 -2.5,-0.13 -4.99,-0.3 -7.49,-0.5 -2.47,-0.17 -4.99,-0.4 -7.44,-0.64 -2.47,-0.25 -4.95,-0.55 -7.41,-0.85 -2.43,-0.33 -4.87,-0.62 -7.32,-1.02 -2.42,-0.37 -4.88,-0.77 -7.26,-1.21 -2.43,-0.45 -4.83,-0.89 -7.23,-1.38 -2.4,-0.5 -4.77,-1 -7.14,-1.56 -2.37,-0.53 -4.72,-1.09 -7.09,-1.72 -2.35,-0.62 -4.68,-1.25 -7.02,-1.92 -2.32,-0.64 -4.64,-1.33 -6.95,-2.05 -2.31,-0.71 -4.59,-1.47 -6.86,-2.21 -2.28,-0.81 -4.56,-1.57 -6.78,-2.43l-0.02 0c-2.27,-0.83 -4.48,-1.64 -6.71,-2.55l-0.01 0c-2.24,-0.87 -4.46,-1.77 -6.63,-2.71 -2.2,-0.92 -4.4,-1.87 -6.58,-2.86 -2.16,-1 -4.33,-2 -6.45,-3.03 -2.19,-1.02 -4.28,-2.09 -6.4,-3.17 -2.13,-1.09 -4.21,-2.19 -6.32,-3.32 -2.05,-1.16 -4.15,-2.31 -6.21,-3.49 -2.02,-1.18 -4.08,-2.36 -6.09,-3.59 -2.03,-1.23 -4.03,-2.49 -6.03,-3.75 -1.99,-1.28 -3.98,-2.6 -5.92,-3.9 -1.94,-1.33 -3.88,-2.69 -5.8,-4.04l-0.01 0c-1.91,-1.39 -3.82,-2.78 -5.73,-4.19 -1.87,-1.42 -3.76,-2.85 -5.6,-4.3 -1.88,-1.47 -3.7,-2.91 -5.5,-4.41l-0.01 0c-1.82,-1.51 -3.61,-3.06 -5.38,-4.57l-0.02 0c-3.56,-3.07 -7.04,-6.26 -10.45,-9.5 -3.39,-3.23 -6.75,-6.59 -9.97,-9.98l-0.02 0c-1.6,-1.73 -3.22,-3.43 -4.78,-5.17l-0.02 0c-3.16,-3.47 -6.25,-7.02 -9.24,-10.68 -1.49,-1.81 -2.96,-3.63 -4.41,-5.5 -1.48,-1.85 -2.92,-3.71 -4.33,-5.61 -2.83,-3.79 -5.56,-7.62 -8.17,-11.54 -1.34,-1.96 -2.63,-3.92 -3.93,-5.91 -1.24,-1.99 -2.52,-4 -3.76,-6.03 -1.21,-2.02 -2.42,-4.04 -3.6,-6.12l-0.02 0c-1.17,-2.02 -2.32,-4.13 -3.42,-6.18 -1.16,-2.08 -2.27,-4.17 -3.34,-6.34 -1.09,-2.09 -2.18,-4.21 -3.2,-6.38 -1.02,-2.15 -2.02,-4.27 -3.03,-6.47 -0.96,-2.16 -1.92,-4.36 -2.85,-6.55 -0.95,-2.19 -1.83,-4.39 -2.72,-6.63 -0.86,-2.24 -1.72,-4.48 -2.55,-6.73 -0.81,-2.23 -1.63,-4.52 -2.39,-6.79 -0.8,-2.29 -1.51,-4.58 -2.24,-6.87 -0.69,-2.29 -1.41,-4.62 -2.07,-6.97 -0.66,-2.3 -1.3,-4.64 -1.89,-7.01 -0.59,-2.34 -1.18,-4.69 -1.75,-7.08 -0.53,-2.36 -1.01,-4.76 -1.53,-7.13 -0.48,-2.4 -0.97,-4.82 -1.38,-7.24 -0.44,-2.41 -0.85,-4.83 -1.2,-7.27 -0.39,-2.42 -0.73,-4.87 -1.03,-7.31 -0.3,-2.48 -0.62,-4.93 -0.88,-7.4 -0.2,-2.48 -0.47,-4.97 -0.62,-7.44 -0.21,-2.47 -0.38,-5.01 -0.48,-7.5l0 -0.02c-0.16,-2.5 -0.24,-5.01 -0.28,-7.51l0 -0.03c-0.07,-2.5 -0.14,-5.05 -0.14,-7.6 0,-2.52 0.07,-5.05 0.14,-7.59l0 -0.01c0.04,-2.53 0.12,-5.02 0.28,-7.51l0 -0.02c0.1,-2.49 0.27,-5 0.48,-7.49 0.15,-2.48 0.42,-4.98 0.62,-7.46 0.26,-2.48 0.58,-4.92 0.88,-7.39 0.3,-2.44 0.64,-4.91 1.03,-7.33l0 -0.01c0.35,-2.42 0.76,-4.84 1.2,-7.25 0.41,-2.42 0.9,-4.83 1.38,-7.21 0.52,-2.42 1,-4.78 1.53,-7.16 0.57,-2.38 1.16,-4.74 1.75,-7.1 0.59,-2.34 1.23,-4.69 1.89,-7.01 0.66,-2.3 1.36,-4.65 2.07,-6.93 0.73,-2.32 1.46,-4.61 2.24,-6.89 0.77,-2.27 1.58,-4.54 2.39,-6.8 0.83,-2.24 1.69,-4.49 2.55,-6.7 0.89,-2.25 1.77,-4.45 2.72,-6.66 0.93,-2.18 1.89,-4.37 2.85,-6.54 1.01,-2.19 2.01,-4.36 3.03,-6.49 1.02,-2.15 2.11,-4.28 3.2,-6.39 1.05,-2.11 2.18,-4.22 3.34,-6.27 1.11,-2.12 2.25,-4.16 3.42,-6.23l0.02 0c1.18,-2.05 2.39,-4.09 3.6,-6.14 1.24,-1.99 2.52,-4 3.76,-6.02 1.29,-1.98 2.59,-3.94 3.93,-5.89 1.29,-1.96 2.64,-3.92 4.02,-5.84 1.35,-1.9 2.75,-3.82 4.15,-5.71 1.41,-1.88 2.85,-3.76 4.33,-5.62 1.45,-1.84 2.92,-3.67 4.41,-5.5 1.5,-1.8 3,-3.59 4.56,-5.39 1.54,-1.76 3.12,-3.54 4.68,-5.29l0.02 0c1.56,-1.72 3.18,-3.45 4.78,-5.16l0.02 0c1.64,-1.7 3.26,-3.39 4.95,-5.05 1.64,-1.64 3.34,-3.29 5.02,-4.92 1.72,-1.62 3.42,-3.23 5.19,-4.83l0.01 0c1.71,-1.55 3.5,-3.14 5.25,-4.69l0.02 0c1.79,-1.5 3.56,-3.04 5.38,-4.53l0.01 0c1.82,-1.5 3.65,-3 5.5,-4.43 1.84,-1.46 3.73,-2.91 5.6,-4.34 1.91,-1.4 3.82,-2.76 5.73,-4.11l0.01 0c1.92,-1.4 3.89,-2.74 5.8,-4.07 1.94,-1.32 3.93,-2.61 5.92,-3.89 2,-1.27 4,-2.54 6.03,-3.77 2.01,-1.21 4.07,-2.42 6.09,-3.6 2.06,-1.19 4.16,-2.36 6.21,-3.47 2.11,-1.13 4.19,-2.24 6.32,-3.33 2.12,-1.07 4.21,-2.14 6.4,-3.17 2.12,-1.05 4.29,-2.04 6.45,-3 2.18,-1.01 4.38,-1.93 6.58,-2.89 2.17,-0.93 4.39,-1.87 6.63,-2.7l0.01 0c2.23,-0.89 4.44,-1.74 6.71,-2.56l0.02 0c2.22,-0.83 4.5,-1.64 6.78,-2.41 2.27,-0.75 4.55,-1.52 6.86,-2.23 2.31,-0.72 4.63,-1.41 6.95,-2.07 2.34,-0.64 4.67,-1.29 7.02,-1.89 2.37,-0.59 4.72,-1.18 7.09,-1.73 2.37,-0.55 4.74,-1.07 7.14,-1.57 2.4,-0.48 4.8,-0.93 7.23,-1.37 2.38,-0.43 4.84,-0.81 7.26,-1.21 2.45,-0.36 4.89,-0.73 7.32,-1.03 2.46,-0.32 4.94,-0.59 7.41,-0.84 2.45,-0.27 4.97,-0.47 7.44,-0.68 2.48,-0.16 4.99,-0.32 7.49,-0.46 2.52,-0.13 5.05,-0.23 7.57,-0.27 2.51,-0.08 5.04,-0.09 7.56,-0.09z"/>
   <path class="fil2" d="M15057.39 17045.49c162.48,0 294.21,131.71 294.21,294.2 0,162.51 -131.73,294.25 -294.21,294.25 -162.53,0 -294.24,-131.74 -294.24,-294.25 0,-162.49 131.71,-294.2 294.24,-294.2z"/>
   <path class="fil2" d="M16402.95 17045.49c162.51,0 294.22,131.71 294.22,294.2 0,162.51 -131.71,294.25 -294.22,294.25 -162.48,0 -294.23,-131.74 -294.23,-294.25 0,-162.49 131.75,-294.2 294.23,-294.2z"/>
   <path class="fil3" d="M12509.35 17018.53l0 -954.62 -734.07 0c-56.36,276.38 -193.97,524.08 -386.6,716.75 -93.17,93.11 -199.19,173.4 -315.12,237.87l1435.79 0z"/>
   <path class="fil4" d="M12509.35 19148l0 -1841.91 -6721.52 0c-105.55,0 -201.56,43.24 -271.22,112.91 -69.67,69.65 -112.9,165.68 -112.9,271.23l0 551.8c1370.52,783.25 2957.42,1231.09 4649.02,1231.09 850.05,0 1673.64,-113.17 2456.62,-325.12z"/>
   <path class="fil5" d="M15812.27 8689.6l0 3088.46 379.35 0c257.43,0 491.5,-105.37 661.26,-275.12 170.16,-170.11 275.77,-405.23 275.77,-664.12l0 -1209.99c0,-258.87 -105.61,-493.97 -275.77,-664.1 -169.76,-169.75 -403.83,-275.13 -661.26,-275.13l-379.35 0z"/>
   <path class="fil2" d="M11582.52 14480.69l-2817.25 0 0 1302.16c0,327.6 134.1,625.5 350.14,841.54 216.06,216.02 513.94,350.1 841.52,350.1l433.95 0c327.59,0 625.5,-134.08 841.53,-350.1 216.04,-216.04 350.11,-513.94 350.11,-841.54l0 -1302.16z"/>
   <path class="fil6" d="M9650.36 14480.69l-885.1 0 0 1302.16c0,327.58 134.11,625.49 350.15,841.51 146.26,146.25 329.89,254.9 534.95,309.87l0 -2453.54z"/>
   <path class="fil3" d="M4561.01 8689.6l-379.34 0c-257.42,0 -491.48,105.38 -661.25,275.13 -170.13,170.13 -275.77,405.23 -275.77,664.1l0 1209.99c0,258.89 105.64,493.99 275.77,664.12 169.77,169.75 403.83,275.12 661.25,275.12l379.34 0 0 -3088.46z"/>
   <path class="fil7" d="M7188.86 5986.98l5995.6 0c-66.64,-77.73 -136.21,-152.95 -208.56,-225.31 -715.6,-715.59 -1702.93,-1159.72 -2789.23,-1159.72 -1086.35,0 -2073.71,444.13 -2789.27,1159.72 -72.36,72.36 -141.91,147.58 -208.54,225.31z"/>
   <path class="fil5" d="M4486.68 17644.13c97.2,-121.23 200.92,-237.03 310.69,-346.8 761.04,-761.04 1810.68,-1233.42 2965.19,-1233.42l809.98 0c56.34,276.4 193.98,524.08 386.61,716.75 93.15,93.11 199.19,173.4 315.12,237.87l-3486.44 0c-166.56,0 -317.9,68.05 -427.55,177.68 -109.64,109.65 -177.7,261.02 -177.7,427.57l0 488.06c-239.29,-145.61 -471.29,-301.94 -695.9,-467.71z"/>
   <path class="fil5" d="M13942.36 6208.02l-7511.42 0c-453.35,0 -865.55,185.53 -1164.46,484.43 -298.92,298.92 -484.44,711.12 -484.44,1164.47l0 4753.84c0,453.35 185.52,865.56 484.44,1164.46 298.91,298.91 711.11,484.44 1164.46,484.44l2113.32 0 3259.28 0 2138.82 0c453.33,0 865.54,-185.53 1164.45,-484.44 298.9,-298.9 484.44,-711.11 484.44,-1164.46l0 -4753.84c0,-453.35 -185.54,-865.55 -484.44,-1164.47 -298.91,-298.9 -711.12,-484.43 -1164.45,-484.43z"/>
   <path class="fil8" d="M12218.93 8135.13l-4064.54 0c-342.65,0 -654.14,140.21 -879.98,366.03 -225.9,225.93 -366.13,537.82 -366.13,881.18l0 293.37c0,343.37 140.23,655.27 366.1,881.21 225.87,225.84 537.36,366.01 880.01,366.01l4064.54 0c342.62,0 654.13,-140.17 879.95,-366.01 225.92,-225.94 366.15,-537.86 366.15,-881.21l0 -293.37c0,-343.36 -140.22,-655.25 -366.13,-881.18 -225.84,-225.82 -537.35,-366.03 -879.97,-366.03zm-3461.85 948.13c248.34,0 449.69,201.33 449.69,449.68 0,248.34 -201.35,449.67 -449.69,449.67 -248.32,0 -449.69,-201.33 -449.69,-449.67 0,-248.35 201.37,-449.68 449.69,-449.68zm2885.71 0c248.37,0 449.67,201.33 449.67,449.68 0,248.34 -201.3,449.67 -449.67,449.67 -248.33,0 -449.65,-201.33 -449.65,-449.67 0,-248.35 201.32,-449.68 449.65,-449.68z"/>
   <path class="fil4" d="M10809.4 13057.2l0 -498.03c0,-61.03 49.48,-110.51 110.51,-110.51 61.02,0 110.49,49.48 110.49,110.51l0 498.03 989.39 0c116.53,0 222.53,-47.75 299.41,-124.67 76.93,-76.91 124.68,-182.93 124.68,-299.45l0 -147.82c0,-116.5 -47.75,-222.53 -124.68,-299.43 -76.88,-76.92 -182.88,-124.7 -299.41,-124.7l-264.08 0 0 498.04c0,61.05 -49.48,110.52 -110.52,110.52 -61.03,0 -110.52,-49.47 -110.52,-110.52l0 -498.04 -1240.54 0 0 498.04c0,61.05 -49.48,110.52 -110.48,110.52 -61.06,0 -110.53,-49.47 -110.53,-110.52l0 -498.04 -1240.56 0 0 498.04c0,61.05 -49.48,110.52 -110.5,110.52 -60.99,0 -110.51,-49.47 -110.51,-110.52l0 -498.04 -258.02 0c-116.53,0 -222.53,47.78 -299.45,124.7 -76.91,76.9 -124.66,182.95 -124.66,299.43l0 147.82c0,116.52 47.75,222.52 124.66,299.45 76.92,76.92 182.92,124.67 299.45,124.67l994.32 0 0 -498.03c0,-61.03 49.44,-110.51 110.49,-110.51 61.03,0 110.51,49.48 110.51,110.51l0 498.03 1240.55 0z"/>
   <path class="fil7" d="M16108.72 15409.56l-3378.37 0 0 3675.69c13.16,-3.92 26.32,-7.85 39.46,-11.82 1166.73,-352.55 1541.15,-608.15 2855.96,-729.79 161.34,-14.93 322.3,-26.67 482.95,-34.81l0 -510.58c-150.73,-96.93 -250.55,-266.08 -250.55,-458.53 0,-192.49 99.82,-361.67 250.55,-458.56l0 -1471.6zm-2396.95 1385.36c300.91,0 544.82,243.92 544.82,544.8 0,300.83 -243.91,544.75 -544.82,544.75 -300.82,0 -544.74,-243.92 -544.74,-544.75 0,-300.88 243.92,-544.8 544.74,-544.8zm1345.58 0c300.9,0 544.8,243.92 544.8,544.8 0,300.83 -243.9,544.75 -544.8,544.75 -300.83,0 -544.74,-243.92 -544.74,-544.75 0,-300.88 243.91,-544.8 544.74,-544.8z"/>
   <path class="fil9" d="M7188.88 5986.98l1100.95 0c569.06,-713.53 1308.63,-1173.57 1925.57,-1384.87l-28.73 -0.17c-1086.35,0 -2073.66,444.14 -2789.28,1159.72 -72.36,72.36 -141.88,147.58 -208.51,225.32z"/>
   <path class="fil3" d="M4486.68 17644.13c97.22,-121.23 200.95,-237.04 310.72,-346.82 741.61,-741.6 1757.35,-1209.05 2877.07,-1232.39 -576.98,278.92 -1063.52,599.86 -1463.45,953.57l-423.19 0c-166.56,0 -317.88,68.09 -427.58,177.76 -109.61,109.61 -177.71,260.98 -177.71,427.51l0 488.05c-239.27,-145.6 -471.26,-301.92 -695.86,-467.68z"/>
   <path class="fil3" d="M7317.9 6208.02l-886.94 0c-453.37,0 -865.54,185.5 -1164.46,484.43 -298.92,298.92 -484.47,711.11 -484.47,1164.47l0 4753.85c0,453.31 185.55,865.55 484.47,1164.47 298.92,298.9 711.09,484.42 1164.46,484.42l886.94 0c-752.11,-77.01 -1343.86,-717.04 -1343.86,-1488.61l0 -5074.43c0,-771.55 591.75,-1411.58 1343.86,-1488.6z"/>
   <g>
    <g>
     <path class="fil10 str0" d="M13942.36 6208.02l-7511.42 0c-453.35,0 -865.55,185.53 -1164.46,484.43 -298.92,298.92 -484.44,711.12 -484.44,1164.47l0 4753.84c0,453.35 185.52,865.56 484.44,1164.46 298.91,298.91 711.11,484.44 1164.46,484.44l2113.32 0 3259.28 0 2138.82 0c453.33,0 865.54,-185.53 1164.45,-484.44 298.9,-298.9 484.44,-711.11 484.44,-1164.46l0 -4753.84c0,-453.35 -185.54,-865.55 -484.44,-1164.47 -298.91,-298.9 -711.12,-484.43 -1164.45,-484.43zm-6753.5 -221.04l5995.6 0c-66.64,-77.73 -136.21,-152.95 -208.56,-225.31 -715.6,-715.59 -1702.93,-1159.72 -2789.23,-1159.72 -1086.35,0 -2073.71,444.13 -2789.27,1159.72 -72.36,72.36 -141.91,147.58 -208.54,225.31zm-2627.85 2702.62l-379.34 0c-257.42,0 -491.48,105.38 -661.25,275.13 -170.13,170.13 -275.77,405.23 -275.77,664.1l0 1209.99c0,258.89 105.64,493.99 275.77,664.12 169.77,169.75 403.83,275.12 661.25,275.12l379.34 0 0 -3088.46zm7021.51 5791.09l-2817.25 0 0 1302.16c0,327.6 134.1,625.5 350.14,841.54 216.06,216.02 513.94,350.1 841.52,350.1l433.95 0c327.59,0 625.5,-134.08 841.53,-350.1 216.04,-216.04 350.11,-513.94 350.11,-841.54l0 -1302.16zm4229.75 -5791.09l0 3088.46 379.35 0c257.43,0 491.5,-105.37 661.26,-275.12 170.16,-170.11 275.77,-405.23 275.77,-664.12l0 -1209.99c0,-258.87 -105.61,-493.97 -275.77,-664.1 -169.76,-169.75 -403.83,-275.13 -661.26,-275.13l-379.35 0zm-6538 8328.93c-115.93,-64.47 -221.97,-144.76 -315.12,-237.87 -192.63,-192.67 -330.27,-440.35 -386.61,-716.75l-809.98 0c-1154.51,0 -2204.15,472.38 -2965.19,1233.42 -109.77,109.77 -213.49,225.57 -310.69,346.8 -59.31,-43.77 -118.06,-88.24 -176.29,-133.36 103.39,-129.3 213.8,-252.76 330.74,-369.71 800.98,-800.97 1905.95,-1298.15 3121.43,-1298.15l782.99 0c-0.82,-19.93 -1.29,-39.92 -1.29,-60.06l0 -1302.16 -2113.32 0c-514.34,0 -981.87,-210.33 -1320.72,-549.22 -338.85,-338.86 -549.21,-806.37 -549.21,-1320.71l0 -611.95 -379.34 0c-319.92,0 -610.65,-130.79 -821.38,-341.52 -210.31,-210.32 -340.88,-500.06 -340.88,-818.47l0 -1209.99c0,-318.36 130.57,-608.11 340.88,-818.43 210.73,-210.73 501.46,-341.54 821.38,-341.54l319.69 0 -1109.45 -1414.25c-78.34,40.93 -167.44,64.11 -261.91,64.11 -312.78,0 -566.35,-253.55 -566.35,-566.36 0,-312.78 253.57,-566.33 566.35,-566.33 312.77,0 566.36,253.55 566.36,566.33 0,138.56 -49.83,265.48 -132.45,363.93l997.1 1271.01 0 -330.38c0,-514.35 210.36,-981.86 549.21,-1320.73 338.85,-338.86 806.38,-549.21 1320.72,-549.21l473.12 0c105.16,-134.23 218.27,-261.96 338.69,-382.4 755.73,-755.72 1797.86,-1224.84 2943.91,-1224.84 1146.03,0 2188.17,469.12 2943.9,1224.84 120.39,120.44 233.51,248.17 338.65,382.4l473.15 0c514.34,0 981.82,210.35 1320.73,549.21 338.82,338.87 549.18,806.38 549.18,1320.73l0 309.47 980.7 -1250.1c-82.63,-98.45 -132.43,-225.37 -132.43,-363.93 0,-312.78 253.57,-566.33 566.34,-566.33 312.81,0 566.34,253.55 566.34,566.33 0,312.81 -253.53,566.36 -566.34,566.36 -94.48,0 -183.57,-23.18 -261.9,-64.11l-1109.44 1414.25 336.08 0c319.9,0 610.66,130.81 821.38,341.54 210.35,210.32 340.86,500.07 340.86,818.43l0 1209.99c0,318.41 -130.51,608.15 -340.86,818.47 -210.72,210.73 -501.48,341.52 -821.38,341.52l-379.35 0 0 611.95c0,514.34 -210.36,981.85 -549.18,1320.71 -338.91,338.89 -806.39,549.22 -1320.73,549.22l-2138.82 0 0 1302.16c0,20.14 -0.4,40.13 -1.29,60.06l707.1 0 0 -543.85c0,-61.05 49.45,-110.51 110.49,-110.51l4875.07 0c61.03,0 110.51,49.46 110.51,110.51l0 3052.78c-73.63,-8.68 -147.3,-16.3 -221.01,-22.88l0 -2919.4 -4654.06 0 0 3675.69c-73.3,21.79 -146.97,42.71 -221,62.75l0 -1841.91 -6721.52 0c-105.55,0 -201.56,43.24 -271.22,112.91 -69.67,69.65 -112.9,165.68 -112.9,271.23l0 551.8c-74.31,-42.47 -148.11,-85.76 -221.13,-130.19l0 -488.06c0,-166.55 68.06,-317.92 177.7,-427.57 109.65,-109.63 260.99,-177.68 427.55,-177.68l3486.44 0zm2503.2 -965.64c-0.68,3.58 -1.41,7.18 -2.15,10.75 0.74,-3.57 1.47,-7.16 2.15,-10.75zm-3623.08 -8138.74l4064.54 0c404.1,0 771.47,165.32 1037.76,431.64 266.29,266.23 431.54,633.21 431.54,1036.55l0 293.37c0,403.36 -165.25,770.32 -431.53,1036.56 -266.3,266.31 -633.65,431.65 -1037.77,431.65l-4064.54 0c-404.14,0 -771.48,-165.34 -1037.8,-431.65 -266.25,-266.24 -431.53,-633.2 -431.53,-1036.56l0 -293.37c0,-403.34 165.28,-770.32 431.52,-1036.55 266.33,-266.32 633.67,-431.64 1037.81,-431.64zm4064.54 220.98l-4064.54 0c-342.65,0 -654.14,140.21 -879.98,366.03 -225.9,225.93 -366.13,537.82 -366.13,881.18l0 293.37c0,343.37 140.23,655.27 366.1,881.21 225.87,225.84 537.36,366.01 880.01,366.01l4064.54 0c342.62,0 654.13,-140.17 879.95,-366.01 225.92,-225.94 366.15,-537.86 366.15,-881.21l0 -293.37c0,-343.36 -140.22,-655.25 -366.13,-881.18 -225.84,-225.82 -537.35,-366.03 -879.97,-366.03zm-3461.85 948.13c248.34,0 449.69,201.33 449.69,449.68 0,248.34 -201.35,449.67 -449.69,449.67 -248.32,0 -449.69,-201.33 -449.69,-449.67 0,-248.35 201.37,-449.68 449.69,-449.68zm2885.71 0c248.37,0 449.67,201.33 449.67,449.68 0,248.34 -201.3,449.67 -449.67,449.67 -248.33,0 -449.65,-201.33 -449.65,-449.67 0,-248.35 201.32,-449.68 449.65,-449.68zm-3289.26 2756.9l368.53 0 1461.59 0 1461.54 0 374.6 0c177.49,0 338.83,72.53 455.67,189.4 116.9,116.88 189.44,278.19 189.44,455.7l0 147.82c0,177.51 -72.54,338.84 -189.44,455.7 -116.84,116.87 -278.18,189.44 -455.67,189.44l-1099.88 0 -1461.57 0 -1104.81 0c-177.53,0 -338.84,-72.57 -455.71,-189.44 -116.87,-116.88 -189.4,-278.19 -189.4,-455.7l0 -147.82c0,-177.51 72.53,-338.82 189.4,-455.7 116.87,-116.87 278.18,-189.4 455.71,-189.4zm2455.87 1217.04l0 -498.03c0,-61.03 49.48,-110.51 110.51,-110.51 61.02,0 110.49,49.48 110.49,110.51l0 498.03 989.39 0c116.53,0 222.53,-47.75 299.41,-124.67 76.93,-76.91 124.68,-182.93 124.68,-299.45l0 -147.82c0,-116.5 -47.75,-222.53 -124.68,-299.43 -76.88,-76.92 -182.88,-124.7 -299.41,-124.7l-264.08 0 0 498.04c0,61.05 -49.48,110.52 -110.52,110.52 -61.03,0 -110.52,-49.47 -110.52,-110.52l0 -498.04 -1240.54 0 0 498.04c0,61.05 -49.48,110.52 -110.48,110.52 -61.06,0 -110.53,-49.47 -110.53,-110.52l0 -498.04 -1240.56 0 0 498.04c0,61.05 -49.48,110.52 -110.5,110.52 -60.99,0 -110.51,-49.47 -110.51,-110.52l0 -498.04 -258.02 0c-116.53,0 -222.53,47.78 -299.45,124.7 -76.91,76.9 -124.66,182.95 -124.66,299.43l0 147.82c0,116.52 47.75,222.52 124.66,299.45 76.92,76.92 182.92,124.67 299.45,124.67l994.32 0 0 -498.03c0,-61.03 49.44,-110.51 110.49,-110.51 61.03,0 110.51,49.48 110.51,110.51l0 498.03 1240.55 0zm1699.95 3961.33l0 -954.62 -734.07 0c-56.36,276.38 -193.97,524.08 -386.6,716.75 -93.17,93.11 -199.19,173.4 -315.12,237.87l1435.79 0z"/>
     <path id="_1" class="fil11" d="M13942.36 6208.02l-7511.42 0c-453.35,0 -865.55,185.53 -1164.46,484.43 -298.92,298.92 -484.44,711.12 -484.44,1164.47l0 4753.84c0,453.35 185.52,865.56 484.44,1164.46 298.91,298.91 711.11,484.44 1164.46,484.44l2113.32 0 3259.28 0 2138.82 0c453.33,0 865.54,-185.53 1164.45,-484.44 298.9,-298.9 484.44,-711.11 484.44,-1164.46l0 -4753.84c0,-453.35 -185.54,-865.55 -484.44,-1164.47 -298.91,-298.9 -711.12,-484.43 -1164.45,-484.43zm-6753.5 -221.04l5995.6 0c-66.64,-77.73 -136.21,-152.95 -208.56,-225.31 -715.6,-715.59 -1702.93,-1159.72 -2789.23,-1159.72 -1086.35,0 -2073.71,444.13 -2789.27,1159.72 -72.36,72.36 -141.91,147.58 -208.54,225.31zm-2627.85 2702.62l-379.34 0c-257.42,0 -491.48,105.38 -661.25,275.13 -170.13,170.13 -275.77,405.23 -275.77,664.1l0 1209.99c0,258.89 105.64,493.99 275.77,664.12 169.77,169.75 403.83,275.12 661.25,275.12l379.34 0 0 -3088.46zm7021.51 5791.09l-2817.25 0 0 1302.16c0,327.6 134.1,625.5 350.14,841.54 216.06,216.02 513.94,350.1 841.52,350.1l433.95 0c327.59,0 625.5,-134.08 841.53,-350.1 216.04,-216.04 350.11,-513.94 350.11,-841.54l0 -1302.16zm4229.75 -5791.09l0 3088.46 379.35 0c257.43,0 491.5,-105.37 661.26,-275.12 170.16,-170.11 275.77,-405.23 275.77,-664.12l0 -1209.99c0,-258.87 -105.61,-493.97 -275.77,-664.1 -169.76,-169.75 -403.83,-275.13 -661.26,-275.13l-379.35 0zm-6538 8328.93c-115.93,-64.47 -221.97,-144.76 -315.12,-237.87 -192.63,-192.67 -330.27,-440.35 -386.61,-716.75l-809.98 0c-1154.51,0 -2204.15,472.38 -2965.19,1233.42 -109.77,109.77 -213.49,225.57 -310.69,346.8 -59.31,-43.77 -118.06,-88.24 -176.29,-133.36 103.39,-129.3 213.8,-252.76 330.74,-369.71 800.98,-800.97 1905.95,-1298.15 3121.43,-1298.15l782.99 0c-0.82,-19.93 -1.29,-39.92 -1.29,-60.06l0 -1302.16 -2113.32 0c-514.34,0 -981.87,-210.33 -1320.72,-549.22 -338.85,-338.86 -549.21,-806.37 -549.21,-1320.71l0 -611.95 -379.34 0c-319.92,0 -610.65,-130.79 -821.38,-341.52 -210.31,-210.32 -340.88,-500.06 -340.88,-818.47l0 -1209.99c0,-318.36 130.57,-608.11 340.88,-818.43 210.73,-210.73 501.46,-341.54 821.38,-341.54l319.69 0 -1109.45 -1414.25c-78.34,40.93 -167.44,64.11 -261.91,64.11 -312.78,0 -566.35,-253.55 -566.35,-566.36 0,-312.78 253.57,-566.33 566.35,-566.33 312.77,0 566.36,253.55 566.36,566.33 0,138.56 -49.83,265.48 -132.45,363.93l997.1 1271.01 0 -330.38c0,-514.35 210.36,-981.86 549.21,-1320.73 338.85,-338.86 806.38,-549.21 1320.72,-549.21l473.12 0c105.16,-134.23 218.27,-261.96 338.69,-382.4 755.73,-755.72 1797.86,-1224.84 2943.91,-1224.84 1146.03,0 2188.17,469.12 2943.9,1224.84 120.39,120.44 233.51,248.17 338.65,382.4l473.15 0c514.34,0 981.82,210.35 1320.73,549.21 338.82,338.87 549.18,806.38 549.18,1320.73l0 309.47 980.7 -1250.1c-82.63,-98.45 -132.43,-225.37 -132.43,-363.93 0,-312.78 253.57,-566.33 566.34,-566.33 312.81,0 566.34,253.55 566.34,566.33 0,312.81 -253.53,566.36 -566.34,566.36 -94.48,0 -183.57,-23.18 -261.9,-64.11l-1109.44 1414.25 336.08 0c319.9,0 610.66,130.81 821.38,341.54 210.35,210.32 340.86,500.07 340.86,818.43l0 1209.99c0,318.41 -130.51,608.15 -340.86,818.47 -210.72,210.73 -501.48,341.52 -821.38,341.52l-379.35 0 0 611.95c0,514.34 -210.36,981.85 -549.18,1320.71 -338.91,338.89 -806.39,549.22 -1320.73,549.22l-2138.82 0 0 1302.16c0,20.14 -0.4,40.13 -1.29,60.06l707.1 0 0 -543.85c0,-61.05 49.45,-110.51 110.49,-110.51l4875.07 0c61.03,0 110.51,49.46 110.51,110.51l0 3052.78c-73.63,-8.68 -147.3,-16.3 -221.01,-22.88l0 -2919.4 -4654.06 0 0 3675.69c-73.3,21.79 -146.97,42.71 -221,62.75l0 -1841.91 -6721.52 0c-105.55,0 -201.56,43.24 -271.22,112.91 -69.67,69.65 -112.9,165.68 -112.9,271.23l0 551.8c-74.31,-42.47 -148.11,-85.76 -221.13,-130.19l0 -488.06c0,-166.55 68.06,-317.92 177.7,-427.57 109.65,-109.63 260.99,-177.68 427.55,-177.68l3486.44 0zm2503.2 -965.64c-0.68,3.58 -1.41,7.18 -2.15,10.75 0.74,-3.57 1.47,-7.16 2.15,-10.75zm-3623.08 -8138.74l4064.54 0c404.1,0 771.47,165.32 1037.76,431.64 266.29,266.23 431.54,633.21 431.54,1036.55l0 293.37c0,403.36 -165.25,770.32 -431.53,1036.56 -266.3,266.31 -633.65,431.65 -1037.77,431.65l-4064.54 0c-404.14,0 -771.48,-165.34 -1037.8,-431.65 -266.25,-266.24 -431.53,-633.2 -431.53,-1036.56l0 -293.37c0,-403.34 165.28,-770.32 431.52,-1036.55 266.33,-266.32 633.67,-431.64 1037.81,-431.64zm4064.54 220.98l-4064.54 0c-342.65,0 -654.14,140.21 -879.98,366.03 -225.9,225.93 -366.13,537.82 -366.13,881.18l0 293.37c0,343.37 140.23,655.27 366.1,881.21 225.87,225.84 537.36,366.01 880.01,366.01l4064.54 0c342.62,0 654.13,-140.17 879.95,-366.01 225.92,-225.94 366.15,-537.86 366.15,-881.21l0 -293.37c0,-343.36 -140.22,-655.25 -366.13,-881.18 -225.84,-225.82 -537.35,-366.03 -879.97,-366.03zm-3461.85 948.13c248.34,0 449.69,201.33 449.69,449.68 0,248.34 -201.35,449.67 -449.69,449.67 -248.32,0 -449.69,-201.33 -449.69,-449.67 0,-248.35 201.37,-449.68 449.69,-449.68zm2885.71 0c248.37,0 449.67,201.33 449.67,449.68 0,248.34 -201.3,449.67 -449.67,449.67 -248.33,0 -449.65,-201.33 -449.65,-449.67 0,-248.35 201.32,-449.68 449.65,-449.68zm-3289.26 2756.9l368.53 0 1461.59 0 1461.54 0 374.6 0c177.49,0 338.83,72.53 455.67,189.4 116.9,116.88 189.44,278.19 189.44,455.7l0 147.82c0,177.51 -72.54,338.84 -189.44,455.7 -116.84,116.87 -278.18,189.44 -455.67,189.44l-1099.88 0 -1461.57 0 -1104.81 0c-177.53,0 -338.84,-72.57 -455.71,-189.44 -116.87,-116.88 -189.4,-278.19 -189.4,-455.7l0 -147.82c0,-177.51 72.53,-338.82 189.4,-455.7 116.87,-116.87 278.18,-189.4 455.71,-189.4zm2455.87 1217.04l0 -498.03c0,-61.03 49.48,-110.51 110.51,-110.51 61.02,0 110.49,49.48 110.49,110.51l0 498.03 989.39 0c116.53,0 222.53,-47.75 299.41,-124.67 76.93,-76.91 124.68,-182.93 124.68,-299.45l0 -147.82c0,-116.5 -47.75,-222.53 -124.68,-299.43 -76.88,-76.92 -182.88,-124.7 -299.41,-124.7l-264.08 0 0 498.04c0,61.05 -49.48,110.52 -110.52,110.52 -61.03,0 -110.52,-49.47 -110.52,-110.52l0 -498.04 -1240.54 0 0 498.04c0,61.05 -49.48,110.52 -110.48,110.52 -61.06,0 -110.53,-49.47 -110.53,-110.52l0 -498.04 -1240.56 0 0 498.04c0,61.05 -49.48,110.52 -110.5,110.52 -60.99,0 -110.51,-49.47 -110.51,-110.52l0 -498.04 -258.02 0c-116.53,0 -222.53,47.78 -299.45,124.7 -76.91,76.9 -124.66,182.95 -124.66,299.43l0 147.82c0,116.52 47.75,222.52 124.66,299.45 76.92,76.92 182.92,124.67 299.45,124.67l994.32 0 0 -498.03c0,-61.03 49.44,-110.51 110.49,-110.51 61.03,0 110.51,49.48 110.51,110.51l0 498.03 1240.55 0zm1699.95 3961.33l0 -954.62 -734.07 0c-56.36,276.38 -193.97,524.08 -386.6,716.75 -93.17,93.11 -199.19,173.4 -315.12,237.87l1435.79 0z"/>
    </g>
    <g>
     <path class="fil12 str0" d="M13711.77 16794.92c300.89,0 544.81,243.92 544.81,544.77 0,300.88 -243.92,544.77 -544.81,544.77 -300.85,0 -544.75,-243.89 -544.75,-544.77 0,-300.85 243.9,-544.77 544.75,-544.77zm0 250.57c2.57,0 5.09,0.01 7.63,0.09 2.53,0.04 5.02,0.14 7.54,0.27 2.49,0.14 5,0.3 7.49,0.46 2.5,0.21 4.98,0.41 7.45,0.68l0.02 0c2.45,0.25 4.89,0.52 7.36,0.84 2.47,0.33 4.91,0.67 7.38,1.03 2.39,0.4 4.8,0.78 7.25,1.21 2.38,0.44 4.8,0.89 7.19,1.37l0.01 0c2.39,0.5 4.77,1.02 7.16,1.57 2.35,0.55 4.72,1.14 7.06,1.73 2.36,0.6 4.7,1.25 7,1.89 2.34,0.66 4.68,1.35 6.99,2.07 2.28,0.71 4.57,1.48 6.87,2.23 2.29,0.77 4.53,1.58 6.77,2.41 2.27,0.82 4.53,1.67 6.72,2.56 2.27,0.83 4.45,1.76 6.63,2.7 2.24,0.94 4.41,1.87 6.58,2.89 2.18,0.96 4.33,1.95 6.49,3 2.14,1.03 4.25,2.1 6.4,3.17 2.09,1.09 4.2,2.2 6.29,3.33 2.08,1.11 4.15,2.28 6.19,3.47 2.03,1.18 4.11,2.39 6.13,3.6 1.99,1.23 4.01,2.5 6,3.77 1.98,1.28 3.96,2.57 5.91,3.89 1.96,1.33 3.95,2.67 5.84,4.07l0.02 0c1.92,1.35 3.81,2.71 5.68,4.11 1.9,1.43 3.77,2.88 5.62,4.34 1.87,1.43 3.69,2.93 5.52,4.43 1.81,1.49 3.62,3.03 5.38,4.53 1.8,1.55 3.55,3.14 5.3,4.69 1.73,1.6 3.45,3.21 5.18,4.83 1.68,1.63 3.35,3.28 5.02,4.92 1.68,1.66 3.33,3.35 4.92,5.05 1.64,1.71 3.27,3.44 4.82,5.16l0.01 0c1.59,1.75 3.15,3.53 4.68,5.29 1.52,1.8 3.05,3.59 4.56,5.39 1.48,1.83 2.97,3.66 4.44,5.5 1.44,1.86 2.89,3.74 4.3,5.62 1.41,1.89 2.81,3.81 4.17,5.71 1.37,1.92 2.71,3.88 4.04,5.84 1.33,1.95 2.63,3.91 3.89,5.89l0.02 0c1.27,2.02 2.51,4.03 3.71,6.02 1.24,2.05 2.46,4.09 3.64,6.14 1.19,2.07 2.32,4.11 3.47,6.23 1.12,2.05 2.25,4.16 3.33,6.27 1.06,2.11 2.14,4.24 3.17,6.39 1.03,2.13 2.04,4.3 3.01,6.49 1,2.17 1.93,4.35 2.87,6.54 0.94,2.21 1.83,4.41 2.71,6.66 0.9,2.21 1.73,4.46 2.59,6.7 0.81,2.26 1.6,4.52 2.36,6.8 0.79,2.28 1.5,4.57 2.23,6.89 0.72,2.31 1.45,4.63 2.09,6.93 0.66,2.32 1.3,4.67 1.9,7.01 0.56,2.36 1.16,4.72 1.71,7.1 0.57,2.38 1.07,4.74 1.57,7.16 0.46,2.38 0.94,4.79 1.38,7.21 0.42,2.4 0.82,4.83 1.19,7.25l0 0.01c0.37,2.42 0.74,4.89 1.04,7.33 0.3,2.47 0.58,4.91 0.85,7.39 0.25,2.48 0.45,4.98 0.66,7.46 0.17,2.49 0.34,5 0.45,7.49l0 0.02c0.15,2.49 0.25,4.98 0.31,7.51l0 0.01c0.06,2.54 0.08,5.06 0.08,7.59 0,2.54 -0.02,5.1 -0.08,7.6l0 0.03c-0.06,2.5 -0.16,5.01 -0.31,7.51l0 0.02c-0.11,2.49 -0.28,5.03 -0.45,7.5 -0.21,2.47 -0.41,4.96 -0.66,7.44 -0.27,2.46 -0.55,4.92 -0.85,7.4 -0.3,2.44 -0.67,4.89 -1.04,7.31 -0.36,2.44 -0.77,4.86 -1.19,7.27 -0.44,2.42 -0.92,4.84 -1.38,7.24 -0.5,2.37 -1,4.77 -1.57,7.13 -0.55,2.39 -1.15,4.74 -1.71,7.08 -0.6,2.37 -1.24,4.71 -1.9,7.01 -0.68,2.35 -1.36,4.69 -2.09,6.97 -0.73,2.29 -1.44,4.58 -2.23,6.87 -0.76,2.27 -1.55,4.56 -2.36,6.79 -0.86,2.25 -1.69,4.49 -2.59,6.73 -0.88,2.24 -1.77,4.44 -2.71,6.63 -0.94,2.19 -1.87,4.39 -2.87,6.55 -0.97,2.2 -1.98,4.32 -3.01,6.47 -1.03,2.18 -2.11,4.28 -3.17,6.38 -1.07,2.17 -2.21,4.26 -3.33,6.34 -1.15,2.05 -2.28,4.16 -3.47,6.18 -1.18,2.08 -2.4,4.1 -3.64,6.12 -1.2,2.03 -2.44,4.04 -3.71,6.03l-0.02 0c-1.26,1.99 -2.56,3.95 -3.89,5.91 -2.65,3.93 -5.37,7.75 -8.21,11.54 -1.41,1.9 -2.86,3.76 -4.3,5.61 -1.47,1.87 -2.96,3.69 -4.44,5.5 -1.51,1.84 -3.04,3.62 -4.56,5.38l0 0.03c-1.53,1.78 -3.09,3.52 -4.68,5.27l-0.01 0c-1.55,1.74 -3.18,3.44 -4.82,5.17 -3.23,3.4 -6.58,6.75 -9.94,9.98 -1.73,1.62 -3.45,3.24 -5.18,4.79 -1.75,1.62 -3.5,3.18 -5.3,4.71 -1.79,1.51 -3.57,3.06 -5.38,4.57 -1.83,1.5 -3.65,2.94 -5.52,4.41 -1.85,1.45 -3.72,2.88 -5.62,4.3 -1.87,1.41 -3.76,2.8 -5.68,4.19l-0.02 0c-1.89,1.35 -3.88,2.71 -5.84,4.04 -1.95,1.3 -3.93,2.62 -5.91,3.9 -1.99,1.26 -4.01,2.5 -6,3.75 -2.02,1.23 -4.1,2.41 -6.13,3.59 -2.04,1.18 -4.11,2.33 -6.19,3.49 -2.09,1.13 -4.2,2.23 -6.29,3.32 -2.15,1.08 -4.26,2.15 -6.4,3.17 -2.16,1.03 -4.31,2.03 -6.49,3.03 -2.17,0.99 -4.34,1.94 -6.58,2.86 -2.18,0.94 -4.36,1.84 -6.63,2.71 -2.19,0.91 -4.45,1.72 -6.72,2.55 -2.24,0.86 -4.48,1.62 -6.77,2.43 -2.3,0.74 -4.59,1.5 -6.87,2.21 -2.31,0.72 -4.65,1.41 -6.99,2.05 -2.3,0.67 -4.64,1.3 -7,1.92 -2.34,0.63 -4.71,1.19 -7.06,1.72 -2.39,0.56 -4.77,1.06 -7.16,1.56l-0.01 0c-2.39,0.49 -4.81,0.93 -7.19,1.38 -2.45,0.44 -4.86,0.84 -7.25,1.21 -2.47,0.36 -4.91,0.69 -7.38,1.02 -2.47,0.3 -4.91,0.6 -7.36,0.85l-0.02 0c-2.47,0.24 -4.95,0.47 -7.45,0.64 -2.49,0.2 -5,0.37 -7.49,0.5 -2.52,0.12 -5.01,0.2 -7.54,0.27 -2.54,0.08 -5.06,0.12 -7.63,0.12 -2.52,0 -5.05,-0.04 -7.56,-0.12 -2.52,-0.07 -5.05,-0.15 -7.57,-0.27 -2.5,-0.13 -4.99,-0.3 -7.49,-0.5 -2.47,-0.17 -4.99,-0.4 -7.44,-0.64 -2.47,-0.25 -4.95,-0.55 -7.41,-0.85 -2.43,-0.33 -4.87,-0.62 -7.32,-1.02 -2.42,-0.37 -4.88,-0.77 -7.26,-1.21 -2.43,-0.45 -4.83,-0.89 -7.23,-1.38 -2.4,-0.5 -4.77,-1 -7.14,-1.56 -2.37,-0.53 -4.72,-1.09 -7.09,-1.72 -2.35,-0.62 -4.68,-1.25 -7.02,-1.92 -2.32,-0.64 -4.64,-1.33 -6.95,-2.05 -2.31,-0.71 -4.59,-1.47 -6.86,-2.21 -2.28,-0.81 -4.56,-1.57 -6.78,-2.43l-0.02 0c-2.27,-0.83 -4.48,-1.64 -6.71,-2.55l-0.01 0c-2.24,-0.87 -4.46,-1.77 -6.63,-2.71 -2.2,-0.92 -4.4,-1.87 -6.58,-2.86 -2.16,-1 -4.33,-2 -6.45,-3.03 -2.19,-1.02 -4.28,-2.09 -6.4,-3.17 -2.13,-1.09 -4.21,-2.19 -6.32,-3.32 -2.05,-1.16 -4.15,-2.31 -6.21,-3.49 -2.02,-1.18 -4.08,-2.36 -6.09,-3.59 -2.03,-1.23 -4.03,-2.49 -6.03,-3.75 -1.99,-1.28 -3.98,-2.6 -5.92,-3.9 -1.94,-1.33 -3.88,-2.69 -5.8,-4.04l-0.01 0c-1.91,-1.39 -3.82,-2.78 -5.73,-4.19 -1.87,-1.42 -3.76,-2.85 -5.6,-4.3 -1.88,-1.47 -3.7,-2.91 -5.5,-4.41l-0.01 0c-1.82,-1.51 -3.61,-3.06 -5.38,-4.57l-0.02 0c-3.56,-3.07 -7.04,-6.26 -10.45,-9.5 -3.39,-3.23 -6.75,-6.59 -9.97,-9.98l-0.02 0c-1.6,-1.73 -3.22,-3.43 -4.78,-5.17l-0.02 0c-3.16,-3.47 -6.25,-7.02 -9.24,-10.68 -1.49,-1.81 -2.96,-3.63 -4.41,-5.5 -1.48,-1.85 -2.92,-3.71 -4.33,-5.61 -2.83,-3.79 -5.56,-7.62 -8.17,-11.54 -1.34,-1.96 -2.63,-3.92 -3.93,-5.91 -1.24,-1.99 -2.52,-4 -3.76,-6.03 -1.21,-2.02 -2.42,-4.04 -3.6,-6.12l-0.02 0c-1.17,-2.02 -2.32,-4.13 -3.42,-6.18 -1.16,-2.08 -2.27,-4.17 -3.34,-6.34 -1.09,-2.09 -2.18,-4.21 -3.2,-6.38 -1.02,-2.15 -2.02,-4.27 -3.03,-6.47 -0.96,-2.16 -1.92,-4.36 -2.85,-6.55 -0.95,-2.19 -1.83,-4.39 -2.72,-6.63 -0.86,-2.24 -1.72,-4.48 -2.55,-6.73 -0.81,-2.23 -1.63,-4.52 -2.39,-6.79 -0.8,-2.29 -1.51,-4.58 -2.24,-6.87 -0.69,-2.29 -1.41,-4.62 -2.07,-6.97 -0.66,-2.3 -1.3,-4.64 -1.89,-7.01 -0.59,-2.34 -1.18,-4.69 -1.75,-7.08 -0.53,-2.36 -1.01,-4.76 -1.53,-7.13 -0.48,-2.4 -0.97,-4.82 -1.38,-7.24 -0.44,-2.41 -0.85,-4.83 -1.2,-7.27 -0.39,-2.42 -0.73,-4.87 -1.03,-7.31 -0.3,-2.48 -0.62,-4.93 -0.88,-7.4 -0.2,-2.48 -0.47,-4.97 -0.62,-7.44 -0.21,-2.47 -0.38,-5.01 -0.48,-7.5l0 -0.02c-0.16,-2.5 -0.24,-5.01 -0.28,-7.51l0 -0.03c-0.07,-2.5 -0.14,-5.05 -0.14,-7.6 0,-2.52 0.07,-5.05 0.14,-7.59l0 -0.01c0.04,-2.53 0.12,-5.02 0.28,-7.51l0 -0.02c0.1,-2.49 0.27,-5 0.48,-7.49 0.15,-2.48 0.42,-4.98 0.62,-7.46 0.26,-2.48 0.58,-4.92 0.88,-7.39 0.3,-2.44 0.64,-4.91 1.03,-7.33l0 -0.01c0.35,-2.42 0.76,-4.84 1.2,-7.25 0.41,-2.42 0.9,-4.83 1.38,-7.21 0.52,-2.42 1,-4.78 1.53,-7.16 0.57,-2.38 1.16,-4.74 1.75,-7.1 0.59,-2.34 1.23,-4.69 1.89,-7.01 0.66,-2.3 1.36,-4.65 2.07,-6.93 0.73,-2.32 1.46,-4.61 2.24,-6.89 0.77,-2.27 1.58,-4.54 2.39,-6.8 0.83,-2.24 1.69,-4.49 2.55,-6.7 0.89,-2.25 1.77,-4.45 2.72,-6.66 0.93,-2.18 1.89,-4.37 2.85,-6.54 1.01,-2.19 2.01,-4.36 3.03,-6.49 1.02,-2.15 2.11,-4.28 3.2,-6.39 1.05,-2.11 2.18,-4.22 3.34,-6.27 1.11,-2.12 2.25,-4.16 3.42,-6.23l0.02 0c1.18,-2.05 2.39,-4.09 3.6,-6.14 1.24,-1.99 2.52,-4 3.76,-6.02 1.29,-1.98 2.59,-3.94 3.93,-5.89 1.29,-1.96 2.64,-3.92 4.02,-5.84 1.35,-1.9 2.75,-3.82 4.15,-5.71 1.41,-1.88 2.85,-3.76 4.33,-5.62 1.45,-1.84 2.92,-3.67 4.41,-5.5 1.5,-1.8 3,-3.59 4.56,-5.39 1.54,-1.76 3.12,-3.54 4.68,-5.29l0.02 0c1.56,-1.72 3.18,-3.45 4.78,-5.16l0.02 0c1.64,-1.7 3.26,-3.39 4.95,-5.05 1.64,-1.64 3.34,-3.29 5.02,-4.92 1.72,-1.62 3.42,-3.23 5.19,-4.83l0.01 0c1.71,-1.55 3.5,-3.14 5.25,-4.69l0.02 0c1.79,-1.5 3.56,-3.04 5.38,-4.53l0.01 0c1.82,-1.5 3.65,-3 5.5,-4.43 1.84,-1.46 3.73,-2.91 5.6,-4.34 1.91,-1.4 3.82,-2.76 5.73,-4.11l0.01 0c1.92,-1.4 3.89,-2.74 5.8,-4.07 1.94,-1.32 3.93,-2.61 5.92,-3.89 2,-1.27 4,-2.54 6.03,-3.77 2.01,-1.21 4.07,-2.42 6.09,-3.6 2.06,-1.19 4.16,-2.36 6.21,-3.47 2.11,-1.13 4.19,-2.24 6.32,-3.33 2.12,-1.07 4.21,-2.14 6.4,-3.17 2.12,-1.05 4.29,-2.04 6.45,-3 2.18,-1.01 4.38,-1.93 6.58,-2.89 2.17,-0.93 4.39,-1.87 6.63,-2.7l0.01 0c2.23,-0.89 4.44,-1.74 6.71,-2.56l0.02 0c2.22,-0.83 4.5,-1.64 6.78,-2.41 2.27,-0.75 4.55,-1.52 6.86,-2.23 2.31,-0.72 4.63,-1.41 6.95,-2.07 2.34,-0.64 4.67,-1.29 7.02,-1.89 2.37,-0.59 4.72,-1.18 7.09,-1.73 2.37,-0.55 4.74,-1.07 7.14,-1.57 2.4,-0.48 4.8,-0.93 7.23,-1.37 2.38,-0.43 4.84,-0.81 7.26,-1.21 2.45,-0.36 4.89,-0.73 7.32,-1.03 2.46,-0.32 4.94,-0.59 7.41,-0.84 2.45,-0.27 4.97,-0.47 7.44,-0.68 2.48,-0.16 4.99,-0.32 7.49,-0.46 2.52,-0.13 5.05,-0.23 7.57,-0.27 2.51,-0.08 5.04,-0.09 7.56,-0.09z"/>
     <path id="_1_0" class="fil13" d="M13711.77 16794.92c300.89,0 544.81,243.92 544.81,544.77 0,300.88 -243.92,544.77 -544.81,544.77 -300.85,0 -544.75,-243.89 -544.75,-544.77 0,-300.85 243.9,-544.77 544.75,-544.77zm0 250.57c2.57,0 5.09,0.01 7.63,0.09 2.53,0.04 5.02,0.14 7.54,0.27 2.49,0.14 5,0.3 7.49,0.46 2.5,0.21 4.98,0.41 7.45,0.68l0.02 0c2.45,0.25 4.89,0.52 7.36,0.84 2.47,0.33 4.91,0.67 7.38,1.03 2.39,0.4 4.8,0.78 7.25,1.21 2.38,0.44 4.8,0.89 7.19,1.37l0.01 0c2.39,0.5 4.77,1.02 7.16,1.57 2.35,0.55 4.72,1.14 7.06,1.73 2.36,0.6 4.7,1.25 7,1.89 2.34,0.66 4.68,1.35 6.99,2.07 2.28,0.71 4.57,1.48 6.87,2.23 2.29,0.77 4.53,1.58 6.77,2.41 2.27,0.82 4.53,1.67 6.72,2.56 2.27,0.83 4.45,1.76 6.63,2.7 2.24,0.94 4.41,1.87 6.58,2.89 2.18,0.96 4.33,1.95 6.49,3 2.14,1.03 4.25,2.1 6.4,3.17 2.09,1.09 4.2,2.2 6.29,3.33 2.08,1.11 4.15,2.28 6.19,3.47 2.03,1.18 4.11,2.39 6.13,3.6 1.99,1.23 4.01,2.5 6,3.77 1.98,1.28 3.96,2.57 5.91,3.89 1.96,1.33 3.95,2.67 5.84,4.07l0.02 0c1.92,1.35 3.81,2.71 5.68,4.11 1.9,1.43 3.77,2.88 5.62,4.34 1.87,1.43 3.69,2.93 5.52,4.43 1.81,1.49 3.62,3.03 5.38,4.53 1.8,1.55 3.55,3.14 5.3,4.69 1.73,1.6 3.45,3.21 5.18,4.83 1.68,1.63 3.35,3.28 5.02,4.92 1.68,1.66 3.33,3.35 4.92,5.05 1.64,1.71 3.27,3.44 4.82,5.16l0.01 0c1.59,1.75 3.15,3.53 4.68,5.29 1.52,1.8 3.05,3.59 4.56,5.39 1.48,1.83 2.97,3.66 4.44,5.5 1.44,1.86 2.89,3.74 4.3,5.62 1.41,1.89 2.81,3.81 4.17,5.71 1.37,1.92 2.71,3.88 4.04,5.84 1.33,1.95 2.63,3.91 3.89,5.89l0.02 0c1.27,2.02 2.51,4.03 3.71,6.02 1.24,2.05 2.46,4.09 3.64,6.14 1.19,2.07 2.32,4.11 3.47,6.23 1.12,2.05 2.25,4.16 3.33,6.27 1.06,2.11 2.14,4.24 3.17,6.39 1.03,2.13 2.04,4.3 3.01,6.49 1,2.17 1.93,4.35 2.87,6.54 0.94,2.21 1.83,4.41 2.71,6.66 0.9,2.21 1.73,4.46 2.59,6.7 0.81,2.26 1.6,4.52 2.36,6.8 0.79,2.28 1.5,4.57 2.23,6.89 0.72,2.31 1.45,4.63 2.09,6.93 0.66,2.32 1.3,4.67 1.9,7.01 0.56,2.36 1.16,4.72 1.71,7.1 0.57,2.38 1.07,4.74 1.57,7.16 0.46,2.38 0.94,4.79 1.38,7.21 0.42,2.4 0.82,4.83 1.19,7.25l0 0.01c0.37,2.42 0.74,4.89 1.04,7.33 0.3,2.47 0.58,4.91 0.85,7.39 0.25,2.48 0.45,4.98 0.66,7.46 0.17,2.49 0.34,5 0.45,7.49l0 0.02c0.15,2.49 0.25,4.98 0.31,7.51l0 0.01c0.06,2.54 0.08,5.06 0.08,7.59 0,2.54 -0.02,5.1 -0.08,7.6l0 0.03c-0.06,2.5 -0.16,5.01 -0.31,7.51l0 0.02c-0.11,2.49 -0.28,5.03 -0.45,7.5 -0.21,2.47 -0.41,4.96 -0.66,7.44 -0.27,2.46 -0.55,4.92 -0.85,7.4 -0.3,2.44 -0.67,4.89 -1.04,7.31 -0.36,2.44 -0.77,4.86 -1.19,7.27 -0.44,2.42 -0.92,4.84 -1.38,7.24 -0.5,2.37 -1,4.77 -1.57,7.13 -0.55,2.39 -1.15,4.74 -1.71,7.08 -0.6,2.37 -1.24,4.71 -1.9,7.01 -0.68,2.35 -1.36,4.69 -2.09,6.97 -0.73,2.29 -1.44,4.58 -2.23,6.87 -0.76,2.27 -1.55,4.56 -2.36,6.79 -0.86,2.25 -1.69,4.49 -2.59,6.73 -0.88,2.24 -1.77,4.44 -2.71,6.63 -0.94,2.19 -1.87,4.39 -2.87,6.55 -0.97,2.2 -1.98,4.32 -3.01,6.47 -1.03,2.18 -2.11,4.28 -3.17,6.38 -1.07,2.17 -2.21,4.26 -3.33,6.34 -1.15,2.05 -2.28,4.16 -3.47,6.18 -1.18,2.08 -2.4,4.1 -3.64,6.12 -1.2,2.03 -2.44,4.04 -3.71,6.03l-0.02 0c-1.26,1.99 -2.56,3.95 -3.89,5.91 -2.65,3.93 -5.37,7.75 -8.21,11.54 -1.41,1.9 -2.86,3.76 -4.3,5.61 -1.47,1.87 -2.96,3.69 -4.44,5.5 -1.51,1.84 -3.04,3.62 -4.56,5.38l0 0.03c-1.53,1.78 -3.09,3.52 -4.68,5.27l-0.01 0c-1.55,1.74 -3.18,3.44 -4.82,5.17 -3.23,3.4 -6.58,6.75 -9.94,9.98 -1.73,1.62 -3.45,3.24 -5.18,4.79 -1.75,1.62 -3.5,3.18 -5.3,4.71 -1.79,1.51 -3.57,3.06 -5.38,4.57 -1.83,1.5 -3.65,2.94 -5.52,4.41 -1.85,1.45 -3.72,2.88 -5.62,4.3 -1.87,1.41 -3.76,2.8 -5.68,4.19l-0.02 0c-1.89,1.35 -3.88,2.71 -5.84,4.04 -1.95,1.3 -3.93,2.62 -5.91,3.9 -1.99,1.26 -4.01,2.5 -6,3.75 -2.02,1.23 -4.1,2.41 -6.13,3.59 -2.04,1.18 -4.11,2.33 -6.19,3.49 -2.09,1.13 -4.2,2.23 -6.29,3.32 -2.15,1.08 -4.26,2.15 -6.4,3.17 -2.16,1.03 -4.31,2.03 -6.49,3.03 -2.17,0.99 -4.34,1.94 -6.58,2.86 -2.18,0.94 -4.36,1.84 -6.63,2.71 -2.19,0.91 -4.45,1.72 -6.72,2.55 -2.24,0.86 -4.48,1.62 -6.77,2.43 -2.3,0.74 -4.59,1.5 -6.87,2.21 -2.31,0.72 -4.65,1.41 -6.99,2.05 -2.3,0.67 -4.64,1.3 -7,1.92 -2.34,0.63 -4.71,1.19 -7.06,1.72 -2.39,0.56 -4.77,1.06 -7.16,1.56l-0.01 0c-2.39,0.49 -4.81,0.93 -7.19,1.38 -2.45,0.44 -4.86,0.84 -7.25,1.21 -2.47,0.36 -4.91,0.69 -7.38,1.02 -2.47,0.3 -4.91,0.6 -7.36,0.85l-0.02 0c-2.47,0.24 -4.95,0.47 -7.45,0.64 -2.49,0.2 -5,0.37 -7.49,0.5 -2.52,0.12 -5.01,0.2 -7.54,0.27 -2.54,0.08 -5.06,0.12 -7.63,0.12 -2.52,0 -5.05,-0.04 -7.56,-0.12 -2.52,-0.07 -5.05,-0.15 -7.57,-0.27 -2.5,-0.13 -4.99,-0.3 -7.49,-0.5 -2.47,-0.17 -4.99,-0.4 -7.44,-0.64 -2.47,-0.25 -4.95,-0.55 -7.41,-0.85 -2.43,-0.33 -4.87,-0.62 -7.32,-1.02 -2.42,-0.37 -4.88,-0.77 -7.26,-1.21 -2.43,-0.45 -4.83,-0.89 -7.23,-1.38 -2.4,-0.5 -4.77,-1 -7.14,-1.56 -2.37,-0.53 -4.72,-1.09 -7.09,-1.72 -2.35,-0.62 -4.68,-1.25 -7.02,-1.92 -2.32,-0.64 -4.64,-1.33 -6.95,-2.05 -2.31,-0.71 -4.59,-1.47 -6.86,-2.21 -2.28,-0.81 -4.56,-1.57 -6.78,-2.43l-0.02 0c-2.27,-0.83 -4.48,-1.64 -6.71,-2.55l-0.01 0c-2.24,-0.87 -4.46,-1.77 -6.63,-2.71 -2.2,-0.92 -4.4,-1.87 -6.58,-2.86 -2.16,-1 -4.33,-2 -6.45,-3.03 -2.19,-1.02 -4.28,-2.09 -6.4,-3.17 -2.13,-1.09 -4.21,-2.19 -6.32,-3.32 -2.05,-1.16 -4.15,-2.31 -6.21,-3.49 -2.02,-1.18 -4.08,-2.36 -6.09,-3.59 -2.03,-1.23 -4.03,-2.49 -6.03,-3.75 -1.99,-1.28 -3.98,-2.6 -5.92,-3.9 -1.94,-1.33 -3.88,-2.69 -5.8,-4.04l-0.01 0c-1.91,-1.39 -3.82,-2.78 -5.73,-4.19 -1.87,-1.42 -3.76,-2.85 -5.6,-4.3 -1.88,-1.47 -3.7,-2.91 -5.5,-4.41l-0.01 0c-1.82,-1.51 -3.61,-3.06 -5.38,-4.57l-0.02 0c-3.56,-3.07 -7.04,-6.26 -10.45,-9.5 -3.39,-3.23 -6.75,-6.59 -9.97,-9.98l-0.02 0c-1.6,-1.73 -3.22,-3.43 -4.78,-5.17l-0.02 0c-3.16,-3.47 -6.25,-7.02 -9.24,-10.68 -1.49,-1.81 -2.96,-3.63 -4.41,-5.5 -1.48,-1.85 -2.92,-3.71 -4.33,-5.61 -2.83,-3.79 -5.56,-7.62 -8.17,-11.54 -1.34,-1.96 -2.63,-3.92 -3.93,-5.91 -1.24,-1.99 -2.52,-4 -3.76,-6.03 -1.21,-2.02 -2.42,-4.04 -3.6,-6.12l-0.02 0c-1.17,-2.02 -2.32,-4.13 -3.42,-6.18 -1.16,-2.08 -2.27,-4.17 -3.34,-6.34 -1.09,-2.09 -2.18,-4.21 -3.2,-6.38 -1.02,-2.15 -2.02,-4.27 -3.03,-6.47 -0.96,-2.16 -1.92,-4.36 -2.85,-6.55 -0.95,-2.19 -1.83,-4.39 -2.72,-6.63 -0.86,-2.24 -1.72,-4.48 -2.55,-6.73 -0.81,-2.23 -1.63,-4.52 -2.39,-6.79 -0.8,-2.29 -1.51,-4.58 -2.24,-6.87 -0.69,-2.29 -1.41,-4.62 -2.07,-6.97 -0.66,-2.3 -1.3,-4.64 -1.89,-7.01 -0.59,-2.34 -1.18,-4.69 -1.75,-7.08 -0.53,-2.36 -1.01,-4.76 -1.53,-7.13 -0.48,-2.4 -0.97,-4.82 -1.38,-7.24 -0.44,-2.41 -0.85,-4.83 -1.2,-7.27 -0.39,-2.42 -0.73,-4.87 -1.03,-7.31 -0.3,-2.48 -0.62,-4.93 -0.88,-7.4 -0.2,-2.48 -0.47,-4.97 -0.62,-7.44 -0.21,-2.47 -0.38,-5.01 -0.48,-7.5l0 -0.02c-0.16,-2.5 -0.24,-5.01 -0.28,-7.51l0 -0.03c-0.07,-2.5 -0.14,-5.05 -0.14,-7.6 0,-2.52 0.07,-5.05 0.14,-7.59l0 -0.01c0.04,-2.53 0.12,-5.02 0.28,-7.51l0 -0.02c0.1,-2.49 0.27,-5 0.48,-7.49 0.15,-2.48 0.42,-4.98 0.62,-7.46 0.26,-2.48 0.58,-4.92 0.88,-7.39 0.3,-2.44 0.64,-4.91 1.03,-7.33l0 -0.01c0.35,-2.42 0.76,-4.84 1.2,-7.25 0.41,-2.42 0.9,-4.83 1.38,-7.21 0.52,-2.42 1,-4.78 1.53,-7.16 0.57,-2.38 1.16,-4.74 1.75,-7.1 0.59,-2.34 1.23,-4.69 1.89,-7.01 0.66,-2.3 1.36,-4.65 2.07,-6.93 0.73,-2.32 1.46,-4.61 2.24,-6.89 0.77,-2.27 1.58,-4.54 2.39,-6.8 0.83,-2.24 1.69,-4.49 2.55,-6.7 0.89,-2.25 1.77,-4.45 2.72,-6.66 0.93,-2.18 1.89,-4.37 2.85,-6.54 1.01,-2.19 2.01,-4.36 3.03,-6.49 1.02,-2.15 2.11,-4.28 3.2,-6.39 1.05,-2.11 2.18,-4.22 3.34,-6.27 1.11,-2.12 2.25,-4.16 3.42,-6.23l0.02 0c1.18,-2.05 2.39,-4.09 3.6,-6.14 1.24,-1.99 2.52,-4 3.76,-6.02 1.29,-1.98 2.59,-3.94 3.93,-5.89 1.29,-1.96 2.64,-3.92 4.02,-5.84 1.35,-1.9 2.75,-3.82 4.15,-5.71 1.41,-1.88 2.85,-3.76 4.33,-5.62 1.45,-1.84 2.92,-3.67 4.41,-5.5 1.5,-1.8 3,-3.59 4.56,-5.39 1.54,-1.76 3.12,-3.54 4.68,-5.29l0.02 0c1.56,-1.72 3.18,-3.45 4.78,-5.16l0.02 0c1.64,-1.7 3.26,-3.39 4.95,-5.05 1.64,-1.64 3.34,-3.29 5.02,-4.92 1.72,-1.62 3.42,-3.23 5.19,-4.83l0.01 0c1.71,-1.55 3.5,-3.14 5.25,-4.69l0.02 0c1.79,-1.5 3.56,-3.04 5.38,-4.53l0.01 0c1.82,-1.5 3.65,-3 5.5,-4.43 1.84,-1.46 3.73,-2.91 5.6,-4.34 1.91,-1.4 3.82,-2.76 5.73,-4.11l0.01 0c1.92,-1.4 3.89,-2.74 5.8,-4.07 1.94,-1.32 3.93,-2.61 5.92,-3.89 2,-1.27 4,-2.54 6.03,-3.77 2.01,-1.21 4.07,-2.42 6.09,-3.6 2.06,-1.19 4.16,-2.36 6.21,-3.47 2.11,-1.13 4.19,-2.24 6.32,-3.33 2.12,-1.07 4.21,-2.14 6.4,-3.17 2.12,-1.05 4.29,-2.04 6.45,-3 2.18,-1.01 4.38,-1.93 6.58,-2.89 2.17,-0.93 4.39,-1.87 6.63,-2.7l0.01 0c2.23,-0.89 4.44,-1.74 6.71,-2.56l0.02 0c2.22,-0.83 4.5,-1.64 6.78,-2.41 2.27,-0.75 4.55,-1.52 6.86,-2.23 2.31,-0.72 4.63,-1.41 6.95,-2.07 2.34,-0.64 4.67,-1.29 7.02,-1.89 2.37,-0.59 4.72,-1.18 7.09,-1.73 2.37,-0.55 4.74,-1.07 7.14,-1.57 2.4,-0.48 4.8,-0.93 7.23,-1.37 2.38,-0.43 4.84,-0.81 7.26,-1.21 2.45,-0.36 4.89,-0.73 7.32,-1.03 2.46,-0.32 4.94,-0.59 7.41,-0.84 2.45,-0.27 4.97,-0.47 7.44,-0.68 2.48,-0.16 4.99,-0.32 7.49,-0.46 2.52,-0.13 5.05,-0.23 7.57,-0.27 2.51,-0.08 5.04,-0.09 7.56,-0.09z"/>
    </g>
    <g>
     <path class="fil12 str0" d="M15057.39 16794.92c300.86,0 544.76,243.92 544.76,544.77 0,300.88 -243.9,544.77 -544.76,544.77 -300.87,0 -544.78,-243.89 -544.78,-544.77 0,-300.85 243.91,-544.77 544.78,-544.77zm0 250.57c162.48,0 294.21,131.71 294.21,294.2 0,162.51 -131.73,294.25 -294.21,294.25 -162.53,0 -294.24,-131.74 -294.24,-294.25 0,-162.49 131.71,-294.2 294.24,-294.2z"/>
     <path id="_1_1" class="fil13" d="M15057.39 16794.92c300.86,0 544.76,243.92 544.76,544.77 0,300.88 -243.9,544.77 -544.76,544.77 -300.87,0 -544.78,-243.89 -544.78,-544.77 0,-300.85 243.91,-544.77 544.78,-544.77zm0 250.57c162.48,0 294.21,131.71 294.21,294.2 0,162.51 -131.73,294.25 -294.21,294.25 -162.53,0 -294.24,-131.74 -294.24,-294.25 0,-162.49 131.71,-294.2 294.24,-294.2z"/>
    </g>
    <g>
     <path class="fil12 str0" d="M16402.95 16794.92c300.89,0 544.78,243.92 544.78,544.77 0,300.88 -243.89,544.77 -544.78,544.77 -300.88,0 -544.74,-243.89 -544.74,-544.77 0,-300.85 243.86,-544.77 544.74,-544.77zm0 250.57c162.51,0 294.22,131.71 294.22,294.2 0,162.51 -131.71,294.25 -294.22,294.25 -162.48,0 -294.23,-131.74 -294.23,-294.25 0,-162.49 131.75,-294.2 294.23,-294.2z"/>
     <path id="_1_2" class="fil13" d="M16402.95 16794.92c300.89,0 544.78,243.92 544.78,544.77 0,300.88 -243.89,544.77 -544.78,544.77 -300.88,0 -544.74,-243.89 -544.74,-544.77 0,-300.85 243.86,-544.77 544.74,-544.77zm0 250.57c162.51,0 294.22,131.71 294.22,294.2 0,162.51 -131.71,294.25 -294.22,294.25 -162.48,0 -294.23,-131.74 -294.23,-294.25 0,-162.49 131.75,-294.2 294.23,-294.2z"/>
    </g>
   </g>
  </g>
 </g>
</svg>
