<?xml version="1.0" encoding="UTF-8"?>
<!DOCTYPE svg PUBLIC "-//W3C//DTD SVG 1.1//EN" "http://www.w3.org/Graphics/SVG/1.1/DTD/svg11.dtd">
<!-- Creator: CorelDRAW -->
<svg xmlns="http://www.w3.org/2000/svg" xml:space="preserve" width="135.467mm" height="135.467mm" version="1.1" style="shape-rendering:geometricPrecision; text-rendering:geometricPrecision; image-rendering:optimizeQuality; fill-rule:evenodd; clip-rule:evenodd"
viewBox="0 0 13546.68 13546.68"
 xmlns:xlink="http://www.w3.org/1999/xlink"
 xmlns:xodm="http://www.corel.com/coreldraw/odm/2003">
 <defs>
  <style type="text/css">
   <![CDATA[
    .fil4 {fill:#4377B5}
    .fil1 {fill:#5091DE}
    .fil3 {fill:#73A7E5}
    .fil2 {fill:white}
    .fil0 {fill:url(#id0);fill-rule:nonzero}
   ]]>
  </style>
  <radialGradient id="id0" gradientUnits="objectBoundingBox" cx="50%" cy="50%" r="50%" fx="50%" fy="50%">
   <stop offset="0" style="stop-opacity:1; stop-color:white"/>
   <stop offset="1" style="stop-opacity:1; stop-color:#FFFFCC"/>
  </radialGradient>
 </defs>
 <g id="Camada_x0020_1">
  <metadata id="CorelCorpID_0Corel-Layer"/>
  <rect class="fil0" x="-0.01" y="0.01" width="13546.68" height="13546.68"/>
  <path class="fil1" d="M882.44 6198.37c-13.89,29.73 -8.71,30.41 -9.72,67.12l-6.72 133.49c-2.39,48.88 -4.28,21.27 -13.18,52.73 -9.15,32.39 -4.62,234 -4.9,283.54 -0.65,115.03 -8.58,300.06 13.49,413.72 16.25,83.69 0.9,225.76 25.64,292.23 11.54,30.98 5.29,-0.61 10.17,25.84 8.23,44.72 1.19,87.74 9.28,131.03 3.07,16.41 12.4,36.16 15.15,53.64 8.53,54.12 -1.97,83.2 15.13,132.56 12.85,37.11 9.58,90.89 21.01,119.33 7.22,17.97 17.55,26.07 20.6,45.76 7.29,47.14 -1.43,69.94 23.7,106.47 20.71,30.08 -1.09,16.06 9.07,76.68 5.83,34.82 13.6,23.1 20.98,49.6 6.96,25.05 0.68,46.75 5.13,71.01 4.89,26.65 19.63,31.13 27.08,73.71l8.56 31.5c18.09,40.58 8.14,49.18 19.3,82.28 8.36,24.79 8.62,14.12 14.15,24.24 11.22,20.58 4.34,36.2 7.42,61.05 5.78,46.63 9.69,11.44 19.93,50.91 5.23,20.16 4.8,39.38 12.83,58.4 14.41,34.17 9.09,15.12 16.39,61.11 5.1,32.19 9.74,18.48 20.46,48.67l32.19 109.09c7.23,39.62 89.44,200.28 104.24,257.4 10.79,41.69 25.92,61.42 44.19,94.34 12.77,23 5.99,27.95 21.06,48.53 12.56,17.16 4.46,-2.77 15.17,22.34l55 123.73c11.16,24.28 13.01,13.75 24.67,45.03 20.5,54.92 50,83.99 72.16,144.49l302.37 509.68c24,35.76 31.7,36.15 69.19,96.19 15.55,24.91 40.77,35.91 52.52,69.35 12.93,36.76 39.37,51.76 66.43,77.31 18.83,17.78 30.65,42.85 43.02,65.89l189.22 235.69c18.65,25.67 25.67,16.75 38.57,37.99 18.85,31.03 4.29,28.79 39.69,60.47l59.69 48.51c18.9,18.42 14.08,20.4 36.49,39.26 38.29,32.22 67.74,71.92 100.79,109.35 128.22,139.64 502.3,444.91 664.72,579.58 50.31,41.72 354.75,245.74 449.5,299.92l200.42 122.45c97.35,61.58 204.78,102.61 305.57,158.09 90.43,54.16 195.25,92.59 289.71,135.1 30.48,13.71 21.31,9.34 59.86,13.71 38.18,4.33 19.58,8.29 41.36,24.21 28.07,20.53 82.6,23.95 113.39,35.45l99.04 41.73c37.16,7.89 44.83,3.95 73.72,19.31l64.48 18.24c26.64,13.17 -2.5,20.68 126.46,51.09 21.08,4.71 28.61,13.81 49.44,19.59 23.27,6.47 35.65,3.29 57.89,12.22 53.48,21.48 108.79,39.06 166.39,48.61l49 19.93c19.5,5.92 43.97,2.21 64.63,6.18 25.76,4.95 30.86,13.32 50.14,18.83 20.57,5.86 46.35,3.48 69.15,8.27 50,10.49 50.87,20.6 117.42,22.72 106.59,3.4 160.53,42.96 234.92,48.56 65.96,4.97 126.63,6.32 189.49,20.98 61.36,14.32 135.36,10.59 197.8,16.81 27.25,2.72 33,9.03 57.67,11.53 119.52,12.08 633.63,12.4 773.59,1.96 40.83,-3.04 84.98,-11.9 127.08,-13.45 45.52,-1.67 92.67,-2.83 137.85,-7.51 42.26,-4.37 78.88,-12.92 121.72,-18.32 46.3,-5.83 91.12,-3.46 140.18,-7.45 63.83,-5.19 -16.4,-11.07 111.52,-26.1 80.63,-9.48 57.79,-10.86 120.55,-24.54 22.97,-5.01 42.91,-2.69 66.29,-5.18 28.36,-3.02 32.51,-11.24 52.25,-16.7 16.4,-4.53 47.21,-5.34 59.41,-10.41 13.41,-5.57 22.14,-20.7 42.16,-23.76 21.06,-3.21 46.34,0.29 67.32,-5.08 22.67,-5.8 17.12,-13.55 52.16,-17.15 26.23,-2.7 40.73,-1.24 62.36,-8.66l112.09 -33.69c45.01,-17.97 134.86,-23.99 170.51,-45.76 25.6,-15.63 3.42,-13.62 44.47,-23.5 34.69,-8.36 27.21,-11.82 51.11,-19.02 21.01,-6.33 36.71,-5.67 56.94,-13.55l77.82 -30.39c10.51,-6.38 5.59,-8.06 23.65,-12.76 44.27,-11.53 21.7,10.52 110.86,-31.09l97.97 -46.9 206.43 -81.1c32.03,-11.36 7.83,-11.67 42.5,-25.82l193.03 -92.87 600.02 -346.31 361.16 -266.04c21.45,-25.71 50.5,-38.38 76.22,-58.15l77.31 -68.53c76.91,-55.92 159.01,-132.02 224.37,-200.69 20.43,-21.48 52.09,-46.34 71.06,-68.12l117.5 -124.36 305.33 -335.85 350.06 -462.65 60.42 -85.92c14.14,-14.62 -4.6,-2.67 17.27,-13.92l92.13 -142.85c11.21,-22.51 3.1,-13.34 17.71,-33.12 19.13,-25.92 24.12,-30.63 39.73,-61.3 10.36,-20.32 8.24,-12.48 17.82,-26.61l51.67 -101.18c21.96,-29.87 21.13,-22.6 37.41,-64.07 11.84,-30.18 25.23,-39.04 47.73,-99.51 13.48,-36.23 72.76,-121.02 84.99,-161.58 18.21,-60.35 41.61,-88.39 46.15,-99.94 13.38,-34.07 -8.78,-8.82 22.13,-53.39l56.03 -122.62c5.05,-13.7 5.43,-27.21 10.82,-40.11 9.07,-21.73 9.58,-6.48 16.49,-35.34 4.62,-19.29 -0.74,-17.97 7.97,-35.93 4.48,-9.25 12.42,-16.44 18.71,-31.52l29.64 -71.94c17.99,-68.51 14.56,-34.51 25.7,-69.24 4.4,-13.69 4.79,-27.04 9.61,-41.53l66.38 -181.42c3.94,-17.24 1.37,-33.8 3.65,-49.56 4.39,-30.48 -2.92,-1.66 16.88,-30.11 19.34,-27.79 37.67,-139.38 42.76,-154.99 11.13,-34.1 18.82,-27.87 24.65,-75.7l40.92 -155.55c8.39,-27.38 7.05,-53.03 13.62,-82.19 6.54,-28.94 15.76,-50.85 20.36,-80.81l25.16 -126.45c5.2,-31.1 -1.37,-45.72 15.63,-105.66 31.16,-88.89 5.33,-130.65 21.66,-201.26 34.86,-150.7 11.61,-172.6 28.32,-269.1 8.78,-50.69 16.63,-125.39 16.74,-185.03 0.18,-103.34 5.67,-586.25 -8.72,-682.87 -5.39,-36.17 -12.82,-44.03 -14.49,-85.33 -2.96,-73 -25.87,-287.51 -42.08,-349.92 -13.48,-51.89 -9.32,-122.63 -21.97,-176.71 -8.92,-38.1 -14.78,-32.67 -18.17,-82.67 -1.09,-16.24 -2.41,-30.27 -5.94,-44.96 -21.34,-88.85 -9.98,-55.19 -23.01,-124.6 -6.46,-34.39 -17.61,-33.59 -19.69,-84.64 -3.38,-82.72 -12.63,-62.55 -24.08,-93.63 -7.05,-19.13 -4.14,-39.34 -13.74,-62.38 -26.82,-64.44 -8.17,-24.82 -20.55,-75.32 -9.44,-38.53 -19.78,-21.38 -23.14,-79.84 -3.04,-52.85 -17.52,-38.04 -24.41,-76.26 -9.19,-51.11 11.54,-47.87 -26.72,-71.54 -2.43,-80.69 -14.51,-40.17 -27.7,-88.39 -7.72,-28.2 0.91,-19.49 -12.32,-44.87 -19.27,-36.99 -6.28,-21.97 -14.58,-50.71 -6.7,-23.23 -10.96,-14.52 -19.62,-36.14 -6.41,-15.98 -5.72,-34.44 -10.7,-47.01 -11.61,-29.29 -8.55,5.22 -21.21,-35.2 -10,-31.96 3.14,-28.13 -24,-42.93 21.92,109.17 52.33,119.19 83.79,253.14 26.77,113.98 32.85,15.51 59.26,193.89 9.73,55.19 39.94,131.33 53.7,203.63 6.1,32.03 17.01,26.72 23.08,56.42 6.21,30.36 4.66,44.16 15.28,69.28 16.11,38.14 10.77,94.18 28.89,136.17 9.38,21.75 14.2,86.9 30.17,135.22 18.76,56.81 -0.53,88.66 24.37,148.89 15.37,37.19 7.37,104.06 18.23,147.3l19.91 151.72c3.05,56.38 17.94,80.5 22.06,140.08 7.3,105.35 7.59,218.19 11.8,324.21 1.85,46.46 9.85,95.05 11.61,152.04 1.63,52.62 -1.97,101.6 -2.25,153.56 -21.92,-66.56 -7.84,-140.04 -15.47,-204.92 -6.12,-52.14 -18.7,5.31 -20.06,-94.54 -0.54,-38.78 -4.18,-68.64 -5.94,-101.83 -5.49,-103.13 -9.66,-72.99 -13.14,-91.05l-18.49 -146.11c-8.22,-33.41 -7.32,-13.86 -14.92,-41.5 -7.01,-25.49 -1.97,-67.78 -8.28,-100.14 -19.6,-100.37 -33.91,-186.88 -65.69,-277.01 -10.63,-30.15 -5.67,-64.49 -15.83,-93.31 -16.95,-53.14 -63.87,-247.91 -86.42,-281.5 -9.15,-13.63 -10.85,-41.2 -15.59,-60.02 -5.97,-23.72 -11.19,-12.52 -17.11,-40.15 -3.82,-17.82 -1.26,-34.72 -6.57,-52.37 -6.56,-21.77 -10.35,-13.37 -17.99,-38.58 -4.79,-15.83 -3.76,-37.27 -8.5,-49.79 -5.21,-13.78 -9.23,-3.11 -20.33,-36.32l-34.49 -105.18c-13.6,-36.65 -8.48,0.27 -20.83,-64.03 -5.44,-28.36 -9.03,-15.65 -18.33,-36.51 -7.52,-16.88 -5.9,-31.47 -12.26,-45.01 -8.96,-19.11 -8.67,-3.68 -19.69,-32.08 -31.19,-76.27 -32.73,-64.69 -55.62,-114.66 -11.09,-27.61 -6.07,-2.54 -19.5,-29.75 -6.53,-13.23 -7.42,-27.55 -14.89,-42.82 -31.16,-63.76 -67.89,-117.72 -95.18,-183.61l-68.44 -121.74c-32.07,-48.98 -58.59,-129.26 -106.77,-205.11 -35.72,-56.24 -26.94,-27.58 -43.33,-56.67l-132.48 -211.51c-13.59,-15.3 -7.61,-3.89 -18.25,-19.25 -5.04,-7.29 -6.95,-14.97 -13.18,-24.97l-227.03 -312.51 -179.69 -214.15c-12.89,-13.87 -16.15,-26.94 -27.99,-42.24l-137.26 -148.04c-48.95,-52.02 -96.63,-111.65 -152.85,-157.85l-182.21 -180.54 -204.31 -180.84 -129.27 -94.34 -170.9 -127.55c-57.32,-44.85 0.73,-17.02 -102.26,-80.56 -78.49,-49.41 -1.44,6.88 -68.1,-47.01l-91.78 -58.22c-42.16,-15.76 -344.16,-208.99 -416.23,-251.48 -6.28,-3.26 -21.86,-7.51 -27.46,-9.73 -47.83,-18.9 -55.11,-36.3 -70.72,-44.61l-140.76 -62.15c-19.17,-9.2 -9.57,-11.44 -35.19,-20.4 -42.86,-15.01 -33.68,-19.99 -66.58,-28.35 -36.45,-9.26 30.91,12.89 -11.2,-2.99 -18.5,-9.36 -10.76,-11.94 -40.36,-21.96l-31.65 -14.97 -117.59 -47.14c-13.38,-6.87 -6.5,-7.6 -22.19,-14.55l-51.42 -20.03c-24.54,-13.77 -31.25,-5.89 -60.57,-13.97 -26.38,-7.27 -82.46,-42.97 -103.47,-46.82 -32.65,-5.99 -25.97,-8.83 -51.43,-21.52 -24.71,-12.31 -30.7,4.04 -62.14,-15.13 -31.41,-19.14 -10.75,-12.9 -56.48,-16 -21.95,-1.49 -47.27,-13.99 -60.75,-18.42 -18.32,-6 -39.53,-4.95 -59.27,-11.31 -19.42,-6.28 -28.24,-17.49 -52.1,-22.43l-59.04 -18.27c-22.55,-10.33 -38.32,-4.98 -64.46,-11.57 -22.57,-5.68 -30.7,-14.3 -49.92,-19.42l-305.51 -69.61c-19.98,-8.43 -33.48,-12.2 -60.03,-13.69 -53.91,-3 -79.02,-13.84 -125.16,-22.48 -23.41,-4.39 -49.09,-4.18 -68.26,-7.58 -27.5,-4.87 -36.95,-11.98 -61.06,-14.77 -47.04,-5.44 -91.45,-4.55 -134.39,-12.15 -86.23,-15.26 -172.22,-25 -271.18,-26.77 -95.24,-1.71 -184.64,-18.93 -279.2,-19.42 -127.49,-0.65 -491.2,-13.77 -584.84,11.24 -80.22,21.43 -192.15,7.27 -277.04,22.21 -26.45,4.65 -26.87,9.63 -65.12,11.95 -106.4,6.45 -220.09,31.38 -324.11,49.61 -40.53,7.11 -95.58,5.83 -130.21,15.81 -15.81,4.55 -40.96,13.74 -66.45,14.09 -63.31,0.88 -44.7,4.65 -81.82,25.71l-147.57 37.44c-28.2,8.35 -29.18,18.69 -51.17,23.09 -41.81,8.38 -24.51,-3.6 -61.22,15.85 -29.29,15.51 -28.55,8.02 -64.5,12.07 -40.82,4.6 -17.73,12.9 -52.77,22.36l-121.43 32.27c-16.34,5.63 -28.72,15.08 -48.03,21.07l-116.93 35.75c-27.59,12.2 -70.61,35.87 -101.58,43.74 -31.48,8 -33.06,-1.88 -62.92,14.68 -22.81,12.64 -32.95,12.69 -54.73,21.4l-254.36 119.04c-18.27,10.1 -27.19,6.45 -50.33,19.88l-272.6 139.77c-21.94,11.31 -23.2,19.93 -45.97,29.73 -9.61,4.14 -16.54,4.17 -28.3,10.32l-141.72 80.83c-13.53,9.36 -5.78,6.92 -22.16,15.37l-164.82 96.25c-16.54,11.24 -26.46,24.14 -41.14,34.57l-134.48 88.61c-17.89,14.24 -21.31,8.5 -42.03,21.21 -9.25,5.66 -12.19,11.15 -20.85,17.07l-212.14 157.46c-14.17,6.69 -14.22,3.08 -27.39,10.73l-284.56 240.61c-84.13,79.79 -295.5,278.16 -358.49,357.59 -66.74,84.17 -193.43,206.21 -251.12,302.88 -18.2,30.52 -46.41,54.91 -71.19,80.81l-271.07 363.28c-16.95,22.56 -39.8,77.97 -67.97,116.45l-32.37 43.77c-33.77,45.31 -52.66,92.45 -83.83,138.34 -10,14.74 -23.69,32.3 -30.81,44.5l-125.91 243.11c-51.24,86.43 -136.04,266.41 -170.86,354.93 -10.26,29.68 -13.75,15.66 -23.05,46.12l-62.56 167.92c-10.13,23.26 -9.23,32.87 -15.93,54.69 -7.34,23.94 -15.03,26.78 -22.31,53.93 -10.38,38.68 -3.05,22.77 -21.12,54.44 -27.14,47.54 -80.21,224.96 -93.94,279.07 -6.74,26.58 -10.04,24.06 -17.88,52.72l-30.53 122.27c-20.74,58.56 -20.04,43.35 -32.14,111.41l-31.94 121.23c-12.54,37.93 -9.71,94.18 -20.15,127.12 -8.41,26.48 -15.58,20.61 -18.95,55 -6.89,70.41 -29.2,113.74 -30.58,190.51l-9.62 69.42c-28.34,89.29 3.49,114.42 -31,189.16 -0.59,-1.04 -2.18,3.83 -6.1,5.39l5.15 -337.32z"/>
  <path class="fil2" d="M4234.33 9896.55c17.79,1.64 161.29,109.23 188.21,128.98 1.53,1.12 6.04,4.33 7.5,5.52l19.19 18.48c15.21,12.58 21.01,10.68 36.34,20.18 19.34,11.99 8.78,5.89 32.64,17.89l36.76 20.57c24.49,12.24 13.47,8.27 30.55,20.41 11.01,7.82 -3.58,-0.45 15.51,8.68l13.63 6.01c21.01,11.11 11.37,13.14 41.14,21.12 45.82,12.28 70.41,38.59 114.99,51.44l82.3 27.69c18.87,6.96 10.19,9.35 32.24,18.06 18.77,7.43 23.82,4.09 43.46,13.7 64.21,31.42 126.97,49.56 194.24,72.4 19.24,6.53 21.42,11.01 39.67,17.1 61.9,20.64 284.61,83.54 341.15,89.82 21.75,2.4 199.26,48.09 267.4,54.87 41.97,4.18 49.95,10.91 91.74,17.07 33.56,4.94 65.35,6.21 97.7,9.82 58.9,6.57 124.89,22.07 190.39,24.27 145.53,4.89 267.68,21.01 412.77,21.73 146.03,0.74 291.97,1.34 438.01,-0.18 82.59,-0.86 421.02,-18.49 499.84,-39.49 45.17,-12.04 99.78,-3.01 140.5,-18.06 88.81,-32.86 142.99,-12.12 186.73,-28.98 81.03,-31.25 95.83,-9.16 135.84,-29.37 38.65,-19.53 43.22,-9.85 89.36,-17.42 41.12,-6.74 34.12,-18.49 83.97,-23.44 78.14,-7.74 270.01,-68.57 339.1,-100.16l118.04 -41.38c49.67,-27.8 43.73,-13.92 75.79,-31.72 37.48,-20.82 84.86,-25.1 120.7,-45.15l122.44 -62.81c11.29,-3.91 16.71,-2.91 27.03,-5.88 23.64,-6.83 12.92,-8.57 30.97,-18.34 24.2,-13.09 30.02,-10.79 48.62,-25.89 1.18,-0.96 2.45,-2.34 3.75,-3.23 20.68,-14.13 23.28,0.9 44.33,-24.01 20.9,-24.74 44.05,-30.92 70.74,-51.19 1.47,-1.11 5.68,-4.47 7.22,-5.55l315.04 -238.04c38.02,-28.43 -16.7,26.14 11.89,-11.82l38.11 -45.32c6.69,-6.49 8.11,-8.17 15.94,-15.93 0.96,-0.95 2.32,-2.3 3.28,-3.24l9.75 -9.01c7.59,-7.95 6.27,-2.37 9.88,-14.74l105.22 -136.77c0.89,-1.03 2.17,-2.44 3.07,-3.44l6.21 -6.49c21.18,-24.06 32.12,-53.35 52.28,-80.3 29.96,-40.08 17.77,-89.35 17.77,-176.89 0,-111.41 10.76,-757.54 -8.79,-796.05l-7.19 -11.79c-18.51,-36.72 -29.96,-115.27 -44.54,-158.37 -8.54,-25.23 -9.51,-11.69 -14.78,-37.05 -10.22,-49.3 8.27,-34.98 -17.49,-76.23 -15.35,-24.58 -5.46,-6.6 -11.47,-36.42 -5.79,-28.77 -8.57,-7.65 -29.49,-70.4 -3.83,-11.51 -4.36,-9.53 -8.16,-15.42l-32.34 -63.85c-0.73,-1.43 -1.5,-3.1 -2.18,-4.59 -20.21,-44.4 -17.25,-34.24 -45.74,-73.52 -37.25,-51.36 -29.91,-56.58 -58.56,-100.48l-123.32 -155.39c-18.81,-23.73 -40.76,-58.85 -62.11,-76.77l-383.23 -309.18 -244.7 -149.78c-12.52,-12.34 -82.48,-39.23 -99.49,-43.48 -29.66,-7.4 -17.43,-3.76 -38.71,-13.99l-106.08 -40.11c-26.89,-9.27 -15.95,-10.28 -33.38,-16.97 -17.95,-6.88 -19.82,-3.62 -38.86,-12.18 -11.91,-5.35 -22.32,-11.4 -34.78,-15.41 -12.86,-4.14 -22.05,-3.97 -36.17,-8.23 -37.83,-11.41 -13.31,-13.21 -75.57,-25.45 -21.22,-4.17 -24.68,-8.27 -38.04,-13.59 -29.85,-11.88 -123.38,-24.94 -153.21,-36.88 -58.74,-23.5 -115.59,-23.72 -151.5,-38.87 -55.51,-23.43 -111.4,-8.24 -170.29,-27.31 -48.49,-15.71 -118.51,-10.07 -170.64,-25.75 -56.01,-16.85 -117.41,-9.99 -181.43,-15.24 -60.46,-4.96 -120.7,-15.49 -173.79,-21.46 -109.58,-12.34 -629.47,-1.84 -772.49,3.85 -37.94,1.51 -37.99,10.23 -82.08,12.4 -111.72,5.53 -247.45,18.51 -357.77,35.81 -33.08,5.2 -58.24,14.68 -81.46,19.26 -30,5.93 -61.67,0.59 -91.72,5.4 -27.78,4.45 -48.62,19.63 -74.25,25.05 -57.02,12.07 -103.11,17.69 -160.12,36.21l-76.34 19.5c-43.25,8.37 -109.45,38.01 -149.16,47.89 -46.41,11.55 -37.32,1.57 -75.82,24.63l-68.18 27.42c-16.03,7.62 -17.16,6.42 -33.22,17.29 -20.2,13.69 -25.58,12.63 -50.57,17.81l-15.69 4.71c-1.44,0.63 -2.92,1.62 -4.25,2.32 -12.59,6.58 -11.78,9.64 -32.35,17.36 -111.88,41.93 -145.41,73.42 -230,113.05l-353.38 250.71 -173.03 163.27c-16.55,17.34 -28.53,32.36 -43.72,51.5l-60.23 79.58c-9.37,11.58 -14.43,16.99 -22.79,27.89l-56.27 90.26c-31.98,49.23 -57.54,105.5 -94,152.95 -18.05,23.52 -4.69,3.09 -15.48,35.44l-28.72 66.61c-20.48,43.49 -28.59,49.5 -43.35,109.59 -9.14,37.25 -9.36,41.07 -22.72,72.01 -11.32,26.19 -11.34,48.91 -20.5,81.18 -61.32,216.06 -41.19,512.15 -41.19,745.95 0,43.32 -8.86,254.49 6.18,286.14l33.03 44.76c20.95,17.8 33.93,45.56 49.54,68.68l12.17 14.12c11.01,12.85 0.93,0.51 10.5,13.71l44.89 50.54c10.12,14.1 7.44,18.6 20.24,31.62 9.93,10.09 19.4,12.59 28.97,21.84l24.3 25.95c9.65,10.59 8.48,13.16 18.4,25.87 7.94,10.18 16.12,16.73 25.62,25.99l29.88 33.11c1.01,1 2.41,2.25 3.47,3.21l18.17 14.05c4.54,3.57 21.51,17.71 23.87,19.94l22.97 22.14c24.02,17.86 45.27,31.17 53.74,60.07z"/>
  <path class="fil2" d="M5131.1 4669.09l35.77 104.59c17.51,35.94 11.16,-7.76 18.14,50.77 6.2,52 19.21,21.22 17.24,57.08l68.61 137.15c5.19,13.89 9.06,15.52 18.06,33.47l140.04 207.92c27.57,46.02 73.11,87.74 107.3,128.26 0.86,1.02 2.04,2.48 2.89,3.52l35.87 40.62c85.54,84.93 183.82,155.24 282.54,225.11l272.62 140.74c22.06,6.55 17.41,8.67 33.77,16.54 13.97,6.73 23.88,7.31 37.8,13.04l237.4 72.03c27.01,5.2 70.72,4.15 99.62,5.36 40.4,1.68 51.55,9.95 93.9,14.18 134.47,13.42 264.36,6.17 391.52,-12.76 62.14,-9.26 72.3,-3.66 127.79,-24.14l280.41 -88.25c47.17,-17.99 85.71,-48.54 132.03,-69.9 59.27,-27.31 77.43,-39.1 132.27,-77.85 37.54,-26.54 68.68,-46.15 98.11,-81.16l19.81 -15.33c33.1,-20.08 60.04,-46.97 86.71,-73.64l49.61 -39.59c13.53,-14.77 10.03,-18.14 21.11,-29.67 5.19,-5.39 18.17,-14.51 26.81,-23.78l109.03 -127.56c2.77,-5.25 4.56,-11.74 7.59,-18.64l43.35 -53.81c15.37,-12.01 0.93,2.56 14.6,-11.96l18.85 -35.17c8.66,-26.48 14.97,-22.5 27.24,-48.15l58.49 -98.36c23.05,-31.23 16.19,-36.04 32.46,-70.06 12.63,-26.4 13.15,-58.19 25.08,-76.55 17.75,-27.3 13.54,-57.74 28.77,-77.97 21.92,-29.11 7.09,14.79 17.76,-34.82 4.63,-21.55 1.05,-17.72 11.42,-38.31l30.5 -123.2c11.13,-45.58 7.88,-100.04 15.26,-144.26 10.2,-61.08 19.59,-117.12 19.65,-184.1 0.11,-119.39 -17.18,-135 -18.96,-190.04 -4.96,-152.32 -16.14,-107.86 -27.18,-183.84l-27.78 -73.93c-1.98,-4.67 -17.48,-129.34 -42.03,-169.34 -18.79,-30.63 -29.98,-74.91 -45.4,-106.64l-93.67 -166.77c-14.29,-21 -18.51,-41.95 -37.12,-65.05 -11.9,-14.75 -11.35,-10.39 -22.15,-27.78l-161.8 -200.59c-37.56,-36.71 -72.01,-69.53 -106.22,-103.41l-98.19 -79.63c-58.68,-53.04 -139,-90.16 -206.85,-129.12 -18.05,-10.37 -8.74,-6.92 -33.14,-17.38 -22.26,-9.55 -19.16,-11.83 -33.28,-17.82 -16.92,-7.18 -22.22,-3.68 -39.56,-12 -14.48,-6.96 -8.33,-8.35 -33.77,-17.09 -61.42,-21.13 -121.77,-41.65 -180.81,-71.96 -36.97,-18.98 -90.02,-13.59 -131.15,-28.22 -36.21,-12.89 -59,-4.81 -97.02,-11.71 -18.97,-3.45 -61.24,-16.29 -80.08,-19.54 -64.98,-11.21 -240.95,-3.9 -309.32,-2.14 -38.89,1.01 -134.46,21.34 -177.54,29.39 -37.53,7.01 -29.65,18.84 -76.6,23.29 -72.18,6.83 -25.63,23.47 -77.16,29.1 -21.66,2.37 -28.25,-2.56 -48,6.65 -18.3,8.53 -6.18,13.82 -28.91,18.7 -22.01,4.74 -25.35,-2.48 -46.7,6.71 -36.81,15.86 8.56,8.25 -30.54,18.46 -19.25,5.04 -24.6,0.19 -44.75,7.84 -21.26,8.07 -8.6,8.68 -33.52,17.12 -21.44,7.25 -20.25,2.48 -39.04,12.91l-36.06 20.68c-27.68,15.39 -21.77,18.65 -45.29,29.89 -11.95,5.71 -8.73,4.39 -17.11,8.91 -11.04,5.96 -20.82,9.83 -33.13,18.18 -18.37,12.47 -10.46,8.33 -30.46,19.37l-107.41 71.49c-8.26,6.57 -9.25,6.14 -18.43,13.23l-81.43 77.97c-0.92,0.93 -2.16,2.4 -3.07,3.3 -15.8,15.87 -35.58,21.64 -51.17,37.85 -26.34,27.38 -60.16,48.11 -76.6,83.81 -14.47,31.42 1.55,10.62 -19.94,28l-14.25 11.36c-25.19,20.43 -39.68,40.34 -58.98,69.57l-52.14 73.68c-0.89,1.08 -2.23,2.38 -3.1,3.5l-29.17 48.02c-26.53,42.71 -34.62,34.5 -59.22,94.15l-27.2 48.34c-11.27,24.9 -16.27,19.88 -26.46,49.9l-37.27 68.84c-22.42,35.37 -10.69,42.99 -26.41,75.43l-45.9 158.13c-5.79,38.91 -13.96,51.29 -20.28,88.28 -5.52,32.33 -5.98,57.22 -11.5,89.48 -20.24,118.36 -21.07,157.61 -20.44,289.64 0.39,81.64 17.12,111.43 23.91,184.37 7.76,83.33 26.46,133.01 28.95,187.07z"/>
  <path class="fil3" d="M882.44 6198.37l-5.15 337.32c3.92,-1.56 5.51,-6.43 6.1,-5.39l10 -21.68c15.07,-53.58 -0.9,-107.83 21,-167.48l8.27 -30.77c1.24,-10.9 1.15,-27.29 1.35,-38.65 1.38,-76.77 23.69,-120.1 30.58,-190.51 3.37,-34.39 10.54,-28.52 18.95,-55 10.44,-32.94 7.61,-89.19 20.15,-127.12l31.94 -121.23c12.1,-68.06 11.4,-52.85 32.14,-111.41l30.53 -122.27c7.84,-28.66 11.14,-26.14 17.88,-52.72 13.73,-54.11 66.8,-231.53 93.94,-279.07 18.07,-31.67 10.74,-15.76 21.12,-54.44 7.28,-27.15 14.97,-29.99 22.31,-53.93 6.7,-21.82 5.8,-31.43 15.93,-54.69l62.56 -167.92c9.3,-30.46 12.79,-16.44 23.05,-46.12l75.22 -171.6c0.71,-1.15 1.74,-2.7 2.45,-3.86 0.7,-1.17 1.7,-2.74 2.4,-3.93l38.09 -76.23c16.99,-37.53 27.71,-70.08 52.7,-99.31l125.91 -243.11c7.12,-12.2 20.81,-29.76 30.81,-44.5 31.17,-45.89 50.06,-93.03 83.83,-138.34l32.37 -43.77c28.17,-38.48 51.02,-93.89 67.97,-116.45l271.07 -363.28c24.78,-25.9 52.99,-50.29 71.19,-80.81 8.66,-14.49 5.6,-10.88 14.71,-23.92l32.46 -43.66c7.18,-8.57 11.24,-14.06 17.11,-21.5l186.84 -213.8c32.96,-45.9 75.51,-79.12 113.44,-120.69l104.3 -103.97c0.93,-0.81 2.36,-1.99 3.31,-2.79l137.44 -130.14c0.9,-0.85 2.28,-2.1 3.2,-2.94l281.36 -237.67c13.17,-7.65 13.22,-4.04 27.39,-10.73l212.14 -157.46c8.66,-5.92 11.6,-11.41 20.85,-17.07 20.72,-12.71 24.14,-6.97 42.03,-21.21l35.01 -22.81c1.1,-0.77 2.55,-1.93 3.64,-2.71l95.83 -63.09c14.68,-10.43 24.6,-23.33 41.14,-34.57l164.82 -96.25c16.38,-8.45 8.63,-6.01 22.16,-15.37l141.72 -80.83c11.76,-6.15 18.69,-6.18 28.3,-10.32 22.77,-9.8 24.03,-18.42 45.97,-29.73l50.18 -26.02c15.62,-7.31 11.73,-6.96 24.65,-13.45l197.77 -100.3c23.14,-13.43 32.06,-9.78 50.33,-19.88l254.36 -119.04c21.78,-8.71 31.92,-8.76 54.73,-21.4 29.86,-16.56 31.44,-6.68 62.92,-14.68 30.97,-7.87 73.99,-31.54 101.58,-43.74l116.93 -35.75c19.31,-5.99 31.69,-15.44 48.03,-21.07l121.43 -32.27c35.04,-9.46 11.95,-17.76 52.77,-22.36 35.95,-4.05 35.21,3.44 64.5,-12.07 36.71,-19.45 19.41,-7.47 61.22,-15.85 21.99,-4.4 22.97,-14.74 51.17,-23.09l147.57 -37.44c37.12,-21.06 18.51,-24.83 81.82,-25.71 25.49,-0.35 50.64,-9.54 66.45,-14.09 34.63,-9.98 89.68,-8.7 130.21,-15.81 104.02,-18.23 217.71,-43.16 324.11,-49.61 38.25,-2.32 38.67,-7.3 65.12,-11.95 84.89,-14.94 196.82,-0.78 277.04,-22.21 93.64,-25.01 457.35,-11.89 584.84,-11.24 94.56,0.49 183.96,17.71 279.2,19.42 98.96,1.77 184.95,11.51 271.18,26.77 42.94,7.6 87.35,6.71 134.39,12.15 24.11,2.79 33.56,9.9 61.06,14.77 19.17,3.4 44.85,3.19 68.26,7.58 46.14,8.64 71.25,19.48 125.16,22.48 26.55,1.49 40.05,5.26 60.03,13.69l305.51 69.61c19.22,5.12 27.35,13.74 49.92,19.42 26.14,6.59 41.91,1.24 64.46,11.57l59.04 18.27c23.86,4.94 32.68,16.15 52.1,22.43 19.74,6.36 40.95,5.31 59.27,11.31 13.48,4.43 38.8,16.93 60.75,18.42 45.73,3.1 25.07,-3.14 56.48,16 31.44,19.17 37.43,2.82 62.14,15.13 25.46,12.69 18.78,15.53 51.43,21.52 21.01,3.85 77.09,39.55 103.47,46.82 29.32,8.08 36.03,0.2 60.57,13.97l51.42 20.03c15.69,6.95 8.81,7.68 22.19,14.55 3.05,1.56 2.56,1.95 14.86,5.81l102.73 41.33c1.16,0.68 2.6,1.82 3.78,2.52l22.71 11.03c1.69,0.59 3.5,0.86 5.16,1.42 5.17,1.75 12.81,4.16 13.56,4.52l26.8 17.44c42.11,15.88 -25.25,-6.27 11.2,2.99 31.8,8.07 30.35,14.9 51.26,23.74 6.53,2.76 8.91,2.37 15.32,4.61 25.62,8.96 16.02,11.2 35.19,20.4l140.76 62.15c15.61,8.31 22.89,25.71 70.72,44.61 5.6,2.22 21.18,6.47 27.46,9.73l23.22 15.41c1.7,0.78 3.4,1.35 5.17,2.02l246.27 150.86c29.4,21.13 106.06,69.91 141.57,83.19 36.13,13.5 23.84,17.05 50.64,30.91l41.14 27.31c66.66,53.89 -10.39,-2.4 68.1,47.01l8.31 5.02c72.61,42.06 42.83,32.78 93.95,75.54l128.62 94.03c12.69,9.03 28.23,21.74 42.28,33.52l129.27 94.34c12.4,8.33 8.58,5.92 21.36,15.89 17.58,13.71 5.44,2.5 19.38,17.42l163.57 147.53c35.9,44.35 87.49,82.35 121.67,126.64l60.54 53.9c56.22,46.2 103.9,105.83 152.85,157.85l28.48 28.37c13.96,15.86 23.57,25.22 35.76,40.57 12.92,16.28 21.27,25.19 35.52,40.86 14.3,15.73 25.43,22.64 37.5,38.24 11.84,15.3 15.1,28.37 27.99,42.24l69.81 82.75c11.06,14.44 22.03,27.25 34.16,41.79l75.72 89.61c22.61,22.97 23.57,36.4 56.62,76.55l170.41 235.96c6.23,10 8.14,17.68 13.18,24.97 10.64,15.36 4.66,3.95 18.25,19.25l132.48 211.51c16.39,29.09 7.61,0.43 43.33,56.67 48.18,75.85 74.7,156.13 106.77,205.11 0.74,1.14 1.85,2.65 2.59,3.82 2.82,4.47 4.59,8.03 6.96,12.28 9.71,17.45 12.07,19.93 22.54,34.12l36.35 71.52c27.29,65.89 64.02,119.85 95.18,183.61 7.47,15.27 8.36,29.59 14.89,42.82 13.43,27.21 8.41,2.14 19.5,29.75l19.96 38.59c4.92,6.65 5.37,7.43 9.36,14.92l26.3 61.15c11.02,28.4 10.73,12.97 19.69,32.08 6.36,13.54 4.74,28.13 12.26,45.01 9.3,20.86 12.89,8.15 18.33,36.51 12.35,64.3 7.23,27.38 20.83,64.03l34.49 105.18c11.1,33.21 15.12,22.54 20.33,36.32 4.74,12.52 3.71,33.96 8.5,49.79 7.64,25.21 11.43,16.81 17.99,38.58 5.31,17.65 2.75,34.55 6.57,52.37 5.92,27.63 11.14,16.43 17.11,40.15 4.74,18.82 6.44,46.39 15.59,60.02 15.09,22.47 32,79.4 37.31,109.96 10.82,62.23 12.86,43.92 23.85,83.44 10.73,38.62 13.25,53.99 25.26,88.1 10.16,28.82 5.2,63.16 15.83,93.31 31.78,90.13 46.09,176.64 65.69,277.01 6.31,32.36 1.27,74.65 8.28,100.14 7.6,27.64 6.7,8.09 14.92,41.5 2.85,11.57 5.45,32.48 7.55,50.04 3.72,31.04 5.22,66.35 10.94,96.07 3.48,18.06 7.65,-12.08 13.14,91.05 1.76,33.19 5.4,63.05 5.94,101.83 0.22,16.6 -2.09,38.01 3.04,53.21 0.44,1.28 1.27,2.86 1.8,4.06 8.35,18.95 11.79,7.99 15.22,37.27 7.63,64.88 -6.45,138.36 15.47,204.92 0.28,-51.96 3.88,-100.94 2.25,-153.56 -1.76,-56.99 -9.76,-105.58 -11.61,-152.04 -4.21,-106.02 -4.5,-218.86 -11.8,-324.21 -4.12,-59.58 -19.01,-83.7 -22.06,-140.08l-19.91 -151.72c-10.86,-43.24 -2.86,-110.11 -18.23,-147.3 -24.9,-60.23 -5.61,-92.08 -24.37,-148.89 -15.97,-48.32 -20.79,-113.47 -30.17,-135.22 -18.12,-41.99 -12.78,-98.03 -28.89,-136.17 -10.62,-25.12 -9.07,-38.92 -15.28,-69.28 -6.07,-29.7 -16.98,-24.39 -23.08,-56.42 -11.84,-62.24 -20.75,-63.66 -25.9,-104.93l-18.85 -60.29c-0.71,-1.59 -1.45,-3.17 -2.08,-4.88l-6.87 -33.53c-26.41,-178.38 -32.49,-79.91 -59.26,-193.89 -13.03,-55.5 -38.99,-131.34 -64.44,-180.89 -10.03,-19.52 -14.56,-48.38 -19.35,-72.25 -7.74,-12.66 -5.16,-19.82 -11.72,-34.16 -9.31,-20.38 -12.07,-11.69 -19.89,-36.23 -5.46,-17.11 -3.96,-25.67 -10.28,-41.51 -5.3,-13.33 -10.4,-20.55 -18.47,-38.81 -5.98,-13.52 -13.23,-24.58 -17.54,-32.82 -11.68,-22.32 -5.28,-21.19 -13.33,-44.37l-144.32 -286.92c-8.99,-16.45 -8.12,-25.92 -15.91,-41.61 -13.8,-27.76 -5.76,3.1 -17.32,-41.33l-53.74 -105.59c-10.13,-24.84 -9.02,-15.92 -24.16,-37.26l-38.84 -62.92c-29.94,-39.69 -53.07,-107.68 -78.96,-136.71 -22.16,-24.87 -36.21,-55.87 -52.03,-81.74l-42.15 -66.39c-16.15,-28.37 -23.1,-28 -25.01,-68.87 -42.8,-5.82 -19.62,-23.89 -64.9,-75.04 -1.22,-1.36 -5.1,-5.08 -6.32,-6.51 -18.72,-22.05 -36.93,-59.98 -56.65,-75.53 -37.07,-29.24 -24.07,-34.92 -49.77,-58.67l-145.57 -185.02c-10.51,-13.33 -18.61,-29.21 -28.94,-41.1l-172.33 -195.21c-60.29,-53.58 -123.72,-122.96 -179.14,-183.33 -33.1,-36.04 -73.04,-81.86 -110.87,-111.18 -98.52,-76.36 -170.69,-169.75 -266.36,-247.52l-83.5 -62.86c-8.51,-7.41 -11.19,-9.95 -20.4,-17.61l-145.05 -109.54c-17.65,-11.4 -25.54,-22.22 -40.6,-34.95 -40.3,-34.05 -85.64,-55.81 -125.15,-90.72 -18.71,-16.54 -19.96,-19.6 -44.84,-31.7 -39.84,-19.36 -73.97,-58.66 -130.89,-85.48 -17.69,-8.33 -30.36,-18.83 -45.39,-30.03l-42.59 -27.14c-22.81,-16.99 -45.99,-18.73 -102.33,-62.4l-78.47 -48.78c-16.75,-13.61 -28.67,-16.97 -47.21,-28.94l-91.83 -54.04c-14.41,-10.4 -28.29,-15.07 -44.4,-25.48 -22.85,-14.76 -102.96,-44.96 -149.07,-73.2l-141.34 -73.31c-26.52,-7.79 -7.28,1.21 -28.15,-11.04 -34.26,-20.12 -68.23,-29.2 -104.59,-47.39 -57.73,-28.86 -39.46,-11.02 -87.32,-39.88 -28.23,-17.01 -62.96,-24.02 -92.41,-34.33 -26.09,-9.13 -22.15,-17.6 -49.95,-24.73 -15.68,-4.03 -10.35,0.28 -26.23,-7.03 -9.93,-4.59 -8.69,-8.06 -22.77,-14.62 -12.58,-5.87 -16.68,-4.71 -29.15,-8.08 -18.27,-4.93 -17.15,-5.72 -28.45,-10.69 -25.01,-11.01 -30.49,-7.51 -55.06,-15.15 -23.67,-7.37 -18.75,-14.82 -53.26,-22.15l-113.23 -33.55c-33.18,-11.68 -73.27,-26.21 -109.23,-36.96 -25.75,-7.69 -33.32,-5.79 -61.21,-10.11 -23.39,-3.62 -31.03,-14.14 -53.99,-21.18l-233.26 -58.38c-41.22,-7.38 -77.42,-19.08 -116.88,-28.1 -48,-10.98 -73.05,-21.64 -123.78,-23.43 -63.01,-2.22 -71.67,-16.36 -122.82,-23.41 -21.54,-2.97 -44.64,-1.05 -63.45,-6.79 -27.6,-8.43 -23.09,-10.25 -59.41,-15.64 -39.73,-5.91 -94.63,-5 -141.68,-7.36 -44.07,-2.21 -80.93,-13.98 -124.14,-20.87l-269.55 -26.61c-189.29,-7.46 -386.65,-5.83 -577.46,-5.31 -71.57,0.2 -415.92,28.82 -471.93,41 -67.23,14.62 -125.84,15.43 -192.96,28.25 -29.41,5.61 -105.11,10.46 -129.09,17.8l-245.76 47.02c-42.87,6.07 -123.14,44.19 -161.49,50.68 -50.6,8.56 -143.78,26.72 -186.18,44.37 -25.53,10.62 -31.4,5.78 -57.18,12.9 -20.79,5.74 -27.65,15.85 -52.49,22.29l-56.57 14.34c-23.49,11.4 -35.6,8.61 -56.6,19.74 -62.94,33.35 -123.31,34.69 -167.1,49.3l-151.56 69.46c-38.68,18.11 -95.3,26.7 -129.37,48.91l-354.81 159.71c-31.71,16.7 -34.75,22.66 -73.02,35.3 -27.03,8.92 -65.26,37.78 -94.99,50.78l-929.25 613.62c-12.29,9.31 -18.88,24.87 -31.59,37.71l-88.44 64.76c-18.04,12.41 -22.83,24.77 -37.63,37.76 -7.03,6.18 -30.83,22.7 -42.36,29.13 -23.99,13.36 -16.58,9.01 -31.54,29.07l-72.78 87.14c-0.91,0.9 -2.29,2.16 -3.21,3.07l-168.45 168.76c-15.33,19.55 -30.38,25.72 -49.72,44.74l-68.11 77.67c-30.56,30.38 -33.79,23.16 -74.46,71.8 -14.44,17.27 -23.57,24.31 -36.15,40.02 -46.07,57.52 -120.69,129.82 -167.32,200.99 -13.53,20.64 -13.82,22.14 -30,39.35l-23.45 28.1c-0.77,1.15 -1.67,2.8 -2.43,3.95 -7.39,11.11 1.22,-0.14 -7.5,11.28l-297.65 444.61c-0.83,0.94 -2.31,2.14 -3.16,3.11 -0.88,1.01 -2.27,2.34 -3.16,3.39 -0.9,1.09 -2.12,2.59 -3,3.71 -0.89,1.13 -1.94,2.75 -2.8,3.9l-23.13 26.05c-29.32,29.48 -41.18,69.91 -64.34,102.22l-43.9 63.49c-21.72,38.26 -38.04,83.42 -63.56,121.06l-40.98 66.6c-5.57,10.8 -5.47,15.58 -11.04,27.41 -7.05,15 -7.15,10.69 -14.07,23.98 -19.89,38.22 -28.28,59.72 -51.13,94.24l-116.29 252.35c-13.55,41.62 -20.08,41.47 -33.13,74.45 -5.18,13.11 -7.12,12.39 -11.91,26.97l-103.12 264.33c-15.52,29.52 -32.37,125.25 -54.15,161.59 -11.96,19.96 -10.87,33.83 -21.37,54.6 -15.38,30.44 -9.38,11.65 -14.71,55.78 -4.35,36 -11.65,28.9 -20.27,55.29 -6.34,19.39 -6.85,43.52 -12.31,64.61 -8.49,32.78 -18.86,82.22 -33.24,112.59 -14.09,29.79 -7.84,28.13 -13.25,64.32 -3.66,24.49 -10.65,31.36 -16.93,51.93 -5.81,19.09 -7.73,42.01 -12.91,62.68 -1.23,4.85 -4.59,19.36 -6.4,25.32l-68.27 338.09c-4.58,65.39 -4.14,73.45 -18.26,128.61 -11.07,43.23 -7.6,89.51 -9.74,138.46 -2.38,54.55 -32.76,73.39 -15.97,129.31z"/>
  <path class="fil4" d="M9550.73 9672.01c-3.61,12.37 -2.29,6.79 -9.88,14.74l-9.75 9.01c-0.96,0.94 -2.32,2.29 -3.28,3.24 -7.83,7.76 -9.25,9.44 -15.94,15.93l-38.11 45.32c-28.59,37.96 26.13,-16.61 -11.89,11.82l-315.04 238.04c-1.54,1.08 -5.75,4.44 -7.22,5.55 -26.69,20.27 -49.84,26.45 -70.74,51.19 -21.05,24.91 -23.65,9.88 -44.33,24.01 -1.3,0.89 -2.57,2.27 -3.75,3.23 -18.6,15.1 -24.42,12.8 -48.62,25.89 -18.05,9.77 -7.33,11.51 -30.97,18.34 -10.32,2.97 -15.74,1.97 -27.03,5.88l-122.44 62.81c-35.84,20.05 -83.22,24.33 -120.7,45.15 -32.06,17.8 -26.12,3.92 -75.79,31.72l-118.04 41.38c-69.09,31.59 -260.96,92.42 -339.1,100.16 -49.85,4.95 -42.85,16.7 -83.97,23.44 -46.14,7.57 -50.71,-2.11 -89.36,17.42 -40.01,20.21 -54.81,-1.88 -135.84,29.37 -43.74,16.86 -97.92,-3.88 -186.73,28.98 -40.72,15.05 -95.33,6.02 -140.5,18.06 -78.82,21 -417.25,38.63 -499.84,39.49 -146.04,1.52 -291.98,0.92 -438.01,0.18 -145.09,-0.72 -267.24,-16.84 -412.77,-21.73 -65.5,-2.2 -131.49,-17.7 -190.39,-24.27 -32.35,-3.61 -64.14,-4.88 -97.7,-9.82 -41.79,-6.16 -49.77,-12.89 -91.74,-17.07 -68.14,-6.78 -245.65,-52.47 -267.4,-54.87 -56.54,-6.28 -279.25,-69.18 -341.15,-89.82 -18.25,-6.09 -20.43,-10.57 -39.67,-17.1 -67.27,-22.84 -130.03,-40.98 -194.24,-72.4 -19.64,-9.61 -24.69,-6.27 -43.46,-13.7 -22.05,-8.71 -13.37,-11.1 -32.24,-18.06l-82.3 -27.69c-44.58,-12.85 -69.17,-39.16 -114.99,-51.44 -29.77,-7.98 -20.13,-10.01 -41.14,-21.12l-13.63 -6.01c-19.09,-9.13 -4.5,-0.86 -15.51,-8.68 -17.08,-12.14 -6.06,-8.17 -30.55,-20.41l-36.76 -20.57c-23.86,-12 -13.3,-5.9 -32.64,-17.89 -15.33,-9.5 -21.13,-7.6 -36.34,-20.18l-19.19 -18.48c-1.46,-1.19 -5.97,-4.4 -7.5,-5.52 -26.92,-19.75 -170.42,-127.34 -188.21,-128.98l-35.7 -21.87c-24.7,-24.56 4.28,-3.57 -26.1,-23.17 -9.13,-5.88 -4.4,-1.82 -15.48,-10.57l-71.59 -62.34c-0.89,-0.85 -2.29,-2.08 -3.21,-2.91 -0.92,-0.83 -2.44,-1.94 -3.39,-2.76 -0.98,-0.83 -2.54,-1.9 -3.54,-2.73l-46.76 -49.46c-0.89,-0.95 -2.25,-2.24 -3.14,-3.16l-31.8 -31.21c-48.21,-48.33 -134.67,-150.08 -166.47,-206.82l-12.9 -21.29c-13.08,41.4 -4.99,248.54 -5.16,311.36 -0.26,94.95 0.25,62.09 34.72,123.31l66.39 99.52c29.66,43.22 81.95,74.35 116.03,117.61 10.96,13.91 10.27,10.34 18.84,19.6l47.04 55.1c4.86,4.4 1.53,0.57 9.81,8.99 16.59,16.87 23.4,26.3 42.89,40.03 34.86,24.54 51.99,52.31 88.24,76.76 11.08,7.47 11.73,6.74 22.75,15.32l263.64 174.88c52.36,26.79 100.25,62.28 155.55,85.29l141.92 61.86c1.77,0.9 1.01,1.77 13.98,6.46l48.25 14.35c48.85,24.07 56.9,20.19 68.34,26.56 1.05,0.58 2.47,1.79 3.49,2.43 1.06,0.67 2.44,1.94 3.49,2.64 45.4,30.15 87.07,38.56 142.99,40.23 11.79,32.52 5.29,18.13 36.04,29.16 46.81,16.78 121.58,29.75 122.62,30.26 29.51,14.31 -2.17,14.62 56.14,21.2 25.57,2.88 40.64,11.88 58.49,17.15 28.7,8.47 67.95,6.69 96.41,17.46 18.76,7.1 -10.26,1.45 24.72,12.92 17.92,5.87 45.72,7.75 62.94,12.85l126.9 25.55c47.08,4.37 57.14,15.99 132.76,20.92 52.51,3.43 71.49,20.09 133.59,21.16l151.13 8.66c0.41,0.22 1.94,1.22 2.47,1.49l37.7 12.24c71.37,13.82 148.86,12.89 221.43,13.53 98.07,0.86 180.25,18.36 291.93,18.52 103.77,0.15 207.54,0.81 311.31,-0.61l431.73 -30.49c22.71,-4.95 34.41,-14.23 57.83,-16.95 49.19,-5.7 107.36,-0.15 151.97,-7.27 36.67,-5.86 25.26,-10.56 57.78,-19.19 40.53,-10.77 102.28,0.38 151.16,-8.16 28.17,-4.93 27.64,-15 57.46,-18.32 24.54,-2.73 48.5,0.19 73.61,-4.9 24.34,-4.94 35.03,-13.21 59.59,-16.75 89.1,-12.81 51.22,-5.29 130.74,-28.29l122.72 -30.13c32.37,-5.5 37.4,-11.95 63.63,-19.54 3.1,-12.04 7.47,6.68 -2.21,-4.88 -7.84,-9.37 -5.03,3.03 -4.14,-2.81l141.42 -33.83c45.52,-17.48 70.17,-33.23 123.67,-47.45 56.01,-14.9 302.72,-127.02 348.55,-166.2 21.76,-18.6 28.94,-14.96 50.98,-30.61 63.03,-44.73 91.82,-35.8 190.29,-108.43l26.66 -17.95c9.76,-7.77 3.91,-4.26 9.8,-9.11l91.84 -61.06c53.55,-38.31 210.75,-188.52 252.35,-235.83l139.14 -184.98c21.36,-33.12 40.56,-44.15 40.91,-91.77 0.79,-111.04 4.53,-238.12 -1.83,-347.7 -23.67,6.21 -0.52,-7.09 -19.22,21.69l-102.77 137.88c-17.76,20.71 -26.01,42.19 -56.97,52.02z"/>
  <path class="fil4" d="M5202.25 4881.53c1.97,-35.86 -11.04,-5.08 -17.24,-57.08 -6.98,-58.53 -0.63,-14.83 -18.14,-50.77l-35.77 -104.59c-45.46,-36.72 -24.03,-102.18 -46.4,-137.24 -28.42,86.19 4.72,400.11 36.2,497.45 10.07,31.15 6.29,63.33 19,89.42 24,49.26 11.57,40.95 25.69,82.17 20.32,59.32 56.55,157.83 86.96,211.77 4.06,7.19 5.89,12.09 10.29,21.85 9.63,21.36 8.36,15.58 19.18,30.37 23.23,31.75 39,77.18 63.54,108.47 28.65,36.53 48.85,75.93 84.9,106.31l100.57 126.29c0.78,1.07 1.76,2.7 2.55,3.78l116.05 119.07c126.86,102.57 217.94,168.06 361.05,242.29l114.75 50.86c22.44,8.64 14.09,10.92 30.82,18.61l82.67 26.7c16.49,4.43 33.31,4.13 49.61,8.44 34.66,9.16 12.63,15.93 86.14,26.91 49.07,7.34 32.26,20.05 81.38,24.17 28.25,2.37 76.99,5.16 105.22,11.19 82.03,17.53 329.33,27.83 410.4,4.58 42.36,-12.14 98.52,-12.21 140.69,-23.76l124 -39.43c30.65,-9.44 55.66,-4.51 87.67,-21.78l80.06 -28.8c33.8,-10.34 128,-47.14 154.88,-66.9l66.09 -41.44c108.8,-65.56 211.64,-141.63 302.53,-230.56l68.41 -64.93c9.82,-11.25 13.17,-18.3 22.66,-27.93l52.72 -55.3c42.78,-52.27 83.27,-102.18 118.95,-160.19 8.55,-13.92 8.65,-18.85 18.21,-32.72l62 -109.9c7.2,-14.11 10.65,-20.81 17.29,-33.16 8.37,-15.59 9.47,-22.86 17.94,-39.13 25.96,-49.87 52.15,-130.05 65.21,-156.65 23.05,-46.93 33.36,-141.52 41.99,-175.44 12.21,-47.94 15.78,-39.6 20.72,-94.56 6,-66.84 26.4,-114.29 27.47,-191.49 0.57,-41.59 7.66,-151.48 -0.2,-190.74 -5.72,-28.64 6.5,-10.55 -11.75,-18.85 -5.12,66.66 -22.5,82.52 -30.74,144.69 -6.23,47.03 -19.38,42.99 -25.07,62.71 -3,10.42 -1.08,24.92 -4.5,39.96l-132.67 269.34c-0.79,1.09 -1.92,2.58 -2.7,3.68l-19.15 36.39c-6.14,13.76 -3.37,9.04 -9.36,17.86l-21.94 39.78c-9.7,24.52 -0.92,3.15 -8.56,17.78 -20.33,38.96 -53.59,52.68 -69.2,88.75 -0.6,1.4 -1.13,3.18 -1.74,4.61l-90.93 103.33c-16.04,11.65 -9.95,7.54 -22.06,20.37 -36.21,38.32 -24.96,54.23 -61.33,74.17 -38.94,21.34 -48.2,39.25 -78.16,72.11l-13.17 13.29c-6.83,6.26 -13.7,11.94 -24.17,20.27 -9,7.16 -21.07,15.77 -27.33,18.82 -17.71,8.6 -24.09,7.68 -35.65,24.27 -23.62,33.91 -58.29,44.5 -91.91,69.01 -52.13,37.97 -111.07,71.28 -170.27,97.59l-88.27 42.57c-25.15,17.2 -38.62,4.72 -67.93,22 -37.63,22.16 -30.28,8.35 -68.49,20.85 -26.49,8.67 -34.6,18.74 -66.01,22.58 -40.64,4.96 -42.67,10.53 -69.87,19.7 -25.56,8.61 -54.58,7.63 -82.3,10.27 -33.21,3.17 -47.07,11.33 -70.27,16.4 -74.97,16.39 -263.5,11.6 -349.09,8.23 -71.62,-2.81 -96.7,-4.68 -159.85,-22.45 -22.27,-6.27 -54.19,-3.9 -79.74,-8.53 -35.18,-6.37 -29.91,-16 -66.54,-21.57 -38.52,-5.86 -43.66,0.03 -72.84,-17.18 -30.7,-18.12 -46.8,-6.91 -70.21,-20.33 -21.74,-12.45 1.94,-7.13 -26.98,-16.45l-96.86 -36.67c-15.83,-9.31 -1.97,-6.41 -28.97,-16.1 -16.43,-5.89 -15.46,-2.99 -31.37,-12.48 -21.76,-12.99 2.67,-4.09 -31.21,-15.39 -34.71,-11.59 -96.64,-60.08 -138.6,-81.96 -47.83,-24.94 -153.3,-109.04 -200.66,-154.19l-214.63 -230.03c-13.65,-17.78 -30.8,-28.91 -40.47,-49.66l-168.4 -294.09c-12.33,-19.2 -22.12,-32.19 -16.79,-61.66z"/>
 </g>
</svg>
