<?xml version="1.0" encoding="utf-8"?>
<!-- Generator: Adobe Illustrator 26.0.2, SVG Export Plug-In . SVG Version: 6.00 Build 0)  -->
<svg version="1.1" id="Capa_1" xmlns="http://www.w3.org/2000/svg" xmlns:xlink="http://www.w3.org/1999/xlink" x="0px" y="0px"
	 viewBox="0 0 512 512" style="enable-background:new 0 0 512 512;" xml:space="preserve">
<style type="text/css">
	.st0{fill:#AEA9FE;}
</style>
<g>
	<path class="st0" d="M485.2,166.6h-62.8v-62.8c0-7.9-6.4-14.3-14.3-14.3h-62.8V26.8c0-7.9-6.4-14.3-14.3-14.3H26.8
		c-7.9,0-14.3,6.4-14.3,14.3v304.3c0,7.9,6.4,14.3,14.3,14.3h62.8v62.8c0,7.9,6.4,14.3,14.3,14.3h62.8v62.8
		c0,7.9,6.4,14.3,14.3,14.3h209.2c3.8,0,7.4-1.5,10.1-4.2l95.1-95.1c2.7-2.7,4.2-6.3,4.2-10.1V180.9
		C499.4,173,493.1,166.6,485.2,166.6z M89.6,103.8v213H41.1V41.1h275.8v48.5h-213C96,89.6,89.6,96,89.6,103.8z M166.6,180.9v213
		h-48.5V118.1h275.8v48.5h-213C173,166.6,166.6,173,166.6,180.9z M404.4,450.7v-46.4h46.4L404.4,450.7z M470.9,375.8h-80.8
		c-7.9,0-14.3,6.4-14.3,14.3v80.8H195.1V195.1h275.8V375.8z"/>
	<path class="st0" d="M237.9,252.2h190.2c7.9,0,14.3-6.4,14.3-14.3s-6.4-14.3-14.3-14.3H237.9c-7.9,0-14.3,6.4-14.3,14.3
		S230.1,252.2,237.9,252.2z"/>
	<path class="st0" d="M237.9,309.3h190.2c7.9,0,14.3-6.4,14.3-14.3c0-7.9-6.4-14.3-14.3-14.3H237.9c-7.9,0-14.3,6.4-14.3,14.3
		C223.7,302.9,230.1,309.3,237.9,309.3z"/>
	<path class="st0" d="M237.9,366.3H352c7.9,0,14.3-6.4,14.3-14.3c0-7.9-6.4-14.3-14.3-14.3H237.9c-7.9,0-14.3,6.4-14.3,14.3
		C223.7,359.9,230.1,366.3,237.9,366.3z"/>
	<path class="st0" d="M237.9,423.4H333c7.9,0,14.3-6.4,14.3-14.3s-6.4-14.3-14.3-14.3h-95.1c-7.9,0-14.3,6.4-14.3,14.3
		S230.1,423.4,237.9,423.4z"/>
</g>
</svg>
