<?xml version="1.0" encoding="utf-8"?>
<!-- Generator: Adobe Illustrator 26.0.2, SVG Export Plug-In . SVG Version: 6.00 Build 0)  -->
<svg version="1.1" id="Layer_1" xmlns="http://www.w3.org/2000/svg" xmlns:xlink="http://www.w3.org/1999/xlink" x="0px" y="0px"
	 viewBox="0 0 512 512" style="enable-background:new 0 0 512 512;" xml:space="preserve">
<style type="text/css">
	.st0{fill:#ffffff;}
	.st1{fill:none;stroke:#ffffff;stroke-width:26;stroke-miterlimit:10;}
</style>
<path class="st0" d="M393.2,313.4c-14.8-34.8-42.3-62.6-76.9-77.9c3.5-2.7,6.8-5.6,9.9-8.7c38.8-38.8,38.7-101.7,0-140.4
	s-101.7-38.7-140.4,0s-38.7,101.7,0,140.4c3.1,3.1,6.5,6.1,10,8.8c-34.7,15.6-62.3,43.7-77.2,78.7c-7.7,18.2-11.7,37.7-11.7,57.5
	v16.6c0,18.3,14.8,33.1,33.1,33.1h231.8c18.3,0,33.1-14.8,33.1-33.1v-17.1C405,351.4,401,331.7,393.2,313.4z M209.2,109.8
	c25.9-25.9,67.8-25.9,93.7,0c25.9,25.9,25.9,67.8,0,93.7c-25.9,25.9-67.8,25.9-93.7,0c-12.4-12.4-19.4-29.3-19.4-46.8
	C189.7,139,196.7,122.2,209.2,109.8z M371.9,388.4H140.1v-16.6c0-15.3,3.1-30.5,9.1-44.6c11.8-27.7,33.8-49.9,61.4-61.9
	c14.1-6.1,29.3-9.3,44.6-9.4c46.8-0.4,89.2,27.4,107.6,70.4c6,14.2,9.2,29.5,9.1,44.9L371.9,388.4z"/>
<circle class="st1" cx="256" cy="255.9" r="242.5"/>
</svg>
