<?xml version="1.0" encoding="utf-8"?>
<!-- Generator: Adobe Illustrator 26.0.2, SVG Export Plug-In . SVG Version: 6.00 Build 0)  -->
<svg version="1.1" id="Camada_1" xmlns="http://www.w3.org/2000/svg" xmlns:xlink="http://www.w3.org/1999/xlink" x="0px" y="0px"
	 viewBox="0 0 50 50" style="enable-background:new 0 0 50 50;" xml:space="preserve">
<style type="text/css">
	.st0{fill:#AEA9FE;}
</style>
<g>
	<path class="st0" d="M48.7,22.4c-0.1-1.3-1.2-2.2-2.5-2.2c-0.5,0-0.9-0.3-1-0.8c-0.5-1.7-1.1-3.3-2-4.8c-0.2-0.4-0.2-0.9,0.2-1.3
		c0.5-0.5,0.7-1.1,0.7-1.8c0-0.5-0.2-1.1-0.5-1.5c-0.5-0.6-1-1.2-1.5-1.7L41.7,8c-0.6-0.5-1.1-1-1.7-1.5c-1-0.8-2.4-0.7-3.3,0.2
		c-0.2,0.2-0.5,0.3-0.7,0.3c-0.2,0-0.4,0-0.5-0.1c-1.5-0.9-3.1-1.5-4.8-2c-0.5-0.1-0.8-0.5-0.8-1c0-0.6-0.2-1.2-0.6-1.7
		c-0.4-0.5-1-0.7-1.6-0.8c-1.7-0.2-3.5-0.2-5.2,0c-1.3,0.1-2.2,1.2-2.2,2.5c0,0.5-0.3,0.9-0.8,1c-1.7,0.5-3.3,1.1-4.8,2
		c-0.4,0.2-0.9,0.2-1.3-0.2c-0.5-0.5-1.1-0.7-1.8-0.7c-0.5,0-1.1,0.2-1.5,0.5C9.5,6.9,8.9,7.4,8.3,8L7.9,8.4
		c-0.5,0.5-1.1,1.1-1.5,1.7c-0.8,1-0.7,2.4,0.2,3.3c0.2,0.2,0.3,0.5,0.3,0.7c0,0.2,0,0.4-0.1,0.5c-0.9,1.5-1.5,3.1-2,4.8
		c-0.1,0.5-0.5,0.8-1,0.8c-0.6,0-1.2,0.2-1.7,0.6c-0.5,0.4-0.7,1-0.8,1.6c-0.2,1.7-0.2,3.5,0,5.2c0.1,1.3,1.2,2.2,2.5,2.2
		c0.5,0,0.9,0.3,1,0.8c0.5,1.7,1.1,3.3,2,4.8c0.2,0.4,0.2,0.9-0.2,1.3c-0.5,0.5-0.7,1.1-0.7,1.8c0,0.5,0.2,1.1,0.5,1.5
		c0.5,0.6,1,1.2,1.5,1.7l0.4,0.4c0.6,0.5,1.1,1,1.7,1.5c1,0.8,2.4,0.7,3.3-0.2c0.2-0.2,0.5-0.3,0.7-0.3c0.2,0,0.4,0,0.5,0.1
		c1.5,0.9,3.1,1.5,4.8,2c0.5,0.1,0.8,0.5,0.8,1c0,0.6,0.2,1.2,0.6,1.7c0.4,0.5,1,0.7,1.6,0.8c1.7,0.2,3.5,0.2,5.2,0
		c1.3-0.1,2.2-1.2,2.2-2.5c0-0.5,0.3-0.9,0.8-1c1.7-0.5,3.3-1.1,4.8-2c0.4-0.2,0.9-0.2,1.3,0.2c0.5,0.5,1.1,0.7,1.8,0.7
		c0.5,0,1.1-0.2,1.5-0.5c0.6-0.5,1.2-1,1.7-1.5l0.4-0.4c0.5-0.6,1-1.1,1.5-1.7c0.8-1,0.7-2.4-0.2-3.3c-0.2-0.2-0.3-0.5-0.3-0.7
		c0-0.2,0-0.4,0.1-0.5c0.9-1.5,1.5-3.1,2-4.8c0.1-0.5,0.5-0.8,1-0.8c0.6,0,1.2-0.2,1.7-0.6c0.5-0.4,0.7-1,0.8-1.6
		C48.9,25.9,48.9,24.1,48.7,22.4z M25,42.2c-9.5,0-17.2-7.7-17.2-17.2S15.5,7.8,25,7.8S42.2,15.5,42.2,25S34.5,42.2,25,42.2z"/>
	<path class="st0" d="M25,12.6c-6.9,0-12.4,5.6-12.4,12.4S18.1,37.4,25,37.4S37.4,31.9,37.4,25S31.9,12.6,25,12.6z M25,32.6
		c-4.2,0-7.6-3.4-7.6-7.6s3.4-7.6,7.6-7.6s7.6,3.4,7.6,7.6S29.2,32.6,25,32.6z"/>
</g>
</svg>
