<?xml version="1.0" encoding="utf-8"?>
<!-- Generator: Adobe Illustrator 26.0.2, SVG Export Plug-In . SVG Version: 6.00 Build 0)  -->
<svg version="1.1" id="Layer_1" xmlns="http://www.w3.org/2000/svg" xmlns:xlink="http://www.w3.org/1999/xlink" x="0px" y="0px"
	 viewBox="0 0 128 128" style="enable-background:new 0 0 128 128;" xml:space="preserve">
<style type="text/css">
	.st0{fill:#AEA9FE;}
</style>
<g>
	<path class="st0" d="M92.9,47.2H81.1c-0.9,0-1.7,0.8-1.7,1.7c0,0.9,0.8,1.7,1.7,1.7h11.8c0.9,0,1.7-0.8,1.7-1.7
		C94.6,47.9,93.9,47.2,92.9,47.2z"/>
	<path class="st0" d="M60.3,50.6h12.5c0.9,0,1.7-0.8,1.7-1.7c0-0.9-0.8-1.7-1.7-1.7H60.3c-0.9,0-1.7,0.8-1.7,1.7
		C58.6,49.8,59.4,50.6,60.3,50.6z"/>
	<path class="st0" d="M35.4,56.8h12.5c0.9,0,1.7-0.8,1.7-1.7V42.6c0-0.9-0.8-1.7-1.7-1.7H35.4c-0.9,0-1.7,0.8-1.7,1.7v12.5
		C33.6,56.1,34.4,56.8,35.4,56.8z M37.1,44.4h9.1v9.1h-9.1V44.4z"/>
	<path class="st0" d="M92.9,88.5H81.1c-0.9,0-1.7,0.8-1.7,1.7c0,0.9,0.8,1.7,1.7,1.7c0,0,0,0,0,0h11.8c0.9,0,1.7-0.8,1.7-1.7
		C94.6,89.2,93.9,88.5,92.9,88.5z"/>
	<path class="st0" d="M72.8,88.5H60.3c-0.9,0-1.7,0.8-1.7,1.7c0,0.9,0.8,1.7,1.7,1.7c0,0,0,0,0,0h12.5c0.9,0,1.7-0.8,1.7-1.7
		C74.5,89.2,73.8,88.5,72.8,88.5z"/>
	<path class="st0" d="M47.8,82.2H35.4c-0.9,0-1.7,0.8-1.7,1.7v12.5c0,0.9,0.8,1.7,1.7,1.7h12.5c0.9,0,1.7-0.8,1.7-1.7V83.9
		C49.6,83,48.8,82.2,47.8,82.2z M46.1,94.7h-9.1v-9.1h9.1V94.7z"/>
	<path class="st0" d="M81.1,71.2C81.1,71.2,81.1,71.2,81.1,71.2h11.8c0.9,0,1.7-0.8,1.7-1.7c0-0.9-0.8-1.7-1.7-1.7H81.1
		c-0.9,0-1.7,0.8-1.7,1.7C79.4,70.5,80.2,71.2,81.1,71.2z"/>
	<path class="st0" d="M72.8,67.8H60.3c-0.9,0-1.7,0.8-1.7,1.7c0,0.9,0.8,1.7,1.7,1.7h12.5c0.9,0,1.7-0.8,1.7-1.7
		S73.8,67.8,72.8,67.8z"/>
	<path class="st0" d="M49.3,64c-0.7-0.7-1.8-0.7-2.5,0l-7.4,7.4l-3.1-3.1c-0.7-0.7-1.8-0.7-2.5,0c-0.7,0.7-0.7,1.8,0,2.5l4.3,4.3
		c0.7,0.7,1.8,0.7,2.5,0l8.6-8.6C50,65.8,50,64.7,49.3,64L49.3,64z"/>
	<path class="st0" d="M100.4,13.4H85.5L84,4.9c-0.3-1.5-1.7-2.6-3.2-2.6H47.2c-1.5,0-2.9,1.1-3.2,2.6l-1.5,8.5H27.6
		c-7.1,0-12.9,5.8-12.9,12.9v86.4c0,7.1,5.8,12.9,12.9,12.9h72.7c7.1,0,12.9-5.8,12.9-12.9V26.3C113.3,19.2,107.5,13.4,100.4,13.4z
		 M63.9,4.9L63.9,4.9c1.6,0,3,1.3,3,3c0,1.6-1.3,3-3,3c-1.6,0-3-1.3-3-3C60.9,6.3,62.2,4.9,63.9,4.9z M105.1,112.7
		c0,2.6-2.1,4.7-4.7,4.7H27.6c-2.6,0-4.7-2.1-4.7-4.7V26.3c0-2.6,2.1-4.7,4.7-4.7H41l0,0h46l0,0h13.4c2.6,0,4.7,2.1,4.7,4.7V112.7z"
		/>
</g>
</svg>
