<?xml version="1.0" encoding="utf-8"?>
<!-- Generator: Adobe Illustrator 26.0.2, SVG Export Plug-In . SVG Version: 6.00 Build 0)  -->
<svg version="1.1" id="Layer_1" xmlns="http://www.w3.org/2000/svg" xmlns:xlink="http://www.w3.org/1999/xlink" x="0px" y="0px"
	 viewBox="0 0 128 128" style="enable-background:new 0 0 128 128;" xml:space="preserve">
<style type="text/css">
	.st0{fill:#AEA9FE;}
</style>
<g>
	<path class="st0" d="M54.2,84.1c2.6,5.9,5.8,11.4,9.8,16.5c3.9-5.1,7.2-10.7,9.8-16.5C67.3,83.8,60.7,83.8,54.2,84.1z"/>
	<path class="st0" d="M31.2,86.4c5.5,7.7,13.5,13.3,22.7,15.7c-3.7-5.4-6.8-11.2-9.2-17.4C40.2,85.2,35.7,85.7,31.2,86.4z"/>
	<path class="st0" d="M26.6,48.7c-3.7,9.4-3.7,19.8,0,29.2c5.2-0.9,10.4-1.6,15.4-2.1c-1.8-8.3-1.8-16.9,0-25.1
		C37,50.3,31.8,49.6,26.6,48.7z"/>
	<path class="st0" d="M51.2,75.2c4.2-0.2,8.5-0.4,12.7-0.4c4.3,0,8.5,0.1,12.8,0.4c1.9-7.8,1.9-16,0-23.8c-8.5,0.5-17,0.5-25.5,0
		C49.3,59.2,49.5,67.4,51.2,75.2z"/>
	<path class="st0" d="M101.4,77.9c3.7-9.4,3.7-19.8,0-29.2c-5.2,0.9-10.4,1.6-15.4,2c1.8,8.3,1.8,16.9,0,25.1
		C91,76.4,96.2,77.1,101.4,77.9z"/>
	<path class="st0" d="M74.1,24.5c3.7,5.4,6.8,11.2,9.2,17.4c4.5-0.4,9-1,13.5-1.6C91.3,32.5,83.3,26.9,74.1,24.5z"/>
	<path class="st0" d="M73.8,42.5C71.2,36.6,67.9,31.1,64,26c-3.9,5.1-7.2,10.7-9.8,16.5C60.7,42.8,67.3,42.8,73.8,42.5z"/>
	<path class="st0" d="M13.1,42.2c1.3,0.8,2.9,0.7,4.1-0.2c1.2-1,1.7-2.8,2.2-4.2l1.9-5H37l1.9,4.9c0.7,1.8,1.5,4.5,3.6,5
		c2.1,0.5,4.2-0.8,4.7-2.9c0-0.2,0.1-0.4,0.1-0.6c-0.2-1.4-0.6-2.9-1.2-4.2L35.9,9.9c-0.6-1.8-1.3-3.5-2.3-5
		c-1.5-2.1-4.2-2.2-6.6-1.3c-2.9,1-3.7,4.5-4.7,7.1c0,0-9.9,24.6-9.9,24.6C11.4,37.5,10.4,40.6,13.1,42.2z M29.1,11.5l5.9,15.4H23.3
		L29.1,11.5z"/>
	<path class="st0" d="M112.5,118.7c-4.8-0.5-8.9-2.5-12.3-4.1c4.1-4.8,7-10.5,8.5-16.6h3.5c1.7,0,3-1.4,3-3c0-1.7-1.4-3-3-3H92.1
		l0.3-3.8c0.1-1.7-1.1-3.1-2.7-3.3c-1.7-0.1-3.1,1.1-3.3,2.7L86,91.9h-6.9c-1.7,0-3,1.4-3,3c0,1.7,1.4,3,3,3h6.3l-1,10.6
		c-0.1,0.8,0.2,1.6,0.7,2.2c1.5,1.7,3.1,3.2,4.9,4.6c-3.8,2.4-8.1,3.8-12.6,4.1c-1.7,0.1-2.9,1.6-2.7,3.3c0.1,1.6,1.4,2.8,3,2.8
		c0.1,0,0.2,0,0.3,0c6.3-0.5,12.4-2.7,17.5-6.6c4.2,2.4,9.7,5.1,16.4,5.8c0.1,0,0.2,0,0.3,0c1.7,0,3-1.4,3-3
		C115.3,120.1,114.1,118.8,112.5,118.7z M94.9,111.4c-1.5-1.1-3-2.3-4.3-3.6l0.9-9.8h11C101.1,103,98.5,107.6,94.9,111.4z"/>
	<path class="st0" d="M64,5.3c-6.6,0-13.2,1.1-19.4,3.3l2.8,6.9c26.3-9.2,55.2,4.7,64.3,31.1c4.2,12,3.7,25.1-1.4,36.8h1.9
		c1.9,0,3.9,0.5,5.5,1.4c2.8-6.9,4.2-14.2,4.2-21.6C122,33.1,96,5.3,64,5.3z"/>
	<path class="st0" d="M13.4,64c0-4.1,0.5-8.2,1.5-12.1c-2.5,0-5-0.8-7.1-2.3c-8,31,10.7,62.6,41.7,70.6c4.7,1.2,9.5,1.8,14.4,1.8
		c0.8,0,1.6,0,2.4-0.1c0.2-2.2,1.1-4.4,2.6-6.1c0.5-0.7,1.2-1.2,1.8-1.7c-2.3,0.3-4.5,0.5-6.8,0.5C36.1,114.5,13.5,91.9,13.4,64z"/>
</g>
</svg>
