<?xml version="1.0" encoding="UTF-8"?>
<!DOCTYPE svg PUBLIC "-//W3C//DTD SVG 1.1//EN" "http://www.w3.org/Graphics/SVG/1.1/DTD/svg11.dtd">
<!-- Creator: CorelDRAW -->
<svg xmlns="http://www.w3.org/2000/svg" xml:space="preserve" width="135.467mm" height="135.467mm" version="1.1" style="shape-rendering:geometricPrecision; text-rendering:geometricPrecision; image-rendering:optimizeQuality; fill-rule:evenodd; clip-rule:evenodd"
viewBox="0 0 13546.68 13546.68"
 xmlns:xlink="http://www.w3.org/1999/xlink"
 xmlns:xodm="http://www.corel.com/coreldraw/odm/2003">
 <defs>
  <style type="text/css">
   <![CDATA[
    .fil10 {fill:none;fill-rule:nonzero}
    .fil6 {fill:black}
    .fil8 {fill:#111111}
    .fil2 {fill:black;fill-rule:nonzero}
    .fil1 {fill:#0061ED;fill-rule:nonzero}
    .fil5 {fill:#054491;fill-rule:nonzero}
    .fil3 {fill:#111111;fill-rule:nonzero}
    .fil4 {fill:#3B434F;fill-rule:nonzero}
    .fil7 {fill:#F7E4D4;fill-rule:nonzero}
    .fil9 {fill:#F7E4D4;fill-rule:nonzero}
    .fil0 {fill:url(#id1);fill-rule:nonzero}
   ]]>
  </style>
   <clipPath id="id0" style="clip-rule:nonzero">
    <path d="M-0 13546.68l13546.68 0 0 -13546.68 -13546.68 0 0 13546.68z"/>
   </clipPath>
  <radialGradient id="id1" gradientUnits="objectBoundingBox" cx="50%" cy="50%" r="50%" fx="50%" fy="50%">
   <stop offset="0" style="stop-opacity:1; stop-color:#FFAE00"/>
   <stop offset="1" style="stop-opacity:1; stop-color:#FF6E00"/>
  </radialGradient>
 </defs>
 <g id="Camada_x0020_1">
  <metadata id="CorelCorpID_0Corel-Layer"/>
  <polygon class="fil0" points="-0,13546.68 13546.68,13546.68 13546.68,0 -0,0 "/>
  <g style="clip-path:url(#id0)">
   <g id="_2196556423600">
    <g>
     <path id="_1" class="fil1" d="M2827.67 13654.09c0,0 -280.57,-2459.74 2135.58,-2734.86l1035.11 0 0 -476.69c0,0 727.3,313.25 1465.49,35.41l24.51 441.29 1209.44 -0.01c0,0 2105.62,209.75 1977.6,2734.86l-7847.74 0z"/>
     <path id="Rounded_Rectangle_13_copy" class="fil2" d="M10653.62 13697.67l0 0 -7752.4 0 0 0 -149.82 0 38.14 -640.13c73.55,-1250.3 1059.62,-2206.41 2187.33,-2206.41l858.05 0 0 128.02 -789.95 0.01c-1086.86,0 -2037.51,917.98 -2108.35,2124.69l-27.24 444 7719.72 0 -13.62 -444c-70.82,-1203.99 -1021.48,-2124.69 -2108.35,-2124.69l-1056.89 0 0 -128.02 1119.55 -0.01c1127.73,0 2113.8,956.11 2187.34,2206.41l38.13 640.13 -141.64 0z"/>
     <path id="neck_copy_5" class="fil3" d="M6115.49 10388.06l0 716.39c0,373.19 302.36,672.82 672.82,672.82 370.45,0 672.81,-302.36 672.81,-672.82l0 -702.78c38.14,-10.9 79,-24.52 117.13,-38.14l0 746.37c0,438.56 -356.83,795.39 -795.39,795.39 -438.56,0 -795.39,-354.1 -795.39,-795.38l0 -768.16c40.85,19.06 84.44,32.69 128.02,46.31z"/>
     <path id="Rounded_Rectangle_14" class="fil3" d="M5982.01 11769.11c40.86,0 76.27,32.68 76.27,76.26l0 1138.62c0,40.86 -32.69,76.27 -76.27,76.27 -40.86,0 -76.27,-32.69 -76.27,-76.27l0 -1138.62c0,-43.58 32.69,-76.26 76.27,-76.26z"/>
     <path id="Rounded_Rectangle_15" class="fil3" d="M7567.37 11755.49c43.58,0 81.72,35.41 81.72,81.72l0 708.23c0,43.58 -35.41,81.73 -81.72,81.73 -43.58,0 -81.72,-35.42 -81.72,-81.73l0 -708.23c0.01,-43.59 38.14,-81.72 81.72,-81.72z"/>
     <path id="Rounded_Rectangle_16" class="fil4" d="M5982.01 12975.82c21.8,0 40.86,19.06 40.86,40.86l0 291.46c0,21.79 -19.06,40.86 -40.86,40.86 -21.8,0 -40.86,-19.07 -40.86,-40.86l0 -291.46c0.01,-21.79 16.35,-40.86 40.86,-40.86z"/>
     <path id="Rounded_Rectangle_16_copy" class="fil4" d="M7572.82 12545.43c21.79,0 40.86,19.07 40.86,40.86l0 291.46c0,21.8 -19.07,40.87 -40.86,40.87 -21.8,0 -40.87,-19.07 -40.87,-40.87l0 -291.46c0,-21.79 19.08,-40.86 40.87,-40.86z"/>
     <path id="Shape_1_copy" class="fil5" d="M5546.18 10102.04l-735.47 168.89c0,0 -901.63,204.3 -302.37,811.74 599.27,607.44 2141.04,713.68 2141.04,713.68 0,0 -408.6,-193.4 -580.2,-465.8l-57.2 -975.18 -465.8 -253.33z"/>
     <path id="Shape_1_copy_2" class="fil6" d="M6673.9 11856.28c-46.3,57.2 -1329.29,19.06 -2220.02,-754.54 -645.57,-561.14 324.15,-882.57 324.15,-882.57l708.23 -163.44 615.62 313.26 49.02 942.49c258.78,405.87 596.54,452.18 523,544.8zm-640.13 -498.49l-70.82 -988.8 -373.18 -209.75 -708.23 174.33c0,0 -858.05,177.06 -313.26,686.44 588.38,550.24 1675.24,697.33 1789.64,686.44 119.86,-13.61 -65.37,57.21 -324.15,-348.66z"/>
     <path id="Shape_1_copy_4" class="fil5" d="M8033.17 10132l735.47 168.89c0,0 901.63,204.3 302.37,814.46 -599.27,610.17 -2143.76,716.39 -2143.76,716.39 0,0 408.6,-193.39 580.2,-465.8l59.92 -980.6 465.8 -253.34z"/>
     <path id="Shape_1_copy_6" class="fil6" d="M6902.73 11878.06c46.31,57.2 1332.01,19.07 2220.02,-757.26 645.58,-561.13 -326.87,-885.29 -326.87,-885.29l-708.24 -163.44 -612.89 313.27 -46.3 945.21c-261.5,408.6 -599.27,454.89 -525.72,547.51zm640.13 -501.2l70.82 -991.52 373.18 -209.75 708.23 174.33c0,0 858.05,177.06 313.26,686.44 -588.38,552.96 -1677.96,700.06 -1789.64,686.44 -119.86,-8.18 65.36,62.64 324.15,-345.94z"/>
     <path id="_32_copy_5" class="fil7" d="M6837.35 3098.73c1446.43,0 2587.76,1351.08 2549.63,2974.56l-38.14 1724.27c-35.41,1528.14 -1157.68,2737.57 -2511.49,2737.57 -1353.81,0 -2476.08,-1209.43 -2511.49,-2737.57l-38.13 -1724.27c-38.15,-1623.47 1103.2,-2974.56 2549.62,-2974.56z"/>
     <path id="_32_line" class="fil8" d="M9504.11 6018.82l-40.86 1795.09c-38.14,1590.79 -1214.89,2849.26 -2631.34,2849.26 -1416.46,0 -2593.21,-1258.48 -2631.35,-2849.26l-40.87 -1795.09c-38.13,-1688.86 1157.69,-3094.42 2672.21,-3094.42 1514.51,0 2710.34,1405.56 2672.21,3094.42zm-2677.66 -2909.19c-1427.36,0 -2552.36,1340.19 -2514.21,2950.05l38.13 1710.65c35.42,1517.24 1144.07,2715.79 2476.08,2715.79 1332.01,0 2440.67,-1198.55 2476.08,-2715.79l38.13 -1710.65c38.14,-1609.86 -1089.58,-2950.05 -2514.21,-2950.05z"/>
     <path id="Shape_1" class="fil8" d="M9269.85 8829.96c-35.42,163.44 -484.87,1637.1 -403.14,999.69 81.72,-637.41 -784.5,580.2 -784.5,580.2 -160.71,163.44 -809.02,547.51 -809.02,547.51l0 -160.7 -476.69 193.39 -215.19 -193.39 -24.51 193.39c-62.65,-95.33 -1356.54,-967 -1356.54,-967 0,0 220.64,394.98 46.31,193.39 -5.45,-8.17 -13.62,-13.62 -19.07,-21.79 -177.06,-220.64 -457.63,-781.77 -457.63,-781.77l-46.3 386.8c-419.5,-817.19 -403.15,-1835.95 -403.15,-1835.95l-70.82 -2127.41 190.66 0.01 70.82 1517.24 310.54 514.83c198.85,291.46 738.19,160.71 738.19,160.71 1552.66,1078.69 2544.18,-65.38 2544.18,-65.38 0,0 672.82,149.82 879.84,65.38 207.01,-84.44 236.98,-2195.51 236.98,-2195.51l166.17 0c2.72,-5.45 -81.73,2835.64 -117.13,2996.36zm-1114.1 163.44c-35.42,-408.6 -283.3,-375.92 -283.3,-375.92 -444,128.03 -789.95,201.57 -1062.35,236.99l0 -2.73c-269.67,-35.41 -615.62,-106.23 -1056.89,-234.26 0,0 -247.88,-35.41 -280.57,373.19 0,0 -98.06,313.25 234.26,487.58l422.21 231.54c0,0 288.74,89.89 280.57,-256.05 0,0 -29.96,-49.04 141.64,-92.62l258.79 0 0 8.18 258.77 0c171.61,43.58 141.65,95.33 141.65,95.33 -8.18,348.67 283.29,258.77 283.29,258.77l424.94 -236.98c335.05,-174.32 236.99,-493.02 236.99,-493.02z"/>
     <path id="usta" class="fil2" d="M8087.64 8840.85c-212.47,182.5 -689.16,356.83 -1244.85,356.83 -555.69,0 -1032.38,-174.33 -1244.86,-356.83 0,0 -21.79,-59.93 10.9,-89.89 32.68,-32.69 81.72,-24.51 81.72,-24.51 209.75,182.5 596.55,335.05 1149.51,335.05 555.69,0 939.76,-152.55 1149.51,-335.05 0,0 51.75,-19.07 76.27,5.45 54.49,46.3 21.8,108.95 21.8,108.95z"/>
     <polygon id="_2D" class="fil3" points="6458.71,9478.25 7202.36,9478.25 7202.36,9595.38 6458.71,9595.39 "/>
     <path id="Shape_11_copy" class="fil9" d="M4156.97 6280.32c0,0 -27.25,-21.79 -81.73,-38.13 -27.24,-8.18 -59.93,-16.35 -98.06,-16.35 -8.18,0 -19.07,0 -29.96,0 -10.89,0 -19.07,0 -29.96,2.73 -21.79,2.72 -40.86,5.44 -62.65,13.62 -87.17,24.51 -174.33,84.44 -226.08,209.74 -24.51,62.65 -43.58,138.93 -46.31,236.99 0,24.51 -2.73,49.04 0,76.27 0,27.24 2.73,54.48 2.73,84.44 5.45,59.93 13.62,122.58 24.51,193.4 0,0 -10.89,212.47 65.38,454.89 70.82,236.99 242.43,531.18 558.41,612.89 -38.15,-607.43 -38.15,-1223.05 -76.28,-1830.49l0 0z"/>
     <path id="Shape_4" class="fil2" d="M4012.59 7443.46c0,0 -29.95,24.51 -57.2,24.51 -27.24,0 -57.2,-24.51 -57.2,-24.51l-57.2 -572.04c0,0 79,-280.56 411.32,-133.47l8.17 163.43c0,0 -291.46,-103.51 -286.01,24.52 5.44,125.31 38.12,517.56 38.12,517.56z"/>
     <path id="Shape_11_copy5F1" class="fil9" d="M9495.93 6283.04c0,0 29.96,-21.8 81.73,-38.13 27.24,-8.18 59.93,-16.35 98.06,-16.35 8.17,0 19.07,0 29.96,0 10.89,0 19.07,0 29.96,2.72 21.79,2.73 40.86,5.45 62.65,13.63 87.17,24.51 174.33,84.44 226.08,207.01 27.24,62.65 43.58,138.93 46.31,236.99 0,24.51 2.73,49.04 0,76.27 0,27.24 -2.73,54.48 -2.73,84.44 -5.45,59.93 -13.62,122.57 -24.51,193.4 0,0 10.89,212.47 -65.38,454.89 -70.82,236.99 -242.43,528.45 -561.13,612.89 40.87,-607.42 40.87,-1223.04 79,-1827.76l0 0z"/>
     <path id="Shape_35F1" class="fil2" d="M9460.52 6307.55c0,0 552.96,-168.88 533.89,394.98 0,0 -81.72,819.92 -117.13,893.46 0,0 -217.92,476.69 -574.75,498.48 -348.67,21.8 0,0 0,0l-5.45 152.55c0,0 629.24,-79 749.08,-800.85l95.34 -653.75c0,0 73.55,-866.23 -648.3,-645.58 -702.79,215.19 0,0 0,0l-32.68 160.71z"/>
     <path id="Shape_45F1" class="fil2" d="M9643.03 7443.46c0,0 29.96,24.51 57.2,24.51 27.24,0 57.2,-24.51 57.2,-24.51l57.2 -572.04c0,0 -78.99,-280.56 -411.31,-133.47l-8.18 163.43c0,0 291.46,-103.51 286.02,24.52 -5.44,125.31 -38.13,517.56 -38.13,517.56z"/>
     <path id="new_vector_shape_done" class="fil6" d="M7047.1 7397.15c13.62,0 27.24,0 40.86,0 84.44,114.41 117.13,288.74 163.44,441.29 13.62,46.31 0,130.75 -10.9,163.44 -43.57,122.57 -182.5,119.85 -296.91,174.33 -29.96,13.62 -54.48,40.86 -92.62,46.31 -24.51,-21.8 -57.2,-27.25 -70.82,-62.65 -32.69,-43.58 8.18,-70.82 40.86,-87.17 57.2,-29.96 234.26,-59.93 256.06,-117.13 27.24,-29.96 8.17,-119.86 0,-149.82 -21.8,-81.72 -32.69,-147.1 -62.65,-220.64 -19.07,-49.03 -57.2,-98.06 -35.42,-157.99 16.34,-8.18 54.48,-16.35 68.1,-29.97z"/>
     <path id="Rounded_Rectangle_8" class="fil2" d="M5437.22 6503.68l163.44 0c89.89,0 163.44,73.55 163.44,163.43 0,89.89 -73.55,163.44 -163.44,163.44l-163.44 0c-89.88,0 -163.43,-73.55 -163.43,-163.44 0,-89.88 73.55,-163.43 163.43,-163.43z"/>
     <path id="Rounded_Rectangle_8_copy" class="fil2" d="M8087.64 6503.68l163.44 0c89.89,0 163.44,73.55 163.44,163.43 0,89.89 -73.55,163.44 -163.44,163.44l-163.44 0c-89.89,0 -163.44,-73.55 -163.44,-163.44 0,-89.88 73.55,-163.43 163.44,-163.43z"/>
     <path id="Shape_7" class="fil3" d="M4298.61 7037.59c0,0 324.14,-1416.46 604.72,-1803.26 280.58,-386.8 525.73,-479.42 651.02,-493.04 125.31,-10.89 1122.27,283.29 2489.7,-54.48 0,0 539.35,-21.8 768.16,520.27 0,0 482.14,860.77 558.42,1721.54l92.61 0c0,0 196.12,-1506.35 117.13,-2405.25 -81.73,-896.18 -1255.75,-1340.19 -1255.75,-1340.19l256.05 -190.68c0,0 -596.55,-185.23 -836.25,-81.72l185.23 -381.36c0,0 -1206.71,2.73 -1884.98,547.51l24.51 -272.39c0,0 -2391.64,367.74 -1884.98,4181.28l114.41 51.77z"/>
     <path id="glasses" class="fil6" d="M9464.45 6227.21c-16.35,133.48 -29.96,299.64 -59.93,446.74 -87.17,438.56 -463.07,847.14 -1108.65,893.45 -645.58,46.31 -1193.1,-277.85 -1225.79,-724.57 -5.44,-76.27 -19.06,-160.71 -29.96,-242.43 -89.88,-51.76 -185.23,-51.76 -283.29,0 -10.89,84.44 -27.24,171.61 -32.69,250.61 -32.69,449.45 -582.93,773.6 -1228.5,727.3 -645.58,-46.31 -1024.21,-454.9 -1111.38,-896.19 -29.96,-147.1 -43.58,-313.25 -59.93,-446.73l-95.33 -8.18 13.62 -185.23 24.51 2.73 588.38 43.58 495.75 35.42 498.49 35.41 773.61 54.48c54.48,5.45 89.89,29.96 111.68,62.65 111.69,49.04 220.64,49.04 324.15,0 21.8,-35.41 59.93,-59.93 114.41,-68.1l770.88 -54.48 495.76 -35.42 495.76 -35.42 585.65 -40.86 21.79 -2.73 13.62 185.24 -92.61 2.73zm-3048.12 201.58l-1517.24 -108.96c-198.86,-16.35 -269.68,207.02 -280.57,375.91 -24.51,359.57 373.18,678.27 893.45,716.4 517.56,38.13 958.83,-223.37 986.08,-582.93 8.17,-168.89 62.65,-275.12 -81.72,-400.42zm2756.66 261.5c-10.9,-168.89 -81.73,-392.25 -280.57,-375.92l-1514.52 108.96c-147.1,125.3 -89.89,231.54 -78.99,400.42 24.51,356.84 465.8,615.62 983.35,580.21 520.26,-35.41 917.96,-356.84 890.73,-713.67z"/>
     <path id="Shape_3" class="fil2" d="M4192.37 6304.83c0,0 -550.24,-171.61 -531.17,394.98 0,0 81.72,819.92 117.13,893.46 0,0 215.19,476.69 572.03,498.49 348.67,21.79 0,0 0,0l5.45 152.54c0,0 -626.51,-79 -746.37,-800.85l-95.33 -656.48c0,0 -73.55,-866.22 645.57,-645.57 700.06,215.19 0,0 0,0l32.69 163.43z"/>
    </g>
   </g>
  </g>
  <polygon class="fil10" points="-0,13546.68 13546.68,13546.68 13546.68,0 -0,0 "/>
 </g>
</svg>
