<?xml version="1.0" encoding="UTF-8"?>
<!DOCTYPE svg PUBLIC "-//W3C//DTD SVG 1.1//EN" "http://www.w3.org/Graphics/SVG/1.1/DTD/svg11.dtd">
<!-- Creator: CorelDRAW -->
<svg xmlns="http://www.w3.org/2000/svg" xml:space="preserve" width="135.467mm" height="135.467mm" version="1.1" style="shape-rendering:geometricPrecision; text-rendering:geometricPrecision; image-rendering:optimizeQuality; fill-rule:evenodd; clip-rule:evenodd"
viewBox="0 0 13546.68 13546.68"
 xmlns:xlink="http://www.w3.org/1999/xlink"
 xmlns:xodm="http://www.corel.com/coreldraw/odm/2003">
 <defs>
  <style type="text/css">
   <![CDATA[
    .str1 {stroke:#00AFEF;stroke-width:20;stroke-miterlimit:22.9256}
    .str0 {stroke:#3E4095;stroke-width:20;stroke-miterlimit:22.9256}
    .fil10 {fill:none;fill-rule:nonzero}
    .fil6 {fill:black}
    .fil3 {fill:#00AFEF;fill-rule:nonzero}
    .fil2 {fill:#3E4095;fill-rule:nonzero}
    .fil5 {fill:black;fill-rule:nonzero}
    .fil1 {fill:#F2D346;fill-rule:nonzero}
    .fil9 {fill:#F7CB08;fill-rule:nonzero}
    .fil8 {fill:#F7CB08;fill-rule:nonzero}
    .fil4 {fill:#F7E4D4;fill-rule:nonzero}
    .fil7 {fill:#FCD3C2;fill-rule:nonzero}
    .fil0 {fill:url(#id1);fill-rule:nonzero}
   ]]>
  </style>
   <clipPath id="id0" style="clip-rule:nonzero">
    <path d="M-0 13546.68l13546.68 0 0 -13546.68 -13546.68 0 0 13546.68z"/>
   </clipPath>
  <radialGradient id="id1" gradientUnits="objectBoundingBox" cx="50%" cy="50%" r="50%" fx="50%" fy="50%">
   <stop offset="0" style="stop-opacity:1; stop-color:fuchsia"/>
   <stop offset="1" style="stop-opacity:1; stop-color:#FF0068"/>
  </radialGradient>
 </defs>
 <g id="Camada_x0020_1">
  <metadata id="CorelCorpID_0Corel-Layer"/>
  <polygon class="fil0" points="-0,13546.68 13546.68,13546.68 13546.68,0 -0,0 "/>
  <g style="clip-path:url(#id0)">
   <g id="_1938405159360">
    <g>
     <path id="_1" class="fil1" d="M11184.63 10616.27c-560.81,2452.98 -3431.35,1492.29 -4411.28,1084.74 0,0 0,-2.61 0,-2.61 -979.95,407.86 -3850.49,1369.29 -4411.3,-1085.57 0,0 1005.85,10.82 703.94,-3144.21 0,0 -1089.73,-6250.12 3707.36,-5727.71 0,0 0,10.24 0,10.24 4797.07,-522.01 3707.34,5723.32 3707.34,5723.32 -301.91,3152.61 703.94,3141.8 703.94,3141.8z"/>
     <path id="body-bg-flat_x0020_copy" class="fil2 str0" d="M7653.25 10824.01c0,0 -25.2,2.29 -35.19,136.51 0,112.76 0,217.66 0,297.58 0,64.34 -44.17,211.18 -44.17,211.18 0,0 -46.01,89.73 -77.94,125.85 -68.72,122.41 -174.36,249.69 -335.45,331.7 0,0 182.45,-52.28 351.97,234.64 0,0 434.08,-680.46 434.08,-680.46 0,0 229.54,-399.76 -293.3,-657z"/>
     <path id="body-bg-flat_x0020_copy_0" class="fil2 str0" d="M6051.5 11595.13c-31.89,-36.12 -77.85,-125.85 -77.85,-125.85 0,0 -44.11,-146.84 -44.11,-211.18 0,-79.92 0,-184.82 0,-297.58 -9.98,-134.22 -35.16,-136.51 -35.16,-136.51 -522.29,257.24 -292.99,657 -292.99,657 0,0 433.62,680.46 433.62,680.46 169.33,-286.92 351.58,-234.64 351.58,-234.64 -160.92,-82.01 -266.44,-209.29 -335.09,-331.7z"/>
     <path id="body-bg-flat_x0020_copy_1" class="fil3 str1" d="M6691.2 13545.86l0 -1454.81c-3.8,-1.52 -470.83,-185.65 -632.75,316.8 0,0 -597.7,-891.65 -597.7,-891.65 0,0 -117.36,-298.58 68.61,-563.14l-504.04 0c-1097.77,0 -2057.08,927.98 -2128.35,2143.97 0,0 -26.3,448.83 -26.3,448.83l3820.53 0z"/>
     <path id="body-bg-flat_x0020_copy_2" class="fil4" d="M6061.9 10434.73c210.5,55.47 832.77,186.78 1423.64,-9.64l0 825.78c-17.01,146.18 -117.77,562.71 -712.2,699.42 -593.8,-136.71 -694.45,-553.24 -711.44,-699.42l0 -816.14z"/>
     <path id="body-bg-flat_x0020_copy_3" class="fil3 str1" d="M8087.34 11516.2c0,0 -598.34,891.65 -598.34,891.65 -162.77,-504.5 -633.53,-316.77 -633.53,-316.77l0 1454.78 3809.01 0c0,0 -14.58,-448.83 -14.58,-448.83 -71.28,-1215.99 -1030.57,-2143.97 -2128.34,-2143.97l-502.89 0c186.14,264.57 68.67,563.14 68.67,563.14z"/>
     <path id="Ellipse_x0020_5" class="fil5" d="M7137.04 12619.03c45.35,0 82.12,36.77 82.12,82.12 0,45.35 -36.77,82.12 -82.12,82.12 -45.36,0 -82.13,-36.77 -82.13,-82.12 0,-45.35 36.77,-82.12 82.13,-82.12z"/>
     <path id="Ellipse_x0020_5_x0020_copy" class="fil5" d="M7137.04 13158.71c45.35,0 82.12,36.77 82.12,82.12 0,45.35 -36.77,82.12 -82.12,82.12 -45.36,0 -82.13,-36.77 -82.13,-82.12 0,-45.35 36.77,-82.12 82.13,-82.12z"/>
     <path id="Shape_x0020_2_x0020_copy_x0020_9" class="fil6" d="M8087.34 11516.2c0,0 -598.34,891.65 -598.34,891.65 -162.77,-504.5 -633.53,-316.77 -633.53,-316.77l0 1454.78 3809.01 0c0,0 -14.58,-448.83 -14.58,-448.83 -71.28,-1215.99 -1030.57,-2143.97 -2128.34,-2143.97l-502.89 0c186.14,264.57 68.67,563.14 68.67,563.14zm-1396.13 2029.66l0 -1454.81c-3.8,-1.52 -470.83,-185.65 -632.75,316.8 0,0 -597.7,-891.65 -597.7,-891.65 0,0 -117.36,-298.58 68.61,-563.14l-504.04 0c-1097.77,0 -2057.08,927.98 -2128.35,2143.97 0,0 -26.3,448.83 -26.3,448.83l3820.53 0zm-1040.21 -2721.85c70.44,-57.23 161.4,-109.52 278.55,-152.52 0,-256.35 0,-269.84 0,-269.84 0,0 132.36,0 132.36,0 0,0 0,490.11 0,849.22 16.99,146.18 117.64,562.71 711.44,699.42 594.43,-136.71 695.19,-553.24 712.2,-699.42 0,-359.11 0,-849.22 0,-849.22 0,0 132.51,0 132.51,0 0,0 0,13.49 0,269.84 117.28,43 208.36,95.29 278.84,152.52l686.84 0c1139.02,0 2134.35,964.08 2208.3,2227.37 0,0 37.88,647.01 37.88,647.01 0,0 -144.77,0 -144.77,0 0,0 -7823.42,0 -7823.42,0 0,0 -151.72,0 -151.72,0 0,0 37.87,-647.01 37.87,-647.01 73.94,-1263.29 1069.28,-2227.37 2208.3,-2227.37l694.81 0zm400.51 771.12c-31.89,-36.12 -77.85,-125.85 -77.85,-125.85 0,0 -44.11,-146.84 -44.11,-211.18 0,-79.92 0,-184.82 0,-297.58 -9.98,-134.22 -35.16,-136.51 -35.16,-136.51 -522.29,257.24 -292.99,657 -292.99,657 0,0 433.62,680.46 433.62,680.46 169.33,-286.92 351.58,-234.64 351.58,-234.64 -160.92,-82.01 -266.44,-209.29 -335.09,-331.7zm1601.74 -771.12c0,0 -25.2,2.29 -35.19,136.51 0,112.76 0,217.66 0,297.58 0,64.34 -44.17,211.18 -44.17,211.18 0,0 -46.01,89.73 -77.94,125.85 -68.72,122.41 -174.36,249.69 -335.45,331.7 0,0 182.45,-52.28 351.97,234.64 0,0 434.08,-680.46 434.08,-680.46 0,0 229.54,-399.76 -293.3,-657z"/>
     <path id="_2_x0020_copy_x0020_5" class="fil4" d="M6779.24 2998.66c1459.5,0 2611.47,1363.9 2574.02,3002.65 0,0 -39.82,1741.7 -39.82,1741.7 -35.28,1543.87 -1169.49,2764.22 -2534.2,2764.22 -1364.7,0 -2498.91,-1220.35 -2534.21,-2764.22 0,0 -39.8,-1741.7 -39.8,-1741.7 -37.46,-1638.75 1114.52,-3002.65 2574.01,-3002.65z"/>
     <path id="_2_x0020_line" class="fil6" d="M9470.53 5947.31c0,0 -41.72,1812.46 -41.72,1812.46 -36.97,1606.59 -1225.45,2876.52 -2655.43,2876.52 -1429.99,0 -2618.46,-1269.93 -2655.43,-2876.52 0,0 -41.72,-1812.46 -41.72,-1812.46 -39.25,-1705.33 1167.84,-3124.63 2697.15,-3124.63 1529.31,0 2736.39,1419.3 2697.15,3124.63zm-2703.02 -2936.92c-1439.53,0 -2575.76,1353.24 -2538.82,2979.19 0,0 39.27,1728.1 39.27,1728.1 34.8,1531.8 1153.51,2742.62 2499.55,2742.62 1346.06,0 2464.77,-1210.82 2499.57,-2742.62 0,0 39.27,-1728.1 39.27,-1728.1 36.94,-1625.95 -1099.29,-2979.19 -2538.84,-2979.19z"/>
     <path id="usta" class="fil5" d="M8040.41 8796.71c-213.25,185.16 -694.91,361.34 -1255.34,361.34 -560.43,0 -1042.09,-176.18 -1255.34,-361.34 0,0 -21.81,-60.03 10.19,-92.04 32.61,-32.61 83.67,-25.52 83.67,-25.52 213.02,185.29 600.84,338.11 1161.48,338.11 560.65,0 948.46,-152.82 1161.48,-338.11 0,0 52.11,-19.35 77.43,5.96 48.75,48.76 16.43,111.6 16.43,111.6z"/>
     <path id="_-" class="fil5" d="M6397.9 9439.61c0,0 750.86,0 750.86,0 0,0 0,117.33 0,117.33 0,0 -750.86,0 -750.86,0 0,0 0,-117.33 0,-117.33z"/>
     <path id="oko" class="fil5" d="M5482.8 6342.31c129.58,0 234.64,105.06 234.64,234.65 0,129.59 -105.06,234.64 -234.64,234.64 -129.6,0 -234.65,-105.05 -234.65,-234.64 0,-129.59 105.05,-234.65 234.65,-234.65z"/>
     <path id="oko_1" class="fil5" d="M8087.34 6342.31c129.59,0 234.64,105.06 234.64,234.65 0,129.59 -105.05,234.64 -234.64,234.64 -129.59,0 -234.65,-105.05 -234.65,-234.64 0,-129.59 105.06,-234.65 234.65,-234.65z"/>
     <path id="Ellipse_x0020_3_x0020_copy" class="fil7" d="M5471.06 7210.5c226.78,0 410.63,13.02 410.63,269.85 0,264.9 -183.85,269.83 -410.63,269.83 -226.78,0 -410.62,-48.24 -410.62,-269.83 0,-258.85 183.84,-269.85 410.62,-269.85z"/>
     <path id="Ellipse_x0020_3_x0020_copy_x0020_2" class="fil7" d="M8192.93 7210.5c226.78,0 410.62,13.02 410.62,269.85 0,264.9 -183.84,269.83 -410.62,269.83 -226.78,0 -410.62,-48.24 -410.62,-269.83 0,-258.85 183.84,-269.85 410.62,-269.85z"/>
     <path id="R_x0020_copy" class="fil5" d="M7405.78 5917.31c0,0 67.96,86.32 67.96,86.32 0,0 42.16,53.49 42.16,53.49 0,0 746.56,-412.24 1264.73,63.38 0,0 55.25,27.09 55.25,27.09 0,0 -127.65,-689.52 -1245.11,-286.21 -58.96,16 -120.47,34.45 -184.99,55.93z"/>
     <path id="L_x0020_copy" class="fil5" d="M6113.39 5917.78c0,0 -67.96,86.15 -67.96,86.15 0,0 -42.16,53.39 -42.16,53.39 0,0 -746.55,-411.39 -1264.73,63.25 0,0 -55.25,27.02 -55.25,27.02 0,0 127.65,-688.1 1245.11,-285.61 58.96,15.96 120.47,34.37 184.99,55.8z"/>
     <path id="Rectangle_x0020_19" class="fil8" d="M9284.02 4911c0,0 492.75,0 492.75,0 0,0 0,1173.21 0,1173.21 0,0 -492.75,0 -492.75,0 0,0 0,-1173.21 0,-1173.21z"/>
     <g>
      <path id="Shape_x0020_15" class="fil9" d="M3880.03 5975.96c0,0 518.25,-997.87 1510.01,-839.14 0,0 39.22,227.3 252.48,471.63 0,0 233.48,-565.12 953.44,-724.33 571.95,-126.47 1114.91,-582.4 1114.91,-582.4 0,0 84.46,906.06 1198.89,1158.37 0,0 976.45,120.73 905.59,-418.82 -70.87,-539.56 -612.75,-2887.96 -3207.56,-2532.45 -2594.8,355.5 -3204.22,1297.8 -2750.81,3443.51l23.05 23.63zm0 0l0 0 0 0z"/>
     </g>
     <path id="Shape_x0020_11_x0020_copy" class="fil4" d="M4045.81 6211.61c-0.33,0.02 -28.81,-22.73 -82.6,-39.66 -26.88,-8.45 -60.28,-15.41 -98.36,-17.11 -9.52,-0.44 -19.3,-0.53 -29.32,-0.25 -10.02,0.28 -20.25,0.96 -30.67,2.07 -20.82,2.22 -42.33,6.21 -63.96,12.44 -86.66,24.9 -175.05,85.45 -226.96,210.41 -26.05,62.48 -43.24,141.07 -47.8,239.4 -1.13,24.59 -1.48,50.41 -0.98,77.52 0.5,27.11 1.85,55.51 4.09,85.25 4.5,59.5 12.61,124.38 24.71,195.08 -0.27,-0.07 -11.28,213.66 65.13,459.23 71.82,240.11 244.31,535.06 562.78,619.34 -36.64,-609.87 -37.77,-1231.17 -76.06,-1843.72 0,0 0,0 0,0z"/>
     <path id="Shape_x0020_3" class="fil5" d="M4109.62 6236.19c0,0 -554.79,-171.9 -535.28,398.46 0,0 82.6,827.05 118.47,903.26 0,0 217.89,481.54 577.48,502.87 351.43,20.86 0,0 0,0 0,0 4.36,155.22 4.36,155.22 0,0 -632.02,-81.03 -754.09,-809.37 0,0 -96.34,-661.66 -96.34,-661.66 0,0 -74.82,-875.64 650.84,-653 706.94,216.89 0,0 0,0 0,0 34.56,164.22 34.56,164.22z"/>
     <path id="Shape_x0020_4" class="fil5" d="M3926.5 7385.25c0,0 -31.06,23.46 -57.72,23.46 -26.68,0 -57.35,-23.46 -57.35,-23.46 0,0 -57.25,-576.97 -57.25,-576.97 0,0 78.99,-284.15 414.21,-133.98 0,0 7.93,164.97 7.93,164.97 0,0 -294.11,-104.3 -288.03,25.59 5.86,125.01 38.21,520.39 38.21,520.39z"/>
     <path id="Shape_x0020_11_x0020_copy_1" class="fil4" d="M9490.43 6212.96c0.33,0.02 28.93,-22.71 82.95,-39.64 27,-8.44 60.56,-15.38 98.81,-17.1 9.55,-0.42 19.38,-0.53 29.44,-0.25 10.06,0.29 20.35,0.96 30.8,2.07 20.91,2.23 42.52,6.22 64.25,12.44 87.03,24.88 175.8,85.39 227.94,210.25 26.18,62.45 43.44,140.99 48.01,239.26 1.14,24.56 1.49,50.37 0.99,77.46 -0.5,27.08 -1.86,55.47 -4.11,85.2 -4.51,59.45 -12.66,124.29 -24.81,194.93 0.27,-0.06 11.33,213.52 -65.41,458.93 -72.15,239.94 -245.39,534.7 -565.25,618.92 36.78,-609.46 37.93,-1230.34 76.39,-1842.47 0,0 0,0 0,0z"/>
     <path id="Shape_x0020_3_1" class="fil5" d="M9426.34 6237.52c0,0 557.23,-171.79 537.62,398.19 0,0 -82.96,826.48 -118.98,902.65 0,0 -218.84,481.21 -580.01,502.54 -352.97,20.84 0,0 0,0 0,0 -4.38,155.1 -4.38,155.1 0,0 634.78,-80.98 757.38,-808.82 0,0 96.78,-661.21 96.78,-661.21 0,0 75.14,-875.04 -653.7,-652.56 -710.03,216.75 0,0 0,0 0,0 -34.71,164.11 -34.71,164.11z"/>
     <path id="Shape_x0020_4_1" class="fil5" d="M9610.27 7385.8c0,0 31.18,23.44 57.97,23.44 26.79,0 57.59,-23.44 57.59,-23.44 0,0 57.51,-576.58 57.51,-576.58 0,0 -79.35,-283.94 -416.03,-133.9 0,0 -7.96,164.87 -7.96,164.87 0,0 295.39,-104.22 289.28,25.56 -5.87,124.94 -38.36,520.05 -38.36,520.05z"/>
     <path id="new_vector_shape_done" class="fil6" d="M6990.39 7339.56c13.68,0 27.37,0 41.06,0 84.89,115.3 119.43,292.47 164.24,445.82 13.9,47.53 0.42,130.65 -11.72,164.25 -44.49,123.07 -184.17,120.86 -299.17,175.98 -30.89,14.81 -53.87,40.36 -93.86,46.93 -26.08,-22.97 -57.56,-27.48 -70.4,-64.53 -31.68,-43.62 9.16,-70.87 41.07,-87.99 57.91,-31.05 236.69,-61.67 258.1,-117.31 26.49,-30.14 8.88,-120.72 0,-152.53 -22.73,-81.44 -33.64,-149.44 -64.52,-222.91 -20.52,-48.79 -56.54,-100.23 -35.19,-158.38 17.67,-7.6 55.9,-16.22 70.39,-29.33z"/>
    </g>
   </g>
  </g>
  <polygon class="fil10" points="-0,13546.68 13546.68,13546.68 13546.68,0 -0,0 "/>
 </g>
</svg>
